<?xml version="1.0" encoding="UTF-8"?>
<svg version="1.1" xmlns="http://www.w3.org/2000/svg" width="1254" height="1254">
<path d="M0 0 C413.82 0 827.64 0 1254 0 C1254 413.82 1254 827.64 1254 1254 C840.18 1254 426.36 1254 0 1254 C0 840.18 0 426.36 0 0 Z " fill="#FDFDFD" transform="translate(0,0)"/>
<path d="M0 0 C413.82 0 827.64 0 1254 0 C1254 413.82 1254 827.64 1254 1254 C840.18 1254 426.36 1254 0 1254 C0 840.18 0 426.36 0 0 Z M88.375 23.6875 C87.32445435 24.07095581 87.32445435 24.07095581 86.25268555 24.4621582 C58.88833433 34.86290572 38.97528891 55.97565145 26.6875 82.08203125 C19.90225619 97.29253633 18.69900378 113.12283727 18.75111103 129.52170849 C18.74932585 131.28785731 18.74666389 133.05400543 18.74321017 134.82015178 C18.73626411 139.66807189 18.74174012 144.51590991 18.74926625 149.36382621 C18.7552476 154.64002003 18.74960394 159.91620361 18.74544543 165.19239742 C18.7397623 174.43782024 18.74150999 183.6832185 18.7481308 192.92864037 C18.75794889 206.67670607 18.75631593 220.42475379 18.7523805 234.17282158 C18.74610441 257.30197848 18.74925594 280.4311226 18.75797462 303.56027794 C18.76659431 326.46797466 18.77150631 349.37566683 18.77130699 372.28336525 C18.77129907 373.72217317 18.77129135 375.16098108 18.77128382 376.599789 C18.77124645 382.38176083 18.77118003 388.16373267 18.77107801 393.9457045 C18.77080039 410.10831043 18.77118909 426.27091631 18.77206707 442.43352222 C18.77210674 443.16951183 18.77214641 443.90550144 18.77218729 444.66379376 C18.77349514 468.11389217 18.77766603 491.56398914 18.78392506 515.01408672 C18.784128 515.77462293 18.78433093 516.53515915 18.78454002 517.31874191 C18.78784874 529.66931227 18.79134405 542.01988259 18.79484874 554.3704529 C18.80873946 603.36163438 18.81538175 652.35281069 18.81469727 701.34399414 C18.81467688 702.89273924 18.81465666 704.44148434 18.81463663 705.99022944 C18.81459644 709.08404678 18.81455567 712.17786411 18.81451452 715.27168144 C18.8144231 722.20860434 18.81433875 729.14552724 18.81426793 736.08245014 C18.81425216 737.6188607 18.81423572 739.15527126 18.8142186 740.69168183 C18.81377338 781.72990053 18.81824055 822.76811853 18.82457083 863.8063367 C18.82468101 864.5227222 18.82479118 865.2391077 18.82490469 865.97720185 C18.82640011 875.70051624 18.82640011 875.70051624 18.82792928 885.42383063 C18.8304251 901.18175285 18.83236606 916.93967484 18.83274293 932.69759727 C18.83276046 933.40778897 18.83277799 934.11798068 18.83279605 934.84969335 C18.83286525 937.711915 18.83293051 940.57413665 18.83299353 943.4363583 C18.8335794 969.98469482 18.83735039 996.53302623 18.84747223 1023.08136114 C18.85259344 1036.75017477 18.85499453 1050.41898239 18.85347604 1064.08779693 C18.85274302 1073.21010755 18.8556348 1082.33241231 18.86151985 1091.45472105 C18.86477744 1096.65737866 18.86644831 1101.86002365 18.86375926 1107.06268188 C18.86134934 1111.79386206 18.86352145 1116.52501699 18.86937737 1121.25619396 C18.87067947 1122.95874231 18.87030418 1124.66129296 18.86806076 1126.36384032 C18.83413157 1154.36383594 26.84286486 1180.05095596 46 1201 C46.75796875 1201.83917969 47.5159375 1202.67835937 48.296875 1203.54296875 C65.44812942 1221.61904571 89.07481152 1233.35509521 114 1235 C119.74792705 1235.14474208 125.49379392 1235.13801301 131.24323559 1235.13142776 C133.00353163 1235.13307916 134.76382732 1235.13516623 136.52412239 1235.13764787 C141.3651356 1235.1432016 146.20613107 1235.14254448 151.04714645 1235.14087028 C156.31248951 1235.14013826 161.57782762 1235.14516427 166.84316856 1235.1494453 C177.28790473 1235.15702108 187.7326358 1235.15921814 198.17737444 1235.15977435 C210.6872519 1235.16068839 223.19712463 1235.16735706 235.70700006 1235.17412117 C265.22270399 1235.1897972 294.73840639 1235.19586881 324.25411362 1235.2005282 C339.27200152 1235.2029123 354.28988898 1235.20661593 369.30777654 1235.2105653 C417.48754083 1235.22322832 465.66730511 1235.23401275 513.84707104 1235.23740576 C516.14917438 1235.237568 518.45127771 1235.23773356 520.75338104 1235.23790014 C525.3702209 1235.23823394 529.98706075 1235.23856442 534.60390061 1235.2388947 C540.00900253 1235.2392816 545.41410445 1235.23967121 550.81920637 1235.24006577 C552.36618497 1235.24017818 553.91316357 1235.2402896 555.46014217 1235.24040002 C605.14936451 1235.24394985 654.8385724 1235.25903076 704.52778922 1235.28233776 C740.2382488 1235.29908117 775.94870565 1235.31455507 811.6591692 1235.31907272 C812.76092756 1235.31921295 812.76092756 1235.31921295 813.88494366 1235.31935601 C830.00969319 1235.32137512 846.13444268 1235.32253112 862.25919232 1235.3228846 C868.0290261 1235.32302077 873.79885987 1235.32322976 879.56869365 1235.32347785 C881.00406286 1235.32353941 882.43943207 1235.32359773 883.87480129 1235.3236528 C906.73777106 1235.32457226 929.60072573 1235.33453606 952.46369053 1235.34911029 C976.13418663 1235.36413892 999.80465561 1235.36831184 1023.47515669 1235.36001733 C1037.12050225 1235.35555736 1050.7657859 1235.35943646 1064.41112334 1235.37525584 C1073.52551761 1235.38499554 1082.63986843 1235.38383721 1091.75426228 1235.37381961 C1096.94754447 1235.36842041 1102.14070765 1235.36774068 1107.33398005 1235.38032833 C1112.06373124 1235.39169679 1116.793267 1235.38911049 1121.52301085 1235.37566125 C1123.21829552 1235.37323703 1124.91359695 1235.37577652 1126.60886312 1235.38405773 C1140.12549267 1235.44571443 1152.83676066 1233.97171153 1165.625 1229.25 C1166.33172852 1228.99250977 1167.03845703 1228.73501953 1167.76660156 1228.46972656 C1194.17556671 1218.53804802 1214.39212252 1198.48121368 1226.24609375 1173.08203125 C1233.51485599 1156.66730071 1235.30490817 1140.17930608 1235.25447559 1122.39041424 C1235.25686904 1120.62692341 1235.26013654 1118.8634336 1235.26419219 1117.09994581 C1235.27278655 1112.26402372 1235.26899642 1107.42817957 1235.26313647 1102.59225634 C1235.25895825 1097.32722094 1235.2663726 1092.06219957 1235.27228898 1086.7971676 C1235.28104751 1077.57268449 1235.28236432 1068.34822357 1235.27878571 1059.12373734 C1235.27347817 1045.40644432 1235.27957452 1031.6891728 1235.28786864 1017.97188212 C1235.30269352 992.7603717 1235.30495819 967.54887427 1235.30254826 942.33736093 C1235.3022098 938.76679958 1235.30188771 935.19623823 1235.30158257 931.62567687 C1235.30152153 930.91644778 1235.30146049 930.20721869 1235.30139759 929.47649781 C1235.300125 913.75001845 1235.30272835 898.02354045 1235.30610864 882.2970615 C1235.30687939 878.70476586 1235.30762412 875.11247021 1235.30837366 871.52017457 C1235.30867535 870.07840999 1235.30897723 868.63664542 1235.3092793 867.19488085 C1235.30950382 866.12288547 1235.30950382 866.12288547 1235.30973287 865.02923361 C1235.31003641 863.58365047 1235.31034109 862.13806733 1235.31064692 860.69248419 C1235.31931863 819.68086217 1235.32396479 778.66924135 1235.31969929 737.65761852 C1235.31962123 736.89839329 1235.31954317 736.13916805 1235.31946275 735.35693598 C1235.31858997 726.89100439 1235.31766071 718.4250728 1235.31671212 709.95914122 C1235.31662661 709.19481015 1235.3165411 708.43047908 1235.316453 707.64298646 C1235.31593421 703.00647089 1235.31593421 703.00647089 1235.31541077 698.36995532 C1235.30987497 649.48059755 1235.31741775 600.59125866 1235.33618164 551.7019043 C1235.34090395 539.38267362 1235.3455845 527.06344293 1235.3500185 514.74421215 C1235.35029182 513.98564236 1235.35056515 513.22707257 1235.35084675 512.44551582 C1235.35921941 489.06201404 1235.36389784 465.67851383 1235.36472607 442.29501057 C1235.36475243 441.56075989 1235.3647788 440.82650921 1235.36480596 440.0700085 C1235.36534677 423.95072685 1235.36497423 407.83144532 1235.36376625 391.71216371 C1235.36334064 385.94430996 1235.36297551 380.1764562 1235.36263681 374.40860245 C1235.36255151 372.97374352 1235.36246257 371.5388846 1235.36236999 370.10402568 C1235.36092201 347.25327871 1235.36804232 324.40254458 1235.37937395 301.55180069 C1235.39102961 277.89445973 1235.39158066 254.23714793 1235.37953053 230.5798051 C1235.37289573 216.9435432 1235.37454733 203.30734166 1235.38811904 189.67108458 C1235.39635467 180.56157241 1235.39367749 171.45210551 1235.38214377 162.34259703 C1235.37587865 157.15297874 1235.37430912 151.96347834 1235.38600711 146.7738668 C1235.39656544 142.04630323 1235.39314584 137.31895716 1235.37890258 132.59140514 C1235.37618956 130.89804247 1235.37842132 129.20466215 1235.38640973 127.51131614 C1235.51853297 97.43499383 1225.30640854 69.65170759 1204.125 48.00390625 C1189.45177181 33.63023191 1170.98828412 24.30359995 1151 20 C1150.28383262 19.83201558 1149.56766524 19.66403115 1148.82979582 19.4909563 C1140.12202695 17.64566209 1131.50137563 17.72049559 1122.65212727 17.74552441 C1120.89267286 17.7431321 1119.13321947 17.73986534 1117.37376812 17.73580781 C1112.53972919 17.72719759 1107.70576803 17.73101022 1102.87172793 17.73686353 C1097.61221051 17.74103601 1092.35270722 17.73363063 1087.09319323 17.72771102 C1077.87529703 17.71894629 1068.65742304 17.71763789 1059.4395237 17.72121429 C1045.73199325 17.72651859 1032.02448433 17.72042872 1018.31695623 17.71213136 C993.12362331 17.69730103 967.9303034 17.69504244 942.73696757 17.69745174 C939.16810966 17.69779019 935.59925175 17.69811229 932.03039384 17.69841743 C931.32151213 17.69847847 930.61263042 17.69853951 929.88226744 17.69860241 C914.16721233 17.69987471 898.45215858 17.69727217 882.73710388 17.69389136 C879.14796929 17.69312061 875.55883469 17.69237588 871.96970009 17.69162634 C870.52921233 17.69132465 869.08872457 17.69102277 867.64823682 17.6907207 C866.93420803 17.69057102 866.22017924 17.69042134 865.48451322 17.69026713 C864.04022003 17.68996359 862.59592683 17.68965891 861.15163364 17.68935308 C820.17209987 17.68068039 779.1925673 17.67603587 738.21303272 17.68030071 C737.07490859 17.6804178 737.07490859 17.6804178 735.91379205 17.68053725 C727.45307516 17.68141004 718.99235828 17.6823393 710.5316414 17.68328788 C709.76777457 17.68337339 709.00390774 17.6834589 708.21689344 17.683547 C703.58319047 17.68406579 703.58319047 17.68406579 698.94948751 17.68458923 C650.0944914 17.6901245 601.23951418 17.68258418 552.38452148 17.66381836 C540.07524272 17.65909606 527.76596394 17.65441551 515.45668507 17.6499815 C514.69873208 17.64970818 513.94077909 17.64943485 513.15985782 17.64915325 C489.79519178 17.64078053 466.43052732 17.63610215 443.06585979 17.63527393 C442.33219081 17.63524757 441.59852182 17.6352212 440.84262044 17.63519404 C424.73600675 17.63465322 408.62939318 17.63502577 392.52277953 17.63623375 C386.75939934 17.63665937 380.99601914 17.63702449 375.23263894 17.63736319 C373.79888421 17.63744849 372.36512948 17.63753743 370.93137476 17.63763001 C348.09731472 17.63907805 325.26326754 17.63195727 302.42921059 17.62062605 C278.78779839 17.60897016 255.14641536 17.60841954 231.50500128 17.62046947 C217.87763676 17.62710428 204.25033263 17.62545265 190.62297291 17.61188096 C181.51932058 17.60364527 172.41571356 17.60632258 163.31206491 17.61785623 C158.12575821 17.62412133 152.93956948 17.62569093 147.75326953 17.61399289 C143.02868609 17.60343444 138.30432029 17.6068543 133.5797484 17.62109742 C131.88745988 17.62381041 130.19515371 17.62157876 128.50288187 17.61359027 C114.75862398 17.55317383 101.38219053 18.87020911 88.375 23.6875 Z " fill="#FDFDFD" transform="translate(0,0)"/>
<path d="M0 0 C1.07772749 -0.00266251 1.07772749 -0.00266251 2.17722725 -0.00537882 C4.59009427 -0.01011808 7.0029015 -0.00774598 9.41577131 -0.00541991 C11.16848951 -0.00737311 12.92120728 -0.00976206 14.67392436 -0.01254788 C19.51257218 -0.01895505 24.35120342 -0.01910893 29.18985467 -0.01827047 C34.44574089 -0.01843983 39.70162114 -0.0243444 44.95750439 -0.02951133 C55.39210508 -0.03884491 65.82670153 -0.04276066 76.26130588 -0.0450303 C88.75602359 -0.04799042 101.25073565 -0.05668675 113.7454504 -0.06544458 C143.94917264 -0.08629835 174.15289495 -0.09676391 204.35662258 -0.10557419 C214.36018285 -0.10850842 224.36374292 -0.11187835 234.36730295 -0.1155414 C235.42598496 -0.11592884 235.42598496 -0.11592884 236.50605447 -0.1163241 C239.36148709 -0.11737034 242.2169197 -0.11841876 245.07235232 -0.11946992 C293.91925176 -0.13743568 342.76615155 -0.1528138 391.61305383 -0.16022895 C395.44995057 -0.16081292 399.28684732 -0.16141019 403.12374406 -0.16200657 C403.88485757 -0.16212469 404.64597108 -0.16224281 405.43014863 -0.16236451 C413.14121192 -0.16356188 420.8522752 -0.16477065 428.56333848 -0.16599704 C430.10942136 -0.16624227 431.65550424 -0.16648613 433.20158711 -0.16672861 C482.84169786 -0.17451606 532.48178494 -0.19689381 582.12188535 -0.22940504 C617.78924655 -0.2527571 653.45660305 -0.27430557 689.12397176 -0.28141135 C689.85781574 -0.28155837 690.59165972 -0.28170539 691.34774139 -0.28185687 C707.45926982 -0.28504203 723.57079821 -0.28709269 739.68232692 -0.28808442 C746.16540467 -0.28849914 752.64848241 -0.28905404 759.13156015 -0.28964633 C760.19584044 -0.28973733 760.19584044 -0.28973733 761.28162134 -0.28983017 C784.11847417 -0.29184456 806.95529904 -0.30607128 829.79214212 -0.32659133 C853.44425566 -0.3477685 877.09632159 -0.35451764 900.74844625 -0.34471754 C914.3796185 -0.33950123 928.01067979 -0.34538633 941.64183608 -0.36725221 C950.75202807 -0.38076117 959.8621437 -0.37968237 968.97233646 -0.36685025 C974.16003622 -0.35995437 979.34752387 -0.35928163 984.53520467 -0.37641034 C989.26464798 -0.39189832 993.99371018 -0.38860471 998.72314269 -0.37100006 C1000.41381994 -0.36787785 1002.10452697 -0.37130131 1003.79517007 -0.38249181 C1030.63736709 -0.54843543 1057.29861689 7.16933898 1077.69151765 25.12880117 C1078.91934968 26.14200429 1078.91934968 26.14200429 1080.1719864 27.17567617 C1099.76925573 43.82575925 1111.85708503 68.77048687 1114.69151765 94.12880117 C1114.96567839 100.00324231 1114.96090315 105.86706607 1114.94319993 111.74676687 C1114.94528947 113.51116541 1114.94825438 115.2755631 1114.95200866 117.03995889 C1114.95977562 121.87838273 1114.95514797 126.71672643 1114.94845276 131.55514891 C1114.94337087 136.82284895 1114.94990256 142.09053687 1114.95493942 147.35823518 C1114.96215923 156.58731043 1114.96194584 165.81636227 1114.9568451 175.04543859 C1114.94928074 188.7693966 1114.95314732 202.49333487 1114.95926172 216.21729276 C1114.96918479 239.30731644 1114.96955171 262.39732799 1114.96410829 285.48735219 C1114.9639427 286.19009738 1114.96377711 286.89284256 1114.9636065 287.61688306 C1114.96344064 288.32075653 1114.96327478 289.02462999 1114.96310389 289.74983296 C1114.95805619 311.19959227 1114.95675537 332.64934778 1114.95914918 354.09910756 C1114.95930414 355.53585933 1114.95945845 356.9726111 1114.95961212 358.40936287 C1114.96023306 364.18317149 1114.9608704 369.95698011 1114.96153165 375.73078872 C1114.9633656 391.87065656 1114.96450685 408.01052442 1114.96510392 424.15039235 C1114.96513122 424.88534434 1114.96515851 425.62029632 1114.96518663 426.37751957 C1114.9660051 449.79388668 1114.96375183 473.21025247 1114.95940477 496.62661916 C1114.95919402 497.765738 1114.95919402 497.765738 1114.95897902 498.92786935 C1114.95668916 511.25999129 1114.95425021 523.5921132 1114.95179867 535.92423511 C1114.94208611 584.83389882 1114.94253691 633.74355157 1114.95225984 682.65321523 C1114.95470225 694.97913787 1114.95712436 707.30506051 1114.95940477 719.63098317 C1114.95961611 720.76943377 1114.95961611 720.76943377 1114.95983173 721.93088337 C1114.96414453 745.32299242 1114.96597256 768.71510055 1114.96510392 792.10720998 C1114.96506317 793.20882691 1114.96506317 793.20882691 1114.9650216 794.33269873 C1114.96439662 810.45467935 1114.96312931 826.57665988 1114.96128292 842.69864041 C1114.96062464 848.46726614 1114.95999848 854.23589188 1114.9593815 860.00451762 C1114.95922672 861.43958211 1114.95906926 862.8746466 1114.9589091 864.3097111 C1114.95652256 885.7533821 1114.95855356 907.19704881 1114.9636065 928.64071928 C1114.96385488 929.69483705 1114.96385488 929.69483705 1114.96410829 930.77025014 C1114.96427365 931.47169714 1114.96443902 932.17314413 1114.96460939 932.8958471 C1114.97012725 956.56040301 1114.96809 980.22494507 1114.9575468 1003.8895002 C1114.95166888 1017.53304547 1114.95129862 1031.17656462 1114.95883915 1044.82010921 C1114.96331941 1053.93064736 1114.96054092 1063.04116454 1114.95182961 1072.15169958 C1114.94706687 1077.34434554 1114.94545621 1082.53693957 1114.95264158 1087.72958392 C1114.95911564 1092.45636291 1114.95633789 1097.18304405 1114.94628026 1101.90981595 C1114.94427118 1103.60627367 1114.94558428 1105.30273954 1114.95069213 1106.99919076 C1115.03972987 1138.83828587 1104.95952213 1165.16972069 1082.69151765 1188.12880117 C1063.98207483 1206.90858024 1037.72943277 1217.2428267 1011.39954099 1217.39211499 C1008.99851214 1217.39477087 1006.59761775 1217.38770054 1004.19659978 1217.38048345 C1002.43336673 1217.38257248 1000.67013454 1217.38553702 998.90690425 1217.38929218 C994.06705442 1217.39706633 989.22728459 1217.39242767 984.3874361 1217.38573628 C979.11992854 1217.38065789 973.85243315 1217.38718469 968.58492732 1217.39222294 C959.35463934 1217.39944532 950.12437476 1217.39922778 940.89408571 1217.39412862 C927.16830835 1217.38656658 913.44255075 1217.39042964 899.71677353 1217.39654524 C876.62407737 1217.40647002 853.53139336 1217.40683445 830.43869668 1217.4013918 C829.38430574 1217.40114342 829.38430574 1217.40114342 828.30861397 1217.40089001 C827.60455861 1217.40072415 826.90050325 1217.4005583 826.17511287 1217.40038741 C804.72210364 1217.39534024 783.2690982 1217.39403863 761.8160885 1217.3964327 C760.37926729 1217.39658766 758.94244609 1217.39674197 757.50562488 1217.39689564 C751.73156495 1217.39751658 745.95750502 1217.39815391 740.18344509 1217.39881517 C724.04265218 1217.40064915 707.90185926 1217.40179038 691.76106626 1217.40238744 C691.02606096 1217.40241473 690.29105566 1217.40244202 689.53377747 1217.40247014 C666.11446142 1217.40328866 642.69514668 1217.40103514 619.27583104 1217.39668828 C618.51628579 1217.39654778 617.75674054 1217.39640729 616.97417877 1217.39626253 C604.63981731 1217.39397266 592.30545588 1217.39153372 579.97109446 1217.38908218 C531.05473772 1217.37937009 482.13839192 1217.37981993 433.22203523 1217.38954335 C420.89507277 1217.39198576 408.56811031 1217.39440787 396.24114782 1217.39668828 C395.48211877 1217.39682918 394.72308973 1217.39697008 393.94105981 1217.39711524 C370.54696042 1217.40142806 347.15286195 1217.40325607 323.75876218 1217.40238744 C322.65704457 1217.40234669 322.65704457 1217.40234669 321.53307004 1217.40230511 C305.40956665 1217.40168013 289.28606336 1217.40041282 273.16256006 1217.39856643 C267.3933601 1217.39790816 261.62416013 1217.397282 255.85496016 1217.39666501 C254.41974841 1217.39651024 252.98453666 1217.39635277 251.54932491 1217.39619262 C230.10303692 1217.39380603 208.65675321 1217.39583717 187.21046575 1217.40089001 C186.15619901 1217.4011384 186.15619901 1217.4011384 185.08063394 1217.4013918 C184.37908741 1217.40155717 183.67754089 1217.40172253 182.95473538 1217.40189291 C159.28659594 1217.40741082 135.61847029 1217.40537344 111.95033181 1217.39483032 C98.30456989 1217.38895238 84.65883407 1217.38858215 71.01307281 1217.39612267 C61.90102165 1217.40060293 52.78899146 1217.39782443 43.67694341 1217.38911313 C38.48341566 1217.38435038 33.28993982 1217.38273975 28.09641368 1217.38992509 C23.36882221 1217.39639915 18.64132857 1217.39362141 13.91374419 1217.38356377 C12.21699003 1217.38155469 10.52022771 1217.38286781 8.82348005 1217.38797565 C-0.72257418 1217.41466637 -9.89986882 1216.93485785 -19.30848235 1215.12880117 C-20.29454006 1214.94777062 -21.28059777 1214.76674007 -22.29653602 1214.58022375 C-36.32224026 1211.84671108 -50.44542192 1204.24884217 -61.30848235 1195.12880117 C-62.15539641 1194.41981679 -63.00231047 1193.71083242 -63.8748886 1192.98036367 C-80.11362488 1178.84894431 -91.11457706 1161.78581891 -97.68348235 1141.31630117 C-97.93428557 1140.54028554 -98.18508879 1139.76426992 -98.44349211 1138.96473867 C-101.74869404 1128.15231914 -101.45352541 1117.19685854 -101.44270343 1106.0069626 C-101.44465804 1104.24763966 -101.44704753 1102.48831717 -101.4498314 1100.72899535 C-101.45622082 1095.88598867 -101.45639387 1091.0429986 -101.45555399 1086.19998851 C-101.4557237 1080.9341474 -101.46163217 1075.6683122 -101.46679485 1070.40247405 C-101.47611751 1059.95443903 -101.48004233 1049.50640825 -101.48231381 1039.05836959 C-101.48527673 1026.54510762 -101.49397465 1014.03185127 -101.50272809 1001.51859225 C-101.52356934 971.27368758 -101.53404514 941.02878286 -101.5428577 910.78387283 C-101.5457927 900.76647188 -101.54916273 890.74907115 -101.55282491 880.73167044 C-101.55308321 880.02473235 -101.5533415 879.31779427 -101.55360761 878.58943381 C-101.55465387 875.72924719 -101.5557023 872.86906056 -101.55675344 870.00887394 C-101.57471749 821.08374298 -101.59009546 772.15861167 -101.59751247 723.23347788 C-101.59809643 719.39142907 -101.5986937 715.54938025 -101.59929008 711.70733144 C-101.5994082 710.94520283 -101.59952632 710.18307422 -101.59964802 709.39785081 C-101.60084539 701.67661502 -101.60205415 693.95537922 -101.60328056 686.23414343 C-101.60352579 684.68603157 -101.60376965 683.1379197 -101.60401212 681.58980784 C-101.6118003 631.87988345 -101.63418076 582.16998268 -101.66668855 532.46006861 C-101.69004166 496.73719392 -101.71158943 461.01432393 -101.71869487 425.29144174 C-101.71884189 424.55642079 -101.71898891 423.82139984 -101.71914038 423.06410552 C-101.72232557 406.92661806 -101.72437621 390.78913063 -101.72536793 374.65164289 C-101.72578265 368.1581567 -101.72633755 361.66467053 -101.72692984 355.17118436 C-101.72699051 354.46053289 -101.72705118 353.74988142 -101.72711369 353.01769506 C-101.72912773 330.1484184 -101.74335178 307.27916968 -101.76387485 284.40990277 C-101.78505467 260.72475444 -101.7917998 237.03965349 -101.78200106 213.35449477 C-101.77678597 199.7057432 -101.78266412 186.05710245 -101.80453573 172.40836682 C-101.81804954 163.28528692 -101.81696161 154.16228325 -101.80413377 145.03920257 C-101.79724117 139.845015 -101.79655387 134.65103924 -101.81369386 129.45687064 C-101.82919557 124.72040706 -101.82587398 119.9843238 -101.80828358 115.24787092 C-101.80516448 113.55578066 -101.80857296 111.86366058 -101.81977532 110.17160453 C-102.0005074 80.94078691 -92.96249343 52.97479427 -72.13660735 31.86317617 C-52.6174347 12.99104792 -27.63920632 0.01600249 0 0 Z M-34.68348235 24.87880117 C-35.33937346 25.22531728 -35.99526458 25.57183339 -36.67103118 25.92885 C-57.77994661 37.3560578 -73.72049388 55.4912305 -81.37940899 78.32103467 C-84.32783384 88.38767129 -84.87447767 97.66735715 -84.81184691 108.11221486 C-84.81602789 109.89198616 -84.82195912 111.67175404 -84.82946438 113.45151442 C-84.84497141 118.3233819 -84.8357576 123.19493024 -84.82235257 128.06679223 C-84.81217547 133.37417775 -84.82525739 138.68151559 -84.8353259 143.98889428 C-84.84975589 153.28460454 -84.84934471 162.58022182 -84.83913726 171.87593633 C-84.82399965 185.69904116 -84.83174628 199.52206765 -84.84397049 213.34517196 C-84.86381046 236.60321069 -84.86455326 259.86120693 -84.85366362 283.11924917 C-84.85333244 283.82692881 -84.85300126 284.53460845 -84.85266004 285.26373294 C-84.85232832 285.97255071 -84.85199661 286.68136849 -84.85165484 287.41166559 C-84.84155705 309.01726182 -84.83895888 330.62284297 -84.84374541 352.22844106 C-84.84405533 353.67596358 -84.84436395 355.12348611 -84.84467129 356.57100863 C-84.84591319 362.38818772 -84.84718786 368.2053668 -84.84851035 374.02254588 C-84.85217815 390.28337209 -84.85446072 406.54419835 -84.8556549 422.80502492 C-84.85570948 423.54546798 -84.85576406 424.28591104 -84.8558203 425.04879177 C-84.8574571 448.63801982 -84.85295146 472.22724261 -84.84425658 495.81646901 C-84.84397558 496.58142088 -84.84369459 497.34637274 -84.84340508 498.13450497 C-84.83882543 510.55636424 -84.83394751 522.97822341 -84.82904438 535.40008256 C-84.80961945 584.66481321 -84.81052105 633.92950039 -84.82996672 683.19423085 C-84.83485159 695.60986497 -84.83969584 708.02549909 -84.84425658 720.44113332 C-84.84453837 721.2056376 -84.84482017 721.97014189 -84.8451105 722.75781297 C-84.85373686 746.32273514 -84.85739203 769.8876537 -84.8556549 793.45257741 C-84.85557339 794.56242358 -84.85557339 794.56242358 -84.85549024 795.69469089 C-84.85424025 811.93753481 -84.85170556 828.18037836 -84.84801288 844.4232219 C-84.84669635 850.23516067 -84.84544402 856.04709945 -84.84421004 861.85903823 C-84.84390049 863.30486081 -84.84358556 864.75068339 -84.84326525 866.19650597 C-84.83849333 887.79563349 -84.84255191 909.394744 -84.85266004 930.9938694 C-84.85299122 931.70154904 -84.85332241 932.40922869 -84.85366362 933.13835317 C-84.85399435 933.84472392 -84.85432508 934.55109468 -84.85466583 935.27887061 C-84.86570465 959.11622693 -84.86162077 982.95353045 -84.84054065 1006.79088217 C-84.82879003 1020.53180221 -84.8280367 1034.27261855 -84.84312535 1048.01353591 C-84.85209218 1057.19146933 -84.84651749 1066.36931959 -84.82910627 1075.54724069 C-84.81958947 1080.77674348 -84.81634112 1086.00604019 -84.8307302 1091.23553652 C-84.8437009 1095.99813078 -84.83809131 1100.76033717 -84.81800756 1105.52290346 C-84.81399721 1107.23003953 -84.81659493 1108.93720811 -84.82683131 1110.64431821 C-84.9034011 1124.39561803 -82.79654211 1136.72625936 -77.05848235 1149.37880117 C-76.61351409 1150.37291005 -76.61351409 1150.37291005 -76.15955657 1151.38710195 C-73.29001327 1157.55833967 -69.65195908 1162.88892211 -65.30848235 1168.12880117 C-64.63172454 1168.96798085 -63.95496672 1169.80716054 -63.2577011 1170.67176992 C-51.65781359 1184.34988224 -36.68426529 1193.70639336 -19.30848235 1198.12880117 C-18.25904908 1198.46609457 -17.20961581 1198.80338798 -16.12838153 1199.1509024 C-12.18512416 1200.16038101 -8.8745563 1200.37951745 -4.81118923 1200.38065016 C-4.08443093 1200.38357903 -3.35767262 1200.38650789 -2.60889133 1200.38952551 C-0.1737982 1200.3969016 2.26104351 1200.39005427 4.69613534 1200.38327676 C6.46718446 1200.38566671 8.23823258 1200.38893196 10.00927866 1200.39299336 C14.89413818 1200.40163613 19.77892114 1200.39777747 24.6637819 1200.39193764 C29.97139238 1200.38777685 35.27898865 1200.39516389 40.58659571 1200.40109015 C49.89504528 1200.40986754 59.20347284 1200.4111588 68.51192552 1200.40758687 C82.35401087 1200.40228923 96.19607485 1200.40836574 110.03815787 1200.41666981 C135.47734363 1200.43151089 160.91651824 1200.43375754 186.35570727 1200.43134943 C189.96103971 1200.43101098 193.56637215 1200.43068888 197.17170459 1200.43038374 C197.88780608 1200.4303227 198.60390757 1200.43026165 199.34170911 1200.43019876 C215.20827963 1200.42892712 231.0748488 1200.43152781 246.94141893 1200.43490981 C250.56385293 1200.43568055 254.18628693 1200.43642528 257.80872094 1200.43717482 C259.26254665 1200.43747652 260.71637237 1200.4377784 262.17019809 1200.43808047 C262.89083239 1200.43823015 263.61146668 1200.43837983 264.35393839 1200.43853404 C265.81157638 1200.43883757 267.26921436 1200.43914225 268.72685235 1200.43944809 C310.09315462 1200.44812256 351.45945569 1200.45276404 392.82575876 1200.44850045 C393.59189702 1200.4484224 394.35803529 1200.44834434 395.14738987 1200.44826392 C403.69073423 1200.44739111 412.23407857 1200.44646185 420.77742292 1200.44551329 C421.54876731 1200.44542778 422.32011169 1200.44534227 423.11483015 1200.44525417 C427.79390134 1200.44473538 427.79390134 1200.44473538 432.47297253 1200.44421194 C481.8047801 1200.43867683 531.13656894 1200.44621578 580.46837312 1200.46498281 C592.89678711 1200.46970502 605.32520111 1200.47438553 617.7536152 1200.47881967 C618.90151264 1200.47922965 618.90151264 1200.47922965 620.07259992 1200.47964792 C643.65918222 1200.48801944 667.24576296 1200.4926989 690.83234674 1200.49352723 C691.57288821 1200.4935536 692.31342968 1200.49357997 693.0764118 1200.49360713 C709.33323697 1200.49414792 725.59006202 1200.49377544 741.84688715 1200.49256742 C747.66393442 1200.49214179 753.4809817 1200.49177667 759.29802898 1200.49143798 C760.74516666 1200.49135267 762.19230434 1200.49126374 763.63944202 1200.49117116 C786.69698067 1200.48972248 809.75450661 1200.49684811 832.81204221 1200.50817512 C856.68286898 1200.51982571 880.55366805 1200.52038748 904.42449583 1200.50833169 C918.18799934 1200.50169197 931.95144307 1200.50335978 945.71494183 1200.51692021 C954.90565324 1200.52514634 964.09631973 1200.52249108 973.28702746 1200.51094494 C978.5255892 1200.50467027 983.76403401 1200.50313475 989.00258912 1200.51480827 C993.77112508 1200.52533674 998.53944492 1200.52198422 1003.30796928 1200.50770375 C1005.01954226 1200.50498202 1006.73113259 1200.50724927 1008.44268922 1200.51521089 C1021.16235432 1200.57032603 1033.0537256 1199.2979866 1044.75401765 1193.94130117 C1045.42465242 1193.63869375 1046.09528718 1193.33608632 1046.78624421 1193.02430898 C1068.59713097 1182.87221924 1083.26526182 1166.09075306 1092.69151765 1144.12880117 C1095.70855758 1135.68292344 1097.8151521 1127.88649421 1097.82031882 1118.89733177 C1097.82209383 1118.17501542 1097.82386884 1117.45269906 1097.82569764 1116.70849433 C1097.83044656 1114.27653983 1097.82806246 1111.84464441 1097.82573873 1109.41268712 C1097.82769143 1107.64859118 1097.83008019 1105.88449567 1097.8328667 1104.12040085 C1097.83928003 1099.24551394 1097.83942726 1094.37064349 1097.83858929 1089.49575317 C1097.83875853 1084.20235109 1097.84466173 1078.90895495 1097.84983015 1073.61555582 C1097.85916749 1063.10433091 1097.86308011 1052.59311021 1097.86534912 1042.08188167 C1097.86830826 1029.49635577 1097.87700401 1016.91083547 1097.8857634 1004.32531251 C1097.90662111 973.90157731 1097.91708329 943.47784182 1097.925893 913.05410123 C1097.92882692 902.97822979 1097.93219681 892.90235856 1097.93586022 882.82648736 C1097.93611851 882.1156722 1097.9363768 881.40485704 1097.93664292 880.67250202 C1097.93768914 877.79677856 1097.93873757 874.9210551 1097.93978874 872.04533165 C1097.95775466 822.85162278 1097.97313313 773.65791358 1097.98054777 724.4642019 C1097.98113174 720.59977669 1097.98172901 716.73535148 1097.98232539 712.87092628 C1097.98244351 712.10434843 1097.98256163 711.33777057 1097.98268333 710.54796309 C1097.98388071 702.78147866 1097.98508947 695.01499423 1097.98631586 687.24850981 C1097.98656109 685.69130926 1097.98680495 684.13410872 1097.98704743 682.57690818 C1097.99483537 632.57669524 1098.0172141 582.57650579 1098.04972385 532.57630311 C1098.07307379 496.65184401 1098.09462338 460.72738958 1098.10173017 424.80292302 C1098.10187719 424.06389332 1098.10202421 423.32486362 1098.10217569 422.56343908 C1098.10536075 406.33859411 1098.10741147 390.11374919 1098.10840323 373.88890394 C1098.10881796 367.36034154 1098.10937286 360.83177915 1098.10996515 354.30321676 C1098.11002581 353.58871328 1098.11008648 352.87420981 1098.11014899 352.13805472 C1098.11216392 329.13458998 1098.12639463 306.13115298 1098.14691015 283.12769792 C1098.16808044 259.30551824 1098.17483982 235.48338371 1098.16503636 211.66119447 C1098.15981745 197.92962681 1098.16571741 184.19816925 1098.18757103 170.46661742 C1098.20106931 161.29202191 1098.20001064 152.11750228 1098.18716907 142.94290604 C1098.18026607 137.71676435 1098.17962483 132.4908333 1098.19672916 127.26471034 C1098.2121872 122.50271469 1098.20895473 117.74109804 1098.19131888 112.9791133 C1098.18818985 111.27440678 1098.19164586 109.56967088 1098.20281063 107.86499806 C1098.28929841 93.72983444 1096.84433952 79.29870831 1089.87901765 66.69130117 C1089.52919832 66.03210683 1089.17937898 65.3729125 1088.81895906 64.69374257 C1087.80567632 62.82020347 1086.75995977 60.97132407 1085.69151765 59.12880117 C1085.16944734 58.22774648 1084.64737703 57.32669179 1084.1094864 56.39833242 C1076.07928244 43.93626905 1064.6947697 34.03275553 1051.69151765 27.12880117 C1050.1601114 26.2838207 1050.1601114 26.2838207 1048.59776765 25.42176992 C1037.22440311 19.3979905 1025.93358582 17.00740028 1013.11310089 17 C1012.02804153 16.99733749 1012.02804153 16.99733749 1010.92106177 16.99462118 C1008.50359857 16.98990026 1006.08619552 16.99224954 1003.6687296 16.99458009 C1001.90795887 16.99262596 1000.14718858 16.99023665 998.38641897 16.98745212 C993.53475089 16.98105671 988.68309939 16.98089013 983.8314279 16.98172953 C978.55798042 16.98155994 973.28453886 16.9756528 968.01109433 16.97048867 C957.54592003 16.96116236 947.08074995 16.95724057 936.61557201 16.9549697 C924.08274626 16.95200774 911.54992612 16.94331041 899.01710331 16.93455542 C868.724835 16.91371055 838.4325664 16.90323796 808.14029269 16.89442581 C798.10800495 16.89149116 788.07571741 16.88812118 778.04342991 16.8844586 C777.33552125 16.88420031 776.62761259 16.88394202 775.89825215 16.8836759 C773.03419168 16.88262965 770.1701312 16.88158123 767.30607073 16.88053008 C718.31569729 16.86256609 669.3253235 16.84718763 620.33494724 16.83977105 C616.48752819 16.83918708 612.64010914 16.83858981 608.79269009 16.83799343 C608.02949209 16.83787531 607.26629408 16.83775719 606.47996886 16.83763549 C598.74782891 16.83643812 591.01568896 16.83522936 583.28354902 16.83400296 C581.73324439 16.83375773 580.18293976 16.83351387 578.63263513 16.83327139 C528.8467102 16.82548233 479.06080885 16.8030999 429.27489422 16.77059496 C393.4988803 16.74724487 357.72287106 16.72569554 321.94684964 16.71858865 C321.21088503 16.71844163 320.47492042 16.71829461 319.71665386 16.71814313 C303.55923117 16.71495809 287.40180852 16.71290735 271.24438556 16.71191558 C264.74305358 16.71150086 258.24172161 16.71094596 251.74038965 16.71035367 C251.02887294 16.710293 250.31735624 16.71023234 249.58427842 16.71016983 C226.67855766 16.70815503 203.77286476 16.69392547 180.86715371 16.67340867 C157.14810701 16.65223872 133.4291076 16.64547889 109.71005053 16.65528246 C96.03845551 16.66050124 82.36697108 16.65460196 68.69539196 16.63274779 C59.5608789 16.61924919 50.42644204 16.62030845 41.29192823 16.63314975 C36.08873242 16.64005247 30.88574818 16.64069491 25.68257118 16.62358966 C20.94143299 16.60813061 16.20067545 16.61136514 11.4595482 16.62899994 C9.7623992 16.63212872 8.06522068 16.62867387 6.36810553 16.61750819 C-7.70246389 16.53102585 -22.11940761 17.97582911 -34.68348235 24.87880117 Z " fill="#D5292D" transform="translate(120.30848234891891,17.87119883298874)"/>
<path d="M0 0 C2.15957018 -0.00174767 4.31913953 -0.00525615 6.47870439 -0.01035666 C12.36922441 -0.01924201 18.25944995 -0.00338208 24.1499325 0.01675558 C30.51847246 0.03410959 36.88699724 0.02817827 43.2555542 0.02514648 C54.27499416 0.02305413 65.2943375 0.0354106 76.31375313 0.05809784 C87.86317968 0.08181501 99.41256824 0.0971715 110.96201897 0.10150909 C111.68175072 0.10178405 112.40148247 0.10205901 113.14302427 0.1023423 C116.7985953 0.10369575 120.45416636 0.10490124 124.10973745 0.10604981 C149.96148465 0.11443796 175.81318238 0.14134961 201.66490173 0.17926025 C226.7700423 0.21603341 251.8751693 0.24435048 276.98033142 0.2612915 C277.75500455 0.26181761 278.52967768 0.26234371 279.32782575 0.26288576 C287.10784008 0.26816011 294.88785451 0.27326333 302.66786903 0.2782412 C318.51481664 0.2883844 334.36176338 0.29966941 350.20870972 0.31164551 C351.30149018 0.31246925 351.30149018 0.31246925 352.41634702 0.31330963 C401.0157398 0.35007475 449.61510347 0.41353466 498.21446228 0.48101807 C498.21446228 5.43101807 498.21446228 10.38101807 498.21446228 15.48101807 C497.14291216 15.48161515 496.07136204 15.48221224 494.96734071 15.48282743 C447.71016515 15.50942179 400.45299634 15.54098309 353.19584656 15.59765625 C352.12153905 15.59894251 352.12153905 15.59894251 351.02552836 15.60025476 C335.45795475 15.6189233 319.89038237 15.63847613 304.32281102 15.65893902 C296.68773665 15.66896961 289.05266204 15.67880494 281.41758728 15.6885376 C280.65783269 15.6895094 279.8980781 15.69048121 279.11530064 15.69148247 C254.51917529 15.72285208 229.92306089 15.74134422 205.32691901 15.75311053 C180.0370376 15.76527708 154.74720187 15.79053074 129.45735088 15.83209421 C125.87984433 15.83796772 122.30233756 15.84369266 118.72483063 15.84932709 C118.02077234 15.85044055 117.31671406 15.851554 116.59132067 15.8527012 C105.28849181 15.87019528 93.98569827 15.87402037 82.68285767 15.87264727 C71.30115863 15.87155945 59.91956855 15.88539716 48.53789631 15.91318235 C42.37855663 15.9277893 36.21938586 15.93606465 30.06003189 15.92682076 C24.40889796 15.91848353 18.75810221 15.92882591 13.1070182 15.95335469 C11.07438179 15.95899986 9.0417129 15.95808331 7.00908664 15.94953051 C-21.6582457 15.83934478 -46.52087008 22.22611529 -67.53553772 42.66851807 C-84.33507943 59.66069786 -92.43558794 81.31304518 -92.30388668 104.96550103 C-92.29894183 105.79014817 -92.29399698 106.61479531 -92.28890228 107.46443176 C-92.29308326 109.24420306 -92.29901449 111.02397094 -92.30651975 112.80373132 C-92.32202678 117.6755988 -92.31281298 122.54714714 -92.29940794 127.41900913 C-92.28923084 132.72639464 -92.30231276 138.03373248 -92.31238127 143.34111118 C-92.32681126 152.63682143 -92.32640008 161.93243872 -92.31619263 171.22815323 C-92.30105502 185.05125806 -92.30880165 198.87428455 -92.32102586 212.69738886 C-92.34086583 235.95542759 -92.34160863 259.21342383 -92.33071899 282.47146606 C-92.33022222 283.53298553 -92.33022222 283.53298553 -92.32971541 284.61594984 C-92.32921784 285.6791765 -92.32921784 285.6791765 -92.32871021 286.76388249 C-92.31861242 308.36947872 -92.31601425 329.97505986 -92.32080078 351.58065796 C-92.3211107 353.02818048 -92.32141932 354.47570301 -92.32172666 355.92322553 C-92.32296856 361.74040462 -92.32424323 367.5575837 -92.32556572 373.37476278 C-92.32923352 389.63558899 -92.33151609 405.89641525 -92.33271027 422.15724182 C-92.33279214 423.26790641 -92.33279214 423.26790641 -92.33287567 424.40100867 C-92.33451247 447.99023672 -92.33000683 471.57945951 -92.32131195 495.16868591 C-92.32103095 495.93363778 -92.32074996 496.69858964 -92.32046045 497.48672187 C-92.31588081 509.90858114 -92.31100288 522.33044031 -92.30609975 534.75229946 C-92.28667482 584.01703011 -92.28757642 633.28171729 -92.30702209 682.54644775 C-92.31190697 694.96208186 -92.31675121 707.37771599 -92.32131195 719.79335022 C-92.32159374 720.5578545 -92.32187554 721.32235879 -92.32216587 722.11002987 C-92.33079224 745.67495204 -92.3344474 769.2398706 -92.33271027 792.80479431 C-92.33265593 793.54469176 -92.33260159 794.2845892 -92.33254561 795.04690779 C-92.33129562 811.28975171 -92.32876093 827.53259526 -92.32506825 843.7754388 C-92.32375172 849.58737757 -92.32249939 855.39931635 -92.32126541 861.21125513 C-92.32095586 862.65707771 -92.32064093 864.10290029 -92.32032063 865.54872287 C-92.3155487 887.14785038 -92.31960728 908.7469609 -92.32971541 930.3460863 C-92.33004659 931.05376594 -92.33037778 931.76144559 -92.33071899 932.49057007 C-92.33121509 933.5501262 -92.33121509 933.5501262 -92.3317212 934.63108751 C-92.34276003 958.46844383 -92.33867614 982.30574735 -92.31759602 1006.14309907 C-92.3058454 1019.88401911 -92.30509207 1033.62483545 -92.32018072 1047.36575281 C-92.32914755 1056.54368623 -92.32357286 1065.72153649 -92.30616164 1074.89945759 C-92.29664484 1080.12896038 -92.29339649 1085.35825709 -92.30778557 1090.58775342 C-92.32075627 1095.35034768 -92.31514668 1100.11255407 -92.29506293 1104.87512036 C-92.29105259 1106.58225643 -92.2936503 1108.28942501 -92.30388668 1109.99653511 C-92.38045647 1123.74783493 -90.27359748 1136.07847626 -84.53553772 1148.73101807 C-84.09056946 1149.72512695 -84.09056946 1149.72512695 -83.63661194 1150.73931885 C-80.76645463 1156.91187705 -77.12475936 1162.23643252 -72.78553772 1167.48101807 C-72.12038147 1168.32019775 -71.45522522 1169.15937744 -70.76991272 1170.02398682 C-59.78913257 1183.13991866 -44.29131326 1192.30238191 -27.78553772 1196.48101807 C-26.85478892 1196.73525207 -25.92404012 1196.98948607 -24.96508682 1197.25142413 C-14.17650962 1199.92059753 -3.71883367 1199.90865639 7.33552551 1199.87974548 C9.4595097 1199.88519198 11.58349087 1199.89194646 13.7074672 1199.89988738 C19.51347776 1199.91784442 25.31935997 1199.917364 31.12539172 1199.91375792 C37.39789042 1199.91313244 43.67034666 1199.92976942 49.94282532 1199.9442749 C60.80022163 1199.96703699 71.65757798 1199.97904619 82.51499557 1199.98340416 C93.89665675 1199.988018 105.27828458 1199.99882753 116.65993118 1200.0178318 C117.72320198 1200.01960199 117.72320198 1200.01960199 118.80795299 1200.02140795 C122.40813072 1200.02743373 126.00830825 1200.03356944 129.60848571 1200.03974745 C155.07918654 1200.08325846 180.54988656 1200.11299863 206.02061462 1200.13458252 C230.75825701 1200.15557685 255.49587955 1200.18284479 280.23350525 1200.21856689 C280.99662051 1200.21966637 281.75973577 1200.22076585 282.54597574 1200.22189864 C290.20980199 1200.2329474 297.87362805 1200.24412327 305.53745399 1200.25539227 C321.1482237 1200.27834366 336.75899458 1200.30044683 352.36976624 1200.32203674 C353.0874545 1200.32303036 353.80514277 1200.32402398 354.54457917 1200.32504771 C402.43452421 1200.39125279 450.3244917 1200.43762593 498.21446228 1200.48101807 C498.21446228 1205.43101807 498.21446228 1210.38101807 498.21446228 1215.48101807 C448.56498441 1215.54951458 398.91550326 1215.61319404 349.26599121 1215.65039062 C348.53076933 1215.65094285 347.79554745 1215.65149508 347.03804612 1215.65206404 C331.05840295 1215.66403661 315.07875928 1215.67511721 299.09911486 1215.68527938 C291.26231975 1215.69026858 283.42552477 1215.69545482 275.58872986 1215.70074463 C274.80888852 1215.70126767 274.02904717 1215.7017907 273.22557427 1215.70232959 C247.96395545 1215.71936475 222.70237249 1215.74940234 197.44077537 1215.78620695 C171.47392151 1215.82397022 145.50708749 1215.84856747 119.54020663 1215.85667803 C115.8697412 1215.85783059 112.19927584 1215.85913313 108.5288105 1215.86052704 C107.44524597 1215.86093158 107.44524597 1215.86093158 106.33979124 1215.86134429 C94.72724934 1215.86606498 83.1147689 1215.8846005 71.50225204 1215.9083462 C59.81821166 1215.93194174 48.13424704 1215.94055531 36.45018213 1215.93502358 C30.12334573 1215.93246305 23.79668924 1215.936373 17.46988487 1215.95783997 C11.6716296 1215.97736947 5.87367449 1215.97824638 0.07540513 1215.96461365 C-2.01637483 1215.96292984 -4.10817387 1215.96794938 -6.19991655 1215.9805508 C-21.9184595 1216.06969838 -35.2502848 1214.29949421 -49.53553772 1207.23101807 C-50.33918762 1206.84043213 -51.14283752 1206.44984619 -51.97084045 1206.04742432 C-58.43268551 1202.82464998 -64.24519028 1199.13239566 -69.78553772 1194.48101807 C-70.63245178 1193.77203369 -71.47936584 1193.06304932 -72.35194397 1192.33258057 C-88.59068025 1178.20116121 -99.59163243 1161.13803581 -106.16053772 1140.66851807 C-106.41134094 1139.89250244 -106.66214417 1139.11648682 -106.92054749 1138.31695557 C-110.22574941 1127.50453604 -109.93058078 1116.54907544 -109.9197588 1105.3591795 C-109.92171341 1103.59985656 -109.9241029 1101.84053407 -109.92688677 1100.08121225 C-109.93327619 1095.23820557 -109.93344924 1090.3952155 -109.93260936 1085.55220541 C-109.93277907 1080.2863643 -109.93868754 1075.0205291 -109.94385022 1069.75469095 C-109.95317289 1059.30665593 -109.9570977 1048.85862515 -109.95936919 1038.41058649 C-109.96233211 1025.89732452 -109.97103002 1013.38406817 -109.97978347 1000.87080915 C-110.00062471 970.62590448 -110.01110051 940.38099976 -110.01991307 910.13608973 C-110.02284807 900.11868878 -110.0262181 890.10128805 -110.02988029 880.08388734 C-110.03013858 879.37694925 -110.03039687 878.67001117 -110.03066299 877.94165071 C-110.03170925 875.08146409 -110.03275767 872.22127746 -110.03380881 869.36109084 C-110.05177286 820.43595988 -110.06715083 771.51082857 -110.07456784 722.58569478 C-110.0751518 718.74364597 -110.07574907 714.90159715 -110.07634545 711.05954834 C-110.07646357 710.29741973 -110.07658169 709.53529112 -110.07670339 708.75006771 C-110.07790076 701.02883191 -110.07910952 693.30759612 -110.08033593 685.58636033 C-110.08058116 684.03824847 -110.08082502 682.4901366 -110.08106749 680.94202474 C-110.08885567 631.23210035 -110.11123613 581.52219958 -110.14374392 531.81228551 C-110.16709703 496.08941082 -110.1886448 460.36654083 -110.19575024 424.64365864 C-110.19589726 423.90863769 -110.19604428 423.17361673 -110.19619575 422.41632242 C-110.19938094 406.27883495 -110.20143158 390.14134753 -110.2024233 374.00385979 C-110.20283802 367.5103736 -110.20339292 361.01688743 -110.20398521 354.52340126 C-110.20404588 353.81274979 -110.20410655 353.10209832 -110.20416906 352.36991196 C-110.2061831 329.5006353 -110.22040715 306.63138658 -110.24093022 283.76211967 C-110.26211004 260.07697134 -110.26885518 236.39187039 -110.25905643 212.70671167 C-110.25384134 199.0579601 -110.25971949 185.40931935 -110.2815911 171.76058372 C-110.29510491 162.63750382 -110.29401698 153.51450015 -110.28118914 144.39141947 C-110.27429654 139.1972319 -110.27360925 134.00325614 -110.29074923 128.80908754 C-110.30625094 124.07262396 -110.30292936 119.3365407 -110.28533895 114.60008782 C-110.28221986 112.90799756 -110.28562833 111.21587748 -110.2968307 109.52382142 C-110.47756277 80.29300381 -101.4395488 52.32701117 -80.61366272 31.21539307 C-57.39277079 8.76425446 -31.9056263 -0.19393272 0 0 Z " fill="#282827" transform="translate(128.78553771972656,18.51898193359375)"/>
<path d="M0 0 C96.63783784 0 96.63783784 0 112.4140625 14.16796875 C122.73357129 25.08655014 124.41083547 35.69154354 124.203125 50.06640625 C123.87705783 60.69341239 120.16807907 68.10275427 113 76 C105.73988439 82 105.73988439 82 102 82 C102 82.66 102 83.32 102 84 C102.73605469 84.12246094 103.47210938 84.24492188 104.23046875 84.37109375 C112.28541264 86.20021359 118.99952306 91.58132057 124 98 C131.79371636 111.19848922 133.46897104 126.15166623 129.9375 141.1875 C126.14271705 152.42932179 117.09963077 161.82150628 106.95703125 167.6484375 C75.70941003 181.93070559 24.3156943 174 0 174 C0 116.58 0 59.16 0 0 Z " fill="#272726" transform="translate(88,508)"/>
<path d="M0 0 C3.54461479 2.4536039 6.81524366 5.09708051 10 8 C10.33 4.7 10.66 1.4 11 -2 C21.89 -2 32.78 -2 44 -2 C44.13609888 13.83946732 44.24634568 29.67846181 44.31087303 45.51834583 C44.34164726 52.87515699 44.38350711 60.23157573 44.45263672 67.58813477 C44.51294893 74.00950359 44.55126812 80.4305879 44.56453097 86.85223216 C44.57226867 90.24412527 44.59009535 93.63520536 44.63438034 97.02683449 C44.87660276 117.91388316 43.66757074 137.62286773 29.234375 154.00390625 C23.78380936 159.30561191 17.03008149 162.2997038 10 165 C9.29576904 165.27215332 8.59153809 165.54430664 7.8659668 165.82470703 C0.45981618 168.3905097 -6.6583787 168.44721464 -14.4375 168.375 C-15.68337891 168.38660156 -16.92925781 168.39820313 -18.21289062 168.41015625 C-35.30697143 168.35631663 -47.94273599 163.07801661 -60 151 C-63.91813769 147.01033445 -65.99016744 144.57141159 -67 139 C-63.6225837 136.71547825 -60.24118802 134.4369895 -56.85595703 132.1640625 C-55.70445012 131.38967816 -54.55405231 130.61364198 -53.40478516 129.8359375 C-51.7545417 128.71963822 -50.09998645 127.60972145 -48.4453125 126.5 C-46.95281982 125.49453125 -46.95281982 125.49453125 -45.43017578 124.46875 C-43 123 -43 123 -41 123 C-39.66796875 124.609375 -39.66796875 124.609375 -38.1875 126.75 C-33.18903314 133.54647652 -28.28682979 136.48732472 -20 138 C-12.45591639 138.62029132 -5.62260422 138.94538124 1 135 C2.3303125 134.2265625 2.3303125 134.2265625 3.6875 133.4375 C10.20422889 126.56851549 11.07011974 116.71985256 11.5625 107.6875 C11.62727539 106.57665039 11.62727539 106.57665039 11.69335938 105.44335938 C11.79870432 103.62908536 11.89978316 101.8145645 12 100 C11.35933594 100.53109375 10.71867187 101.0621875 10.05859375 101.609375 C-2.69849039 112.02797725 -13.04661043 114.24085792 -29.39453125 113.33007812 C-38.41597849 112.18718114 -47.28761658 106.40142428 -53.0625 99.5546875 C-58.92257983 91.44981902 -63.86216919 83.77185254 -65.640625 73.8125 C-65.93475632 71.90988987 -65.93475632 71.90988987 -67 70 C-67.26036622 65.9185351 -67.27129304 61.83494915 -67.29516602 57.74584961 C-67.31211408 55.7333269 -67.35594063 53.72108753 -67.40039062 51.70898438 C-67.50544775 35.37664191 -62.2209177 20.07694647 -51 8 C-48.45882349 5.78312602 -45.81392647 3.85395156 -43 2 C-42.195625 1.443125 -41.39125 0.88625 -40.5625 0.3125 C-28.23449178 -6.00184567 -12.45017664 -6.46485634 0 0 Z " fill="#282827" transform="translate(347,567)"/>
<path d="M0 0 C4.4415537 2.76856848 8.08975174 5.59913677 11 10 C11 10.66 11 11.32 11 12 C11.66 12 12.32 12 13 12 C13.37125 11.13375 13.37125 11.13375 13.75 10.25 C17.24816777 3.95329802 24.14483059 -1.01712371 30.87109375 -3.375 C43.00826472 -5.79940369 55.48108169 -5.0515691 66.2265625 1.3203125 C73.88147592 6.56693855 79.20031521 14.18614442 82 23 C83.5914727 33.15205102 83.1292197 43.64420244 83.09765625 53.890625 C83.09578717 55.68951376 83.09436559 57.48840303 83.09336853 59.28729248 C83.08958191 63.98237557 83.07978533 68.67742688 83.06866455 73.37249756 C83.05836677 78.17931692 83.05385312 82.9861415 83.04882812 87.79296875 C83.03815894 97.19532859 83.02059416 106.59765666 83 116 C72.44 116 61.88 116 51 116 C50.98018066 113.6079834 50.96036133 111.2159668 50.93994141 108.75146484 C50.87297789 100.84046883 50.79533915 92.92960339 50.71247292 85.01875877 C50.66256745 80.22330991 50.61623689 75.42788246 50.578125 70.63232422 C50.54119959 66.00271167 50.49481991 61.37328081 50.44193649 56.74382401 C50.42343109 54.97926654 50.40830895 53.21467019 50.39665604 51.45005417 C50.3797275 48.97481507 50.35067689 46.49998858 50.31884766 44.02490234 C50.31668747 43.29841492 50.31452728 42.57192749 50.31230164 41.82342529 C50.2419551 37.5297166 49.68657101 33.96038114 48 30 C46.16666667 28.66666667 46.16666667 28.66666667 44 28 C43.39542969 27.66355469 42.79085937 27.32710937 42.16796875 26.98046875 C38.21909483 25.19458162 34.23194638 25.37497407 30 26 C24.93234534 28.10995287 22.7466861 30.95477713 20.64459801 36.00828743 C19.57575549 39.31085283 19.56072133 42.61308314 19.56762695 46.04663086 C19.5574353 46.81818512 19.54724365 47.58973938 19.53674316 48.38467407 C19.50677168 50.91147268 19.49737179 53.43789123 19.48828125 55.96484375 C19.47142276 57.72605127 19.45327095 59.48724685 19.43388367 61.24842834 C19.38650444 65.86626451 19.35661712 70.48405222 19.33044434 75.10205078 C19.3005777 79.82138637 19.25406839 84.54055522 19.20898438 89.25976562 C19.1230886 98.50644209 19.05722208 107.75310159 19 117 C8.11 117 -2.78 117 -14 117 C-14.0093457 114.54739746 -14.01869141 112.09479492 -14.02832031 109.56787109 C-14.06211346 101.45724702 -14.11767542 93.34687676 -14.18390274 85.23645592 C-14.22338304 80.31989599 -14.25556883 75.40351531 -14.27099609 70.48681641 C-14.286159 65.74036952 -14.32059811 60.99441542 -14.36830902 56.24818802 C-14.38312658 54.4389843 -14.39104123 52.62971022 -14.39188385 50.82044601 C-14.39425417 48.28259727 -14.42133767 45.74610966 -14.45410156 43.20849609 C-14.4490712 42.46330719 -14.44404083 41.71811829 -14.43885803 40.9503479 C-14.54066184 35.8413666 -15.81314629 32.95439563 -19 29 C-22.82213172 25.62753083 -26.58950052 25.48087502 -31.5 25.65625 C-35.62668828 26.22366964 -37.68396859 27.4134955 -41 30 C-44.49797389 35.0881843 -45.58906138 38.9356665 -45.54589844 45.13842773 C-45.55623611 45.91973557 -45.56657379 46.7010434 -45.57722473 47.50602722 C-45.60651107 50.06542998 -45.60814885 52.62403706 -45.609375 55.18359375 C-45.62436628 56.96722407 -45.64109542 58.75084056 -45.65948486 60.53443909 C-45.70306435 65.21150369 -45.72313656 69.88838106 -45.73822021 74.56561279 C-45.75782528 79.34528634 -45.79979144 84.12475868 -45.83984375 88.90429688 C-45.91504422 98.26950311 -45.96332859 107.63456356 -46 117 C-56.89 117 -67.78 117 -79 117 C-79 77.73 -79 38.46 -79 -2 C-68.44 -2 -57.88 -2 -47 -2 C-46.505 3.445 -46.505 3.445 -46 9 C-45.34 8.113125 -44.68 7.22625 -44 6.3125 C-33.40789814 -6.38001866 -13.98148038 -7.39928994 0 0 Z " fill="#D51B1B" transform="translate(746,565)"/>
<path d="M0 0 C10.89 0 21.78 0 33 0 C33 20.13 33 40.26 33 61 C38.445 57.04 38.445 57.04 44 53 C52.50551421 48.44927902 62.38672867 48.75461183 71.64453125 50.80859375 C83.9946544 55.04250311 92.8403815 64.34687314 99.125 75.5625 C99.78696467 77.02549754 100.40784606 78.50738058 101 80 C101.37382813 80.93070313 101.74765625 81.86140625 102.1328125 82.8203125 C108.63130441 102.40667622 107.56850154 127.73715486 98.35546875 146.31640625 C96.71448892 149.03902516 94.97254369 151.50992871 93 154 C92.43152344 154.74636719 91.86304688 155.49273438 91.27734375 156.26171875 C84.98426275 164.01697347 76.63893875 169.01888811 66.63720703 170.3034668 C64.24963206 170.43534011 61.89092322 170.46778939 59.5 170.4375 C58.66702393 170.43065186 57.83404785 170.42380371 56.97583008 170.41674805 C47.73656472 170.17463559 41.65577311 167.33883154 35 161 C34.01 159.68 33.02 158.36 32 157 C31.67 160.96 31.34 164.92 31 169 C20.77 169 10.54 169 0 169 C0 113.23 0 57.46 0 0 Z " fill="#292929" transform="translate(1071,513)"/>
<path d="M0 0 C3.59053281 2.78522124 6.83986302 5.74013483 10 9 C10.76699219 9.66386719 11.53398438 10.32773437 12.32421875 11.01171875 C14 13 14 13 13.89794922 14.81274414 C12.63305907 17.89380744 10.68056654 19.6550125 8.30859375 21.984375 C7.84389175 22.44483215 7.37918976 22.90528931 6.90040588 23.37969971 C5.41968181 24.84367811 3.92885481 26.29686041 2.4375 27.75 C1.42965336 28.74279449 0.42248367 29.7362767 -0.58398438 30.73046875 C-3.04819461 33.16166473 -5.52157329 35.58328868 -8 38 C-10.84223197 36.63760782 -12.96027641 35.44766831 -15 33 C-15 32.34 -15 31.68 -15 31 C-15.58523438 30.72027344 -16.17046875 30.44054687 -16.7734375 30.15234375 C-18.85044667 29.07740041 -20.69642344 27.87967676 -22.625 26.5625 C-32.08934521 20.70361963 -42.12208326 19.984119 -53 21 C-59.02397091 22.5843133 -62.48553985 25.99455675 -66 31 C-67.76868133 36.30604399 -67.8577347 41.14157481 -65.5 46.25 C-60.40319629 51.85648409 -54.00754074 54.67974619 -46.875 56.875 C-46.11074707 57.1220166 -45.34649414 57.3690332 -44.55908203 57.62353516 C-40.2210958 59.01847837 -35.86380095 60.34465814 -31.5 61.65625 C-13.5875771 67.09119595 5.20933111 72.89273778 14.71484375 90.39453125 C15.35099609 91.68423828 15.35099609 91.68423828 16 93 C16.41378906 93.80824219 16.82757812 94.61648438 17.25390625 95.44921875 C22.33483487 107.00965913 21.50279856 122.36777039 17 134 C10.54860852 147.7712395 -0.35600764 157.91383631 -14.56567383 163.2097168 C-17.35930153 164.20262608 -20.16681536 165.12658512 -23 166 C-23.57951416 166.18030762 -24.15902832 166.36061523 -24.75610352 166.54638672 C-29.83096124 167.57229093 -35.14893962 167.22631116 -40.31445312 167.24023438 C-42.46525182 167.24984474 -44.61505419 167.28084486 -46.765625 167.3125 C-55.22573217 167.37722153 -62.87862458 166.54163412 -71 164 C-71.95100586 163.72019287 -72.90201172 163.44038574 -73.88183594 163.15209961 C-87.63774336 158.96934709 -98.18318567 148.95422386 -107 138 C-105.61223053 134.83049959 -104.02385383 132.83520662 -101.48046875 130.50390625 C-100.78759766 129.86259766 -100.09472656 129.22128906 -99.38085938 128.56054688 C-98.29514648 127.57151367 -98.29514648 127.57151367 -97.1875 126.5625 C-95.76364515 125.25203812 -94.34045329 123.94085545 -92.91796875 122.62890625 C-91.90935791 121.70102295 -91.90935791 121.70102295 -90.88037109 120.75439453 C-88.52656261 118.55828083 -86.25388872 116.29816944 -84 114 C-80.71614911 115.39920603 -78.96560551 116.97511543 -76.75 119.75 C-69.34822543 128.40366033 -59.9837214 134.48353208 -48.42578125 135.51953125 C-38.56735634 136.02418168 -30.13017245 135.18173457 -22 129 C-17.88867563 124.75638054 -16.63288386 119.90822438 -16.71875 114.05859375 C-17.31955044 109.66106828 -20.10082565 106.89917435 -23.125 103.875 C-27.1799471 101.23046928 -31.45934074 99.63627361 -36 98 C-37.10214844 97.5978125 -37.10214844 97.5978125 -38.2265625 97.1875 C-42.31449899 95.76043853 -46.41448828 94.63259572 -50.625 93.625 C-68.15418391 89.30395594 -85.96517621 83.38088793 -96.75 68 C-104.04789809 55.75890321 -105.95117073 41.37930464 -103.33984375 27.48828125 C-99.57375539 13.71189742 -91.37449987 2.71123069 -79.25 -4.75 C-54.12884964 -18.69558157 -23.57044616 -15.4998958 0 0 Z " fill="#D5191A" transform="translate(512,517)"/>
<path d="M0 0 C0.92723877 0.00974854 1.85447754 0.01949707 2.80981445 0.02954102 C15.32341362 0.35509986 21.75182294 4.66431519 30.5625 13.4375 C30.8925 9.8075 31.2225 6.1775 31.5625 2.4375 C42.1225 2.4375 52.6825 2.4375 63.5625 2.4375 C63.5625 41.3775 63.5625 80.3175 63.5625 120.4375 C53.0025 120.4375 42.4425 120.4375 31.5625 120.4375 C31.2325 116.4775 30.9025 112.5175 30.5625 108.4375 C29.655 109.63375 28.7475 110.83 27.8125 112.0625 C21.92973407 118.83550045 13.20394154 123.02831102 4.27734375 123.67578125 C-7.87730031 123.91460052 -17.98650291 121.47867985 -27.4375 113.4375 C-38.80000097 101.92633079 -46.6396242 84.86501283 -46.71582031 68.67333984 C-46.70647461 67.7498877 -46.69712891 66.82643555 -46.6875 65.875 C-46.68073242 64.90771973 -46.67396484 63.94043945 -46.66699219 62.94384766 C-46.36281007 41.64756273 -41.90133381 23.71405555 -26.4375 8.4375 C-18.81689681 1.58549842 -10.0171176 -0.1174201 0 0 Z " fill="#D51A1A" transform="translate(587.4375,560.5625)"/>
<path d="M0 0 C2.45237602 2.17494242 4.80961576 4.39578909 7.109375 6.73046875 C7.439375 3.10046875 7.769375 -0.52953125 8.109375 -4.26953125 C18.669375 -4.26953125 29.229375 -4.26953125 40.109375 -4.26953125 C40.109375 34.67046875 40.109375 73.61046875 40.109375 113.73046875 C29.549375 113.73046875 18.989375 113.73046875 8.109375 113.73046875 C7.779375 110.10046875 7.449375 106.47046875 7.109375 102.73046875 C6.036875 103.94734375 4.964375 105.16421875 3.859375 106.41796875 C-3.40915195 113.73841375 -13.32275783 116.82791068 -23.453125 117.04296875 C-35.14883873 116.93366301 -43.72768981 112.8232377 -51.94921875 104.6953125 C-60.6949973 95.32129277 -64.75628973 86.09100118 -67.890625 73.73046875 C-68.220625 72.74046875 -68.550625 71.75046875 -68.890625 70.73046875 C-68.98652536 68.31269407 -69.02136763 65.89233123 -69.0234375 63.47265625 C-69.02439423 62.76899933 -69.02535095 62.06534241 -69.02633667 61.34036255 C-69.02701625 59.85597646 -69.02517745 58.37158738 -69.02099609 56.88720703 C-69.01562867 54.60702917 -69.02095671 52.32704686 -69.02734375 50.046875 C-69.02668324 48.60546831 -69.02540265 47.16406175 -69.0234375 45.72265625 C-69.02230957 44.4063623 -69.02118164 43.09006836 -69.02001953 41.73388672 C-68.890625 38.73046875 -68.890625 38.73046875 -67.890625 37.73046875 C-67.69190959 36.21106016 -67.50729804 34.68980557 -67.328125 33.16796875 C-64.71786833 18.62240805 -56.52088721 7.11302389 -44.94921875 -1.7578125 C-32.63103803 -9.61744057 -11.372153 -8.92867688 0 0 Z " fill="#272726" transform="translate(1015.890625,567.26953125)"/>
<path d="M0 0 C11.22 0 22.44 0 34 0 C34 47.19 34 94.38 34 143 C53.8 143 73.6 143 94 143 C94 153.23 94 163.46 94 174 C62.98 174 31.96 174 0 174 C0 116.58 0 59.16 0 0 Z " fill="#272727" transform="translate(848,507)"/>
<path d="M0 0 C11.22 0 22.44 0 34 0 C34 39.27 34 78.54 34 119 C22.78 119 11.56 119 0 119 C0 79.73 0 40.46 0 0 Z " fill="#282828" transform="translate(233,563)"/>
<path d="M0 0 C7.53567551 7.95432415 8.46348467 16.08667789 8.5625 26.5625 C8.59150391 27.56603516 8.62050781 28.56957031 8.65039062 29.60351562 C8.71956236 37.78174291 6.87821592 44.08364971 2 50.6875 C-4.79713217 57.3301519 -10.76426482 57.8287259 -20.1640625 57.90625 C-26.42546628 56.97863462 -30.54048473 53.19271793 -34.359375 48.37890625 C-39.26634982 41.3079004 -40.11463047 34.76148923 -40.1875 26.3125 C-40.19765137 25.47372314 -40.20780273 24.63494629 -40.21826172 23.77075195 C-40.10517941 15.63758533 -38.52190276 8.49757625 -32.8125 2.4375 C-32.14347656 1.70660156 -31.47445313 0.97570312 -30.78515625 0.22265625 C-22.19436015 -7.57666535 -9.26264235 -5.47337957 0 0 Z " fill="#FAFAFA" transform="translate(350.75,595.625)"/>
<path d="M0 0 C7.18239931 4.15598773 11.00025653 8.31753955 13.55151367 16.18530273 C14.72103342 21.00042442 14.66710323 25.77930673 14.6328125 30.7109375 C14.6627832 32.22880859 14.6627832 32.22880859 14.69335938 33.77734375 C14.68728288 43.26883649 12.58114248 52.45702037 5.80859375 59.46484375 C0.45663282 64.0133626 -5.04286614 64.44691714 -11.8671875 64.2421875 C-17.32655419 63.4871687 -20.93830992 61.20351622 -24.33203125 56.8984375 C-30.05013908 48.14724638 -31.00830185 39.78046528 -31.1171875 29.5234375 C-31.14619141 28.62431641 -31.17519531 27.72519531 -31.20507812 26.79882812 C-31.28828677 17.94670817 -28.29980308 10.7856425 -22.8046875 3.8359375 C-15.93307524 -1.35283094 -8.24007894 -3.41997705 0 0 Z " fill="#FDF9FA" transform="translate(604.8046875,590.1640625)"/>
<path d="M0 0 C7.84747667 -0.75135415 13.4265548 0.59426845 20 5 C26.382557 10.82755205 28.89365574 18.33402432 29.3515625 26.80859375 C29.68308238 38.73658926 29.18221668 50.52700583 21 60 C14.3367308 65.06349752 7.14276208 66.08363754 -1 65 C-8.42165846 61.5461203 -12.60153369 54.98080008 -15.35180664 47.46630859 C-16.66435591 42.47219459 -16.57353287 37.38506547 -16.5625 32.25 C-16.56008301 31.09218018 -16.55766602 29.93436035 -16.55517578 28.74145508 C-16.34658496 19.09106221 -14.9159936 12.57868881 -8.40625 5.19140625 C-5.45830159 2.4164242 -4.12639156 2 0 2 C0 1.34 0 0.68 0 0 Z " fill="#F9F9F9" transform="translate(996,589)"/>
<path d="M0 0 C6.39375 -0.061875 12.7875 -0.12375 19.375 -0.1875 C22.37086182 -0.22846802 22.37086182 -0.22846802 25.42724609 -0.27026367 C47.26152524 -0.44825248 47.26152524 -0.44825248 54.5 6.4375 C55.1290625 7.01371094 55.758125 7.58992187 56.40625 8.18359375 C60.77057187 13.15763706 60.48434774 18.09621322 60.37109375 24.51171875 C59.74775845 30.3710706 57.66209141 33.83356996 53.1328125 37.51953125 C45.93775981 42.37689172 39.04613929 43.30011773 30.56640625 43.1953125 C29.78712769 43.19329834 29.00784912 43.19128418 28.20495605 43.18920898 C25.32407656 43.17883047 22.44328169 43.15090858 19.5625 43.125 C13.106875 43.08375 6.65125 43.0425 0 43 C0 28.81 0 14.62 0 0 Z " fill="#F8F8F8" transform="translate(123,608)"/>
<path d="M0 0 C7.29934474 6.84817111 7.84842404 14.7505139 8.25 24.28125 C8.29880022 26.22900101 8.34038086 28.17694534 8.375 30.125 C8.40126465 31.05521973 8.4275293 31.98543945 8.45458984 32.94384766 C8.47385318 41.29376483 6.2199733 48.15287031 0.5625 54.4375 C0.00691406 55.07558594 -0.54867188 55.71367188 -1.12109375 56.37109375 C-5.61211529 60.26455733 -10.49569657 60.49444347 -16.2109375 60.37890625 C-22.14454267 59.57280023 -25.78594408 56.56549316 -29.375 51.9375 C-29.91125 50.968125 -30.4475 49.99875 -31 49 C-31.391875 48.34 -31.78375 47.68 -32.1875 47 C-36.31174128 36.84802146 -35.79106121 19.60028678 -32.3125 9.375 C-30.52981672 5.48207327 -28.37294508 2.69835606 -25 0 C-24.360625 -0.5775 -23.72125 -1.155 -23.0625 -1.75 C-15.82549244 -6.13606519 -6.61491867 -4.73644278 0 0 Z " fill="#FAF9FA" transform="translate(1136,595)"/>
<path d="M0 0 C6.27 -0.0825 12.54 -0.165 19 -0.25 C20.96324219 -0.28641602 22.92648438 -0.32283203 24.94921875 -0.36035156 C26.52863476 -0.3720486 28.10806295 -0.38223801 29.6875 -0.390625 C30.88922852 -0.4213208 30.88922852 -0.4213208 32.11523438 -0.45263672 C38.79310633 -0.45671855 44.04913953 1.34590538 49.05859375 5.8515625 C49.74115234 6.72941406 49.74115234 6.72941406 50.4375 7.625 C50.91058594 8.21539063 51.38367188 8.80578125 51.87109375 9.4140625 C55.16730506 14.04472614 54.38699224 19.53194297 54 25 C52.35494455 30.02655832 49.43100672 33.18654549 45 36 C39.13292352 38.61233933 34.50361315 39.42212753 28.125 39.29296875 C27.40570313 39.28994751 26.68640625 39.28692627 25.9453125 39.28381348 C23.29672589 39.26829441 20.64834622 39.22641251 18 39.1875 C12.06 39.125625 6.12 39.06375 0 39 C0 26.13 0 13.26 0 0 Z " fill="#F7F7F7" transform="translate(123,540)"/>
<path d="M0 0 C3.46849117 1.89785366 5.67892871 3.88630968 8.3125 6.8125 C8.89 7.286875 9.4675 7.76125 10.0625 8.25 C12.0148155 10.69039438 12.03441148 12.69790858 12.3125 15.8125 C12.40015625 16.64394531 12.4878125 17.47539063 12.578125 18.33203125 C12.97045663 24.70742022 12.06530556 28.83337471 8.12890625 33.9296875 C3.31815185 38.91631895 -1.33926791 40.06539953 -8.1875 40.4375 C-13.67034623 40.25325604 -17.03964042 39.273437 -21.09765625 35.55859375 C-26.7597666 29.34001064 -27.39934714 24.56450008 -27.1328125 16.1953125 C-26.37873452 10.46696571 -24.20988347 7.00923659 -19.90234375 3.2578125 C-13.47945033 -1.56958511 -7.53147976 -2.42539179 0 0 Z " fill="#292928" transform="translate(257.6875,507.1875)"/>
<path d="M0 0 C-1.66463038 4.28642324 -4.79075837 7.08617217 -8 10.25 C-8.5465625 10.80429687 -9.093125 11.35859375 -9.65625 11.9296875 C-13.7466133 16 -13.7466133 16 -16 16 C-14.63757574 12.93286756 -13.10300295 10.88159707 -10.6875 8.5625 C-10.06875 7.964375 -9.45 7.36625 -8.8125 6.75 C-7.9153125 5.88375 -7.9153125 5.88375 -7 5 C-6.06119817 4.02208143 -5.12351459 3.04308671 -4.1875 2.0625 C-2 0 -2 0 0 0 Z " fill="#D62A2D" transform="translate(518,539)"/>
<path d="M0 0 C0.33 0 0.66 0 1 0 C1.01981934 0.56920166 1.03963867 1.13840332 1.06005859 1.72485352 C1.15611758 4.33781712 1.26546407 6.95006802 1.375 9.5625 C1.42140625 10.90538086 1.42140625 10.90538086 1.46875 12.27539062 C1.69872217 17.50725745 2.32404444 22.03344876 4 27 C3.01 26.67 2.02 26.34 1 26 C-1.35344681 20.28340179 -1.08738597 15.14287549 -0.625 9.0625 C-0.56828125 8.18787109 -0.5115625 7.31324219 -0.453125 6.41210938 C-0.31292119 4.27400131 -0.15797033 2.13686887 0 0 Z " fill="#515050" transform="translate(979,614)"/>
<path d="M0 0 C0.33 0 0.66 0 1 0 C1.22595954 3.10314787 1.42770896 6.20740807 1.625 9.3125 C1.68945312 10.19357422 1.75390625 11.07464844 1.8203125 11.98242188 C1.871875 12.82998047 1.9234375 13.67753906 1.9765625 14.55078125 C2.02893066 15.33106689 2.08129883 16.11135254 2.13525391 16.9152832 C2 19 2 19 0 22 C-0.66 22 -1.32 22 -2 22 C-1.84660156 21.35675781 -1.69320313 20.71351563 -1.53515625 20.05078125 C-0.84253326 16.10232463 -0.64199119 12.1868113 -0.4375 8.1875 C-0.39431641 7.39923828 -0.35113281 6.61097656 -0.30664062 5.79882812 C-0.20121679 3.86605785 -0.10016906 1.93304974 0 0 Z " fill="#3E3E3E" transform="translate(359,617)"/>
<path d="M0 0 C5.19209404 -0.21192221 9.126739 0.4087311 14 2 C14 2.33 14 2.66 14 3 C10.04 3 6.08 3 2 3 C2 2.34 2 1.68 2 1 C1.34 0.67 0.68 0.34 0 0 Z " fill="#DA201F" transform="translate(637,678)"/>
<path d="M0 0 C-1.49097658 3.7952131 -3.75700849 5.61042731 -7 8 C-7 5 -7 5 -4.625 2.3125 C-2 0 -2 0 0 0 Z " fill="#DD3132" transform="translate(518,539)"/>
<path d="M0 0 C0.33 0.99 0.66 1.98 1 3 C-0.98 4.98 -2.96 6.96 -5 9 C-5.66 8.67 -6.32 8.34 -7 8 C-4.69 5.36 -2.38 2.72 0 0 Z " fill="#DA2425" transform="translate(424,519)"/>
<path d="M0 0 C0.75 1.6875 0.75 1.6875 1 4 C-0.80450953 6.87384851 -2.01312923 8.64363 -5.25 9.8125 C-5.8275 9.874375 -6.405 9.93625 -7 10 C-6.67 9.34 -6.34 8.68 -6 8 C-5.34 8 -4.68 8 -4 8 C-3.71125 7.4225 -3.4225 6.845 -3.125 6.25 C-2.08333333 4.16666667 -1.04166667 2.08333333 0 0 Z " fill="#3F3F3F" transform="translate(1021,641)"/>
<path d="M0 0 C4.59037956 1.14759489 5.33669182 2.29039218 8 6 C7.34 6.66 6.68 7.32 6 8 C4.02 5.36 2.04 2.72 0 0 Z " fill="#2E2E2E" transform="translate(1156,574)"/>
<path d="M0 0 C5.75 1.75 5.75 1.75 8 4 C3.82412255 5.39195915 1.86525224 3.82323219 -2 2 C-1.34 1.34 -0.68 0.68 0 0 Z " fill="#DB1E1E" transform="translate(804,563)"/>
<path d="M0 0 C2.66666667 1.33333333 5.33333333 2.66666667 8 4 C7.67 4.99 7.34 5.98 7 7 C5.82780457 6.21654285 4.66236332 5.42297164 3.5 4.625 C2.8503125 4.18414063 2.200625 3.74328125 1.53125 3.2890625 C1.0259375 2.86367188 0.520625 2.43828125 0 2 C0 1.34 0 0.68 0 0 Z " fill="#323231" transform="translate(296,667)"/>
<path d="M0 0 C0.99 0.66 1.98 1.32 3 2 C1.02 3.32 -0.96 4.64 -3 6 C-3.66 5.34 -4.32 4.68 -5 4 C-3.35 2.68 -1.7 1.36 0 0 Z " fill="#DB2828" transform="translate(708,566)"/>
<path d="M0 0 C0.33 0.99 0.66 1.98 1 3 C-0.32 4.32 -1.64 5.64 -3 7 C-3.99 6.67 -4.98 6.34 -6 6 C-4.02 4.02 -2.04 2.04 0 0 Z " fill="#FDF3F4" transform="translate(510,548)"/>
<path d="M0 0 C0.99 0.33 1.98 0.66 3 1 C3 1.66 3 2.32 3 3 C5.97 3.495 5.97 3.495 9 4 C6.83032311 4.95465783 5.43671207 5.14401212 3.17578125 4.3984375 C1.4315257 3.64129615 -0.28627131 2.82390802 -2 2 C-1.34 1.34 -0.68 0.68 0 0 Z " fill="#616161" transform="translate(976,678)"/>
<path d="M0 0 C0.66 0.33 1.32 0.66 2 1 C-0.38957269 4.24299151 -2.2047869 6.50902342 -6 8 C-4.55746343 4.63408134 -2.66735273 2.48952921 0 0 Z " fill="#E1E0E1" transform="translate(322,594)"/>
</svg>
