<?xml version="1.0" encoding="UTF-8"?>
<svg version="1.1" xmlns="http://www.w3.org/2000/svg" width="500" height="500">
<path d="M0 0 C0.69671496 -0.00205263 1.39342993 -0.00410527 2.11125746 -0.0062201 C4.43928322 -0.01186186 6.76724929 -0.01043637 9.09528065 -0.00901413 C10.78393856 -0.01159938 12.47259586 -0.01461299 14.16125232 -0.01801753 C18.79691785 -0.02607187 23.43256787 -0.02787623 28.06823957 -0.028615 C33.06976032 -0.03046826 38.07127308 -0.03801693 43.07278919 -0.04475021 C54.0067149 -0.0583225 64.94063693 -0.06435641 75.87456965 -0.06876087 C82.7032353 -0.07152492 89.53189954 -0.07576255 96.36056423 -0.08026505 C115.27181598 -0.09245581 134.18306661 -0.1027558 153.0943222 -0.10614014 C154.90925624 -0.10646949 154.90925624 -0.10646949 156.7608556 -0.10680549 C157.97368207 -0.10702377 159.18650853 -0.10724204 160.43608731 -0.10746694 C162.89367751 -0.1079104 165.35126772 -0.10835696 167.80885792 -0.10880661 C169.02790374 -0.10902804 170.24694956 -0.10924947 171.50293616 -0.10947761 C191.25610625 -0.11342569 211.00923945 -0.1308809 230.76239529 -0.15416613 C251.04865892 -0.17788657 271.33490406 -0.19034229 291.62118179 -0.19150805 C303.00878523 -0.19242438 314.39634059 -0.198166 325.78393078 -0.21632767 C335.48038928 -0.2317379 345.17678483 -0.23684361 354.87325325 -0.22858956 C359.81851167 -0.22468648 364.76364337 -0.22559607 369.70888615 -0.23964691 C374.24099447 -0.25240595 378.77288109 -0.25117073 383.3049892 -0.2390562 C384.93957427 -0.23710269 386.57417517 -0.24016157 388.20873805 -0.24890056 C401.90918517 -0.31747779 413.27393441 1.13032208 424.769063 9.13142776 C425.800313 9.81205276 426.831563 10.49267776 427.894063 11.19392776 C435.65519653 18.02372528 440.32101646 28.64978281 441.02206266 38.79143596 C441.02417593 40.68179918 441.02417593 40.68179918 441.0263319 42.61035156 C441.02983798 43.32172736 441.03334405 44.03310316 441.03695637 44.7660358 C441.04622359 47.13797354 441.04135926 49.50966323 441.03648853 51.88161087 C441.04022715 53.60413158 441.04482952 55.32665059 441.05021918 57.04916692 C441.06243838 61.77380213 441.06218998 66.49836647 441.05983043 71.22301388 C441.05942199 76.32200267 441.07046398 81.42096883 441.07994556 86.51994705 C441.09655054 96.50654649 441.10205488 106.49312231 441.10317032 116.47973439 C441.10412102 124.59824711 441.1082324 132.71675204 441.11457157 140.8352623 C441.13218249 163.85829998 441.14141066 186.88131902 441.13991062 209.90436348 C441.13983071 211.14525173 441.1397508 212.38613997 441.13966846 213.66463089 C441.1395867 214.90703613 441.13950494 216.14944136 441.1394207 217.42949525 C441.13860781 237.56414192 441.1577467 257.69871379 441.1859452 277.83333883 C441.21467808 298.51288231 441.22848527 319.1923893 441.22675765 339.87195325 C441.22609389 351.47976545 441.23157982 363.08749922 441.25311375 374.69529343 C441.27133081 384.57839362 441.2756685 394.46137983 441.2620949 404.34448954 C441.25556801 409.38497482 441.25543814 414.42524144 441.2728014 419.46570587 C441.28854923 424.08480392 441.28565097 428.70351025 441.26823314 433.32259884 C441.26516702 434.98878199 441.26878091 436.65499449 441.27995329 438.321143 C441.36251418 451.51288389 439.89736015 462.96932346 430.769063 473.13142776 C430.24441456 473.74759964 429.71976612 474.36377151 429.17921925 474.99861526 C421.48836358 483.4314123 410.30311738 487.56077128 399.06568837 488.41193473 C394.6751258 488.55784538 390.28499435 488.53675013 385.89262867 488.51910782 C384.19297875 488.52328604 382.49333161 488.52876623 380.79368961 488.53542763 C376.14613592 488.54983687 371.49876025 488.54565169 366.851197 488.53826082 C361.82994644 488.53352023 356.80873389 488.54604687 351.78749561 488.55627823 C341.95937569 488.5734541 332.13131973 488.57430875 322.3031887 488.56906532 C314.31299497 488.56502014 306.32282012 488.56647132 298.3326273 488.57181358 C296.62531973 488.57293622 296.62531973 488.57293622 294.8835211 488.57408153 C292.57108848 488.57561304 290.25865586 488.57715139 287.94622324 488.5786965 C266.27193517 488.59241715 244.59768322 488.58698689 222.92339598 488.57551128 C203.10647161 488.56557935 183.28964062 488.57851969 163.47273065 488.60244548 C143.11061647 488.62684375 122.74854577 488.63644255 102.38641727 488.62979275 C90.96026925 488.62630216 79.53419302 488.62852207 68.10805607 488.64604378 C58.38132305 488.66077483 48.65471239 488.66138931 38.92798175 488.64397287 C33.96836555 488.63546802 29.00896787 488.63330083 24.04936314 488.64862442 C19.50310665 488.66249666 14.95725537 488.65767581 10.41102217 488.63838518 C8.7725045 488.63463265 7.13395416 488.63752548 5.49546565 488.64799684 C-9.939811 488.73957309 -23.01512879 486.14833365 -34.402812 475.00642776 C-39.230937 469.75342776 -39.230937 469.75342776 -39.230937 466.13142776 C-39.890937 466.13142776 -40.550937 466.13142776 -41.230937 466.13142776 C-41.88695444 464.61495955 -42.5302034 463.09296602 -43.168437 461.56892776 C-43.52808544 460.7220137 -43.88773388 459.87509964 -44.25828075 459.00252151 C-46.15359893 453.40790764 -46.35600696 447.77359613 -46.35677814 441.9077282 C-46.35823159 441.21180282 -46.35968503 440.51587744 -46.36118251 439.79886341 C-46.36482363 437.47354886 -46.36136487 435.14830064 -46.35792065 432.8229866 C-46.35907321 431.13631576 -46.36066165 429.44964517 -46.36264789 427.7629751 C-46.36682266 423.13291557 -46.36475885 418.50287665 -46.36166167 413.87281704 C-46.35940024 408.87749148 -46.36289093 403.88216949 -46.36564159 398.88684464 C-46.37009048 389.10231337 -46.36912667 379.31778978 -46.36622895 369.53325821 C-46.36397121 361.58060249 -46.36366401 353.62794892 -46.36475277 345.67529297 C-46.36498262 343.97792925 -46.36498262 343.97792925 -46.36521711 342.24627536 C-46.36553684 339.94752468 -46.36586105 337.64877399 -46.3661897 335.35002331 C-46.36904198 313.78890843 -46.36576155 292.22779779 -46.36038934 270.6666836 C-46.35592274 252.16762484 -46.35669653 233.66857235 -46.3613081 215.1695137 C-46.36666039 193.6890116 -46.36876604 172.20851322 -46.36569583 150.72801054 C-46.36537729 148.43707172 -46.36506291 146.14613291 -46.36475277 143.85519409 C-46.36459849 142.72800432 -46.36444422 141.60081454 -46.36428527 140.4394675 C-46.36342199 132.49770205 -46.36487895 124.55593897 -46.36723232 116.61417389 C-46.37003783 106.9337473 -46.36927623 97.25332883 -46.36395158 87.57290317 C-46.36132454 82.63413517 -46.36029262 77.69538068 -46.36360073 72.75661278 C-46.36658426 68.23397809 -46.36493657 63.71136942 -46.35962318 59.18873708 C-46.35850777 57.55420776 -46.35907073 55.91967623 -46.36149897 54.28514834 C-46.39230788 31.82014786 -46.39230788 31.82014786 -40.918437 22.13142776 C-40.4776582 21.3475972 -40.03687939 20.56376663 -39.58274364 19.75618362 C-34.19851204 10.71980959 -26.72233091 4.51817571 -16.46140575 1.56892776 C-10.94964272 0.48781137 -5.6144367 0.00566066 0 0 Z M-30.230937 22.13142776 C-33.62018065 26.50373932 -34.78845595 30.71103486 -35.230937 36.13142776 C-35.890937 36.13142776 -36.550937 36.13142776 -37.230937 36.13142776 C-37.34539647 88.79568472 -37.43349307 141.4599291 -37.48626365 194.12428598 C-37.49251714 200.34264985 -37.49898876 206.56101348 -37.50559521 212.77937698 C-37.50690676 214.01733439 -37.50821831 215.25529179 -37.50956961 216.53076306 C-37.53132254 236.57215966 -37.5707435 256.6134845 -37.61670098 276.65483853 C-37.66346865 297.22111769 -37.69123308 317.78735928 -37.70137948 338.35368943 C-37.70823796 351.04289408 -37.72989521 363.73189591 -37.77051934 376.42103812 C-37.79696146 385.12400612 -37.80493463 393.82686935 -37.79844389 402.52987459 C-37.79524333 407.55011089 -37.80012862 412.56999289 -37.82696438 417.59016609 C-37.85137909 422.19113313 -37.85247143 426.79150919 -37.83543148 431.39250401 C-37.83332693 433.05220703 -37.83959981 434.71194764 -37.85535292 436.37157723 C-37.94350143 446.23615382 -36.96111791 454.22161627 -32.230937 463.13142776 C-31.570937 463.13142776 -30.910937 463.13142776 -30.230937 463.13142776 C-29.859687 463.99767776 -29.859687 463.99767776 -29.480937 464.88142776 C-28.03442077 467.48515698 -26.42814778 469.12254934 -24.230937 471.13142776 C-23.529687 471.79142776 -22.828437 472.45142776 -22.105937 473.13142776 C-12.75410881 479.63704738 -3.33079044 479.70985217 7.63240528 479.65954971 C9.34285774 479.66631398 11.05330408 479.6748077 12.7637403 479.68487293 C17.44585789 479.70732923 22.12767874 479.70494976 26.80983329 479.69830358 C31.86658955 479.69542379 36.92326378 479.71549418 41.97998524 479.73245621 C51.88010315 479.7617876 61.78011912 479.76910647 71.68027601 479.7678807 C79.72960676 479.76704772 87.77890532 479.77291517 95.82822895 479.78350639 C121.15024746 479.81617784 146.47216686 479.82517064 171.79420337 479.81641666 C191.75607898 479.8104359 211.71770891 479.84082642 231.67952326 479.88803937 C252.1896527 479.93616975 272.6996639 479.95821171 293.20985103 479.95272857 C304.71939111 479.95015432 316.22869589 479.95809867 327.73818684 479.99379921 C337.53745046 480.02395606 347.33635631 480.02964817 357.13563904 480.0039902 C362.13199307 479.99158943 367.12767504 479.99029596 372.12397289 480.0196991 C376.70513831 480.04636637 381.2850894 480.04024165 385.86621425 480.00886915 C387.5162237 480.00317053 389.16632676 480.00908712 390.8162339 480.02832516 C403.02418725 480.1609625 412.51532151 478.11646935 422.22293496 470.10674495 C432.30212399 459.76853316 433.50408049 447.69238267 433.39725208 434.00065994 C433.40230476 432.28563053 433.40953913 430.5706064 433.41875023 428.85559428 C433.43759655 424.17017987 433.42548199 419.48529078 433.40802729 414.79989004 C433.39461569 409.73644027 433.41010387 404.67306545 433.42184925 399.60962296 C433.44020111 389.70171652 433.43173023 379.79400766 433.41376103 369.88610743 C433.39972088 361.83297521 433.39584527 353.77989652 433.3992033 345.72675323 C433.39968074 344.57949143 433.40015818 343.43222962 433.4006501 342.25020231 C433.40167645 339.91940301 433.40273181 337.58860373 433.40381586 335.25780447 C433.41237776 314.66127744 433.39572359 294.06484567 433.36598682 273.46834183 C433.33714318 253.49011104 433.33007013 233.51201742 433.34547901 213.53377151 C433.36224456 191.76680824 433.36627233 169.99991006 433.34876865 148.23294508 C433.3469243 145.91145365 433.34508957 143.58996221 433.34326458 141.26847076 C433.34235249 140.12631198 433.3414404 138.98415319 433.34050067 137.80738353 C433.33489807 129.7643289 433.33819982 121.72130608 433.34480953 113.67825317 C433.35254529 103.87605467 433.34578106 94.07399114 433.32063449 84.27181982 C433.30814607 79.27207232 433.30198512 74.27253489 433.31317616 69.27277946 C433.32323267 64.69339865 433.31472879 60.11443635 433.29159497 55.53510638 C433.28644498 53.88120015 433.28798072 52.22725628 433.29698963 50.57336657 C433.36306783 37.33847632 431.54675963 28.18182703 422.144063 18.33064651 C415.48916493 12.16829847 408.78888862 8.88548241 399.65369606 8.87136555 C398.9451826 8.86755988 398.23666915 8.86375421 397.50668558 8.85983321 C395.12644488 8.84950572 392.74644213 8.8534257 390.36618519 8.8572731 C388.64482792 8.85282132 386.92347269 8.84750747 385.20212048 8.84140438 C380.46684976 8.82720667 375.73164462 8.82556142 370.99635565 8.82600129 C365.89121459 8.82435463 360.78610066 8.81129093 355.68097401 8.7998085 C344.51566586 8.77694733 333.35037671 8.76903666 322.18504834 8.76398206 C315.21402373 8.76072627 308.24300464 8.7542045 301.27198315 8.74698067 C281.9730675 8.72741312 262.674157 8.71100987 243.37523079 8.70810413 C242.13996051 8.70791656 240.90469023 8.70772899 239.63198752 8.70753574 C237.12776323 8.70716949 234.62353894 8.70680579 232.11931465 8.70644463 C230.87620475 8.70626182 229.63309485 8.70607901 228.35231495 8.70589066 C227.10768859 8.70571011 225.86306222 8.70552956 224.58071991 8.70534354 C204.41218297 8.70180171 184.24375278 8.67477946 164.07525287 8.63739277 C143.37095336 8.59931984 122.66670683 8.57994673 101.96237153 8.57964462 C90.33667199 8.57905982 78.71109979 8.57055286 67.08543301 8.54164696 C57.18608413 8.51714667 47.28690904 8.50984109 37.38753805 8.52489448 C32.33714772 8.53206891 27.28710065 8.53118277 22.2367487 8.50848389 C17.6107799 8.4878917 12.98541821 8.49049657 8.35945597 8.51135873 C6.68850534 8.51485316 5.0175109 8.50994557 3.34661774 8.49565429 C-10.79599922 8.38251489 -20.33709726 11.5712682 -30.230937 22.13142776 Z " fill="#292828" transform="translate(52.230937004089355,5.868572235107422)"/>
<path d="M0 0 C26.52141217 -0.07015305 53.04281038 -0.12301905 79.56429672 -0.15543652 C91.87932186 -0.17089013 104.19428927 -0.1919509 116.50927734 -0.22631836 C127.24591272 -0.25626677 137.98250627 -0.27558594 148.71918225 -0.28226548 C154.40153256 -0.28616851 160.08376325 -0.29530985 165.76607513 -0.31719017 C171.12089836 -0.33764126 176.47555334 -0.3438164 181.83041191 -0.33932304 C183.78947554 -0.3401444 185.74854514 -0.34605839 187.70757484 -0.35761642 C202.40880946 -0.44005455 214.55676066 0.3389683 227 9 C228.03125 9.680625 229.0625 10.36125 230.125 11.0625 C237.88613353 17.89229751 242.55195346 28.51835505 243.25299966 38.66000819 C243.25511294 40.55037142 243.25511294 40.55037142 243.25726891 42.4789238 C243.26077498 43.19029959 243.26428105 43.90167539 243.26789337 44.63460803 C243.2771606 47.00654577 243.27229627 49.37823546 243.26742554 51.75018311 C243.27116416 53.47270381 243.27576652 55.19522282 243.28115618 56.91773915 C243.29337538 61.64237437 243.29312699 66.36693871 243.29076743 71.09158611 C243.29035899 76.19057491 243.30140098 81.28954106 243.31088257 86.38851929 C243.32748755 96.37511872 243.33299189 106.36169454 243.33410732 116.34830663 C243.33505802 124.46681934 243.3391694 132.58532428 243.34550858 140.70383453 C243.36311949 163.72687221 243.37234766 186.74989125 243.37084763 209.77293572 C243.37076772 211.01382396 243.3706878 212.25471221 243.37060547 213.53320312 C243.37052371 214.77560836 243.37044195 216.0180136 243.37035771 217.29806748 C243.36954482 237.43271416 243.3886837 257.56728602 243.4168822 277.70191106 C243.44561509 298.38145454 243.45942228 319.06096154 243.45769465 339.74052548 C243.4570309 351.34833768 243.46251683 362.95607145 243.48405075 374.56386566 C243.50226781 384.44696585 243.5066055 394.32995206 243.4930319 404.21306178 C243.48650501 409.25354705 243.48637514 414.29381368 243.5037384 419.33427811 C243.51948623 423.95337615 243.51658797 428.57208249 243.49917014 433.19117108 C243.49610403 434.85735422 243.49971791 436.52356673 243.51089029 438.18971524 C243.59345119 451.38145612 242.12829716 462.8378957 233 473 C232.47535156 473.61617188 231.95070313 474.23234375 231.41015625 474.8671875 C223.65033976 483.37559805 212.13508868 487.74530386 200.74088669 488.2751236 C195.50770269 488.41454884 190.27498953 488.38306142 185.04052734 488.35644531 C183.03069978 488.3572372 181.02087237 488.35933756 179.01104736 488.36264038 C173.58197872 488.36775036 168.15310136 488.35429074 162.7240634 488.33711338 C157.03907978 488.32203165 151.35409817 488.32325047 145.6690979 488.32244873 C136.13499704 488.31876364 126.60096851 488.30382819 117.06689453 488.28125 C104.81361683 488.25229218 92.56039706 488.24201792 80.30708885 488.2375679 C69.77774611 488.23359574 59.24841604 488.22109972 48.71908236 488.20722103 C45.32921534 488.20311686 41.93934878 488.20019408 38.54948044 488.19742584 C33.23889428 488.19254792 27.92834362 488.18237026 22.61777496 488.16798782 C20.66376948 488.16345069 18.70975922 488.16062284 16.75574875 488.15958023 C14.10075073 488.15784498 11.44584273 488.14999026 8.79086304 488.14044189 C8.00752574 488.14130838 7.22418845 488.14217486 6.41711366 488.1430676 C1.11420865 488.11420865 1.11420865 488.11420865 0 487 C-0.23192865 485.48530552 -0.41215238 483.96245438 -0.5625 482.4375 C-0.64628906 481.61121094 -0.73007813 480.78492188 -0.81640625 479.93359375 C-0.87699219 479.29550781 -0.93757813 478.65742188 -1 478 C0.59633742 478.00967883 0.59633742 478.00967883 2.22492409 478.01955318 C28.15827275 478.1751719 54.09156061 478.29008514 80.02527809 478.3626852 C92.5668259 478.3987302 105.10806466 478.44784514 117.64941406 478.52807617 C128.58456937 478.59799833 139.51950078 478.64304365 150.45487344 478.65861946 C156.24147482 478.66771971 162.02743584 478.68900255 167.81383133 478.7401104 C173.26898778 478.78789869 178.72324487 478.80222552 184.17859077 478.79175377 C186.17233112 478.79366731 188.16610396 478.80742748 190.15966225 478.83443832 C203.41488174 479.00510704 213.57956893 477.84395839 224.21987343 469.19573116 C233.88731982 459.31525044 234.72977138 446.88858286 234.62818909 433.86923218 C234.63324176 432.15420276 234.64047614 430.43917864 234.64968723 428.72416651 C234.66853355 424.0387521 234.656419 419.35386302 234.6389643 414.66846228 C234.62555269 409.60501251 234.64104087 404.54163769 234.65278625 399.47819519 C234.67113812 389.57028875 234.66266723 379.66257989 234.64469803 369.75467966 C234.63065789 361.70154744 234.62678228 353.64846876 234.6301403 345.59532547 C234.63061775 344.44806366 234.63109519 343.30080186 234.6315871 342.11877454 C234.63261345 339.78797525 234.63366881 337.45717597 234.63475286 335.1263767 C234.64331477 314.52984968 234.62666059 293.93341791 234.59692383 273.33691406 C234.56808018 253.35868327 234.56100713 233.38058966 234.57641602 213.40234375 C234.59318156 191.63538048 234.59720933 169.86848229 234.57970566 148.10151732 C234.5778613 145.78002589 234.57602658 143.45853445 234.57420158 141.137043 C234.57328949 139.99488421 234.5723774 138.85272542 234.57143768 137.67595576 C234.56583507 129.63290114 234.56913683 121.58987831 234.57574654 113.54682541 C234.58348229 103.74462691 234.57671806 93.94256337 234.5515715 84.14039205 C234.53908307 79.14064455 234.53292213 74.14110712 234.54411316 69.1413517 C234.55416967 64.56197089 234.54566579 59.98300859 234.52253198 55.40367861 C234.51738199 53.74977238 234.51891773 52.09582851 234.52792663 50.4419388 C234.58378967 39.25305874 233.83439038 29.47466202 226 20.75 C225.34 19.98171875 224.68 19.2134375 224 18.421875 C211.47477173 8.3103626 199.41723166 9.17456832 183.95410156 9.31884766 C181.41049235 9.32054178 178.86688021 9.31958682 176.32327271 9.31619263 C170.86552308 9.31483078 165.40832697 9.33173514 159.95069122 9.36561966 C152.06019394 9.41457681 144.16990426 9.43002809 136.27927157 9.43754761 C123.47447398 9.45064904 110.66990694 9.49049577 97.86523438 9.54736328 C85.43360541 9.60251631 73.00203927 9.6449481 60.5703125 9.67041016 C59.41907423 9.67277467 59.41907423 9.67277467 58.24457863 9.67518695 C54.39393625 9.6830177 50.54329343 9.69059982 46.69265032 9.69805837 C14.79493116 9.76016413 -17.10249845 9.86620873 -49 10 C-49.33 9.34 -49.66 8.68 -50 8 C-33.5 8 -17 8 0 8 C0 5.36 0 2.72 0 0 Z " fill="#CE2428" transform="translate(250,6)"/>
<path d="M0 0 C1.75183594 0.14888672 1.75183594 0.14888672 3.5390625 0.30078125 C6.375 0.6875 6.375 0.6875 7.375 1.6875 C7.46865006 3.4367872 7.49244438 5.18986254 7.48852539 6.94165039 C7.48844986 8.06273697 7.48837433 9.18382355 7.48829651 10.33888245 C7.48313522 11.5586528 7.47797394 12.77842316 7.47265625 14.03515625 C7.4712413 15.27671982 7.46982635 16.51828339 7.46836853 17.79747009 C7.46370591 21.10355491 7.45471497 24.40957146 7.44366455 27.71563721 C7.43344827 31.0871115 7.42887045 34.45859283 7.42382812 37.83007812 C7.41277395 44.44923775 7.39601736 51.06836493 7.375 57.6875 C7.98966125 57.52484146 8.60432251 57.36218292 9.23760986 57.19459534 C11.54396813 56.64741235 13.5539631 56.57384435 15.921875 56.58984375 C16.76621094 56.59306641 17.61054688 56.59628906 18.48046875 56.59960938 C19.78951172 56.61217773 19.78951172 56.61217773 21.125 56.625 C22.01316406 56.62951172 22.90132813 56.63402344 23.81640625 56.63867188 C26.00267329 56.650426 28.18880179 56.66685751 30.375 56.6875 C30.35179687 55.61371094 30.32859375 54.53992188 30.3046875 53.43359375 C30.28591376 51.99740285 30.2677153 50.56120435 30.25 49.125 C30.23324219 48.42052734 30.21648437 47.71605469 30.19921875 46.99023438 C30.14166156 40.74527926 31.28895711 35.19829088 34.375 29.6875 C35.035 29.6875 35.695 29.6875 36.375 29.6875 C36.6225 29.089375 36.87 28.49125 37.125 27.875 C39.0032569 24.58805042 41.06562611 23.07677332 44.6875 22 C49.91737256 21.39187528 54.78456376 21.73087 59.98046875 22.46875 C64.21821757 22.85588529 68.46410978 22.70308467 72.71484375 22.625 C75.375 22.6875 75.375 22.6875 76.375 23.6875 C77.19189758 28.96458641 77.50313544 34.05836097 77.5078125 39.40625 C77.50876923 40.10842651 77.50972595 40.81060303 77.51071167 41.53405762 C77.5113867 43.0062672 77.50958017 44.47847988 77.50537109 45.95068359 C77.50001312 48.18203527 77.50533927 50.41318571 77.51171875 52.64453125 C77.51105785 54.08593794 77.50977644 55.5273445 77.5078125 56.96875 C77.50668457 58.25845703 77.50555664 59.54816406 77.50439453 60.87695312 C77.3682814 64.88535631 76.92984436 68.71818643 76.375 72.6875 C70.375 72.6875 64.375 72.6875 58.375 72.6875 C57.446875 72.8525 56.51875 73.0175 55.5625 73.1875 C48.69482358 74.26478258 44.36791465 73.81063873 38.3984375 70.265625 C35.27513615 67.82969113 33.99161614 65.27217057 32.375 61.6875 C32.375 64.9875 32.375 68.2875 32.375 71.6875 C28.03112262 73.85943869 24.88581019 73.97817646 20.1796875 73.953125 C19.39103302 73.95503845 18.60237854 73.9569519 17.78982544 73.95892334 C16.12729573 73.96028146 14.46475529 73.95661106 12.80224609 73.94824219 C10.25203821 73.93750858 7.70253019 73.94816446 5.15234375 73.9609375 C3.53645677 73.9596164 1.92057024 73.95705503 0.3046875 73.953125 C-0.45989777 73.95717346 -1.22448303 73.96122192 -2.01223755 73.96539307 C-7.39505909 73.91744091 -7.39505909 73.91744091 -9.625 71.6875 C-9.88569641 68.80297852 -9.88569641 68.80297852 -9.8996582 65.06640625 C-9.90476913 64.38657684 -9.90988007 63.70674744 -9.91514587 63.00631714 C-9.92907161 60.75412244 -9.92808311 58.50223268 -9.92578125 56.25 C-9.92966622 54.68823126 -9.93400047 53.12646357 -9.93876648 51.56469727 C-9.94623485 48.28951595 -9.94593274 45.01444243 -9.94067383 41.73925781 C-9.93487467 37.53558043 -9.95181762 33.332343 -9.9750185 29.1287384 C-9.98972637 25.90317186 -9.99063166 22.67771205 -9.98750877 19.45211792 C-9.98802336 17.9019178 -9.99328665 16.35171192 -10.00332069 14.80154419 C-10.01561299 12.63693354 -10.00893827 10.47318979 -9.99731445 8.30859375 C-9.99794388 7.0755249 -9.9985733 5.84245605 -9.9992218 4.57202148 C-9.87572861 3.62012939 -9.75223541 2.6682373 -9.625 1.6875 C-5.90836556 -0.79025629 -4.37369778 -0.40245778 0 0 Z M48.5 38 C45.70315291 42.19527064 46.01039862 46.84593283 46.375 51.6875 C47.24153414 54.61830674 47.24153414 54.61830674 48.375 56.6875 C49.035 56.6875 49.695 56.6875 50.375 56.6875 C50.375 57.3475 50.375 58.0075 50.375 58.6875 C52.685 58.6875 54.995 58.6875 57.375 58.6875 C58.035 57.3675 58.695 56.0475 59.375 54.6875 C60.035 54.6875 60.695 54.6875 61.375 54.6875 C61.48323773 52.43856046 61.56069645 50.18812425 61.625 47.9375 C61.67140625 46.68453125 61.7178125 45.4315625 61.765625 44.140625 C61.66275488 40.65371149 61.66275488 40.65371149 59.58203125 38.26171875 C56.05366657 35.74502678 52.12113551 35.46520515 48.5 38 Z " fill="#2C2C2B" transform="translate(345.625,200.3125)"/>
<path d="M0 0 C0.73427719 -0.00570007 1.46855438 -0.01140015 2.2250824 -0.01727295 C3.7861893 -0.02674241 5.34731637 -0.03326462 6.90844727 -0.03710938 C9.27461964 -0.04673677 11.63989405 -0.07770674 14.00585938 -0.109375 C15.52473444 -0.11591293 17.04361572 -0.12116029 18.5625 -0.125 C19.26178116 -0.1373468 19.96106232 -0.1496936 20.68153381 -0.16241455 C25.96445436 -0.13899132 29.88020478 1.14291936 34.74609375 3.203125 C36.10734375 3.76 36.10734375 3.76 37.49609375 4.328125 C41.55398839 7.70970386 43.32279217 12.38111447 44.09765625 17.546875 C44.2967824 22.8327692 43.13345976 26.52021475 40.74609375 31.203125 C40.35421875 32.0075 39.96234375 32.811875 39.55859375 33.640625 C39.29046875 34.15625 39.02234375 34.671875 38.74609375 35.203125 C39.50921875 35.88375 40.27234375 36.564375 41.05859375 37.265625 C45.98961723 42.65534834 47.03279572 46.45785834 46.80859375 53.640625 C46.1199631 59.88134027 44.65789714 64.14988887 39.74609375 68.203125 C29.61011817 74.26344607 17.10470821 73.38387892 5.68359375 73.390625 C3.99459961 73.40899414 3.99459961 73.40899414 2.27148438 73.42773438 C1.19962891 73.42966797 0.12777344 73.43160156 -0.9765625 73.43359375 C-1.94343994 73.43770264 -2.91031738 73.44181152 -3.90649414 73.44604492 C-6.25390625 73.203125 -6.25390625 73.203125 -8.25390625 71.203125 C-8.50114441 68.31187439 -8.50114441 68.31187439 -8.49682617 64.56616211 C-8.49872452 63.88472641 -8.50062286 63.20329071 -8.50257874 62.50120544 C-8.5062897 60.24417695 -8.49557894 57.98746875 -8.484375 55.73046875 C-8.48318338 54.16630593 -8.48273 52.60214238 -8.48298645 51.03797913 C-8.48142109 47.75859097 -8.47312676 44.47931189 -8.4597168 41.19995117 C-8.44271284 36.98734828 -8.43890282 32.77486521 -8.43966198 28.56223202 C-8.43939064 25.33243151 -8.43391554 22.10265742 -8.42666054 18.87286568 C-8.42346907 17.31905886 -8.42150535 15.76524905 -8.42076683 14.21143913 C-8.4186091 12.04447149 -8.40987772 9.87763338 -8.39916992 7.71069336 C-8.39535812 6.4754039 -8.39154633 5.24011444 -8.38761902 3.96739197 C-8.12908569 -1.37731183 -4.37544759 0.02606363 0 0 Z M8.74609375 17.203125 C8.67382873 19.05600002 8.66228155 20.91146378 8.68359375 22.765625 C8.69261719 23.77753906 8.70164062 24.78945312 8.7109375 25.83203125 C8.72253906 26.61449219 8.73414062 27.39695313 8.74609375 28.203125 C11.16396495 28.31138789 13.57696931 28.39052289 15.99609375 28.453125 C16.67800781 28.48664063 17.35992187 28.52015625 18.0625 28.5546875 C21.55424118 28.6224883 23.39697095 28.46386923 26.23046875 26.34765625 C27.99258503 24.29202738 27.99258503 24.29202738 27.74609375 21.640625 C26.51190659 18.63229379 25.55181559 17.82700049 22.74609375 16.203125 C19.50424963 15.80366609 19.50424963 15.80366609 16.05859375 15.953125 C14.89972656 15.96859375 13.74085937 15.9840625 12.546875 16 C9.84195109 15.88923223 9.84195109 15.88923223 8.74609375 17.203125 Z M8.74609375 43.203125 C8.67337634 45.55626055 8.66238507 47.91146168 8.68359375 50.265625 C8.69261719 51.55597656 8.70164062 52.84632813 8.7109375 54.17578125 C8.72253906 55.17480469 8.73414062 56.17382812 8.74609375 57.203125 C14.42689111 58.82995842 20.41580032 59.22845411 25.87109375 56.828125 C26.48984375 56.291875 27.10859375 55.755625 27.74609375 55.203125 C27.74609375 54.543125 27.74609375 53.883125 27.74609375 53.203125 C28.40609375 52.873125 29.06609375 52.543125 29.74609375 52.203125 C28.80921778 47.19358397 28.80921778 47.19358397 25.5859375 43.48828125 C22.1758068 41.94504466 19.72467995 41.86876785 15.99609375 41.953125 C14.84625 41.96859375 13.69640625 41.9840625 12.51171875 42 C9.83783461 41.89358001 9.83783461 41.89358001 8.74609375 43.203125 Z " fill="#2D2D2D" transform="translate(42.25390625,200.796875)"/>
<path d="M0 0 C0 -0.66 0 -1.32 0 -2 C4.95 -2 9.9 -2 15 -2 C16.1259389 4.75563338 16.1259389 4.75563338 16.16113281 8.34619141 C16.17074036 9.1478775 16.1803479 9.9495636 16.19024658 10.77554321 C16.19449646 11.62562958 16.19874634 12.47571594 16.203125 13.3515625 C16.20882507 14.24684662 16.21452515 15.14213074 16.22039795 16.06454468 C16.22981578 17.95561555 16.23636909 19.8467026 16.24023438 21.73779297 C16.24989862 24.5950274 16.28093567 27.45152904 16.3125 30.30859375 C16.44690699 53.37129633 16.44690699 53.37129633 10.8125 60.9375 C1.95509211 67.43293245 -4.74771028 70.40653622 -16 69 C-22.64941491 66.66329523 -27.99711169 63.94714835 -32 58 C-31.75 55.6875 -31.75 55.6875 -31 54 C-30.34 54 -29.68 54 -29 54 C-29 53.34 -29 52.68 -29 52 C-28.01 52 -27.02 52 -26 52 C-26 51.34 -26 50.68 -26 50 C-25.01 50 -24.02 50 -23 50 C-23 49.34 -23 48.68 -23 48 C-21.35 48.33 -19.7 48.66 -18 49 C-17.67 49.99 -17.34 50.98 -17 52 C-11.50768164 54.55456668 -7.58370787 53.86123596 -2 52 C-1.67 49.36 -1.34 46.72 -1 44 C-1.969375 44.495 -2.93875 44.99 -3.9375 45.5 C-9.07002815 47.66269835 -14.09255605 48.1156471 -19.3515625 46.09765625 C-21.2749288 45.14276945 -23.14393461 44.07989259 -25 43 C-25 42.34 -25 41.68 -25 41 C-25.66 41 -26.32 41 -27 41 C-32.29745412 32.07000591 -33.15743131 24.10609001 -32 14 C-31.11751051 10.88781631 -29.91907015 8.58602568 -28 6 C-27.63777344 5.43925781 -27.27554688 4.87851563 -26.90234375 4.30078125 C-20.54781514 -4.5955588 -9.14992016 -4.57496008 0 0 Z M-12.25 11.4375 C-16.1629808 15.08368666 -16.54581136 18.40463633 -17.4375 23.5 C-16.75441214 27.40335922 -14.8968891 30.30733024 -12 33 C-8.73835994 33.59907675 -6.86084809 33.28694936 -3.75 32.25 C-1.56158417 30.68684583 -0.99543802 29.49292303 0 27 C0.24029959 24.40845081 0.24029959 24.40845081 0.125 21.75 C0.09792969 20.41195312 0.09792969 20.41195312 0.0703125 19.046875 C0.04710937 18.37140625 0.02390625 17.6959375 0 17 C-0.66 17 -1.32 17 -2 17 C-2.33 15.35 -2.66 13.7 -3 12 C-6.84136089 10.17078053 -8.27410629 9.67893163 -12.25 11.4375 Z " fill="#2D2D2D" transform="translate(142,226)"/>
<path d="M0 0 C0.99 -0.515625 1.98 -1.03125 3 -1.5625 C7.23671522 -3.35627056 10.61260194 -3.3025088 15 -2 C17.49627984 -0.82750492 19.67338243 0.49739282 22 2 C22.825 1.360625 23.65 0.72125 24.5 0.0625 C28.14730728 -2.31506713 31.64679691 -3.3065636 36 -3 C40.36337792 -2.00115445 44.4605253 -0.74554611 47.48828125 2.6875 C50.85927765 8.37529029 51.15041944 13.55947746 51.1328125 20.01171875 C51.13376923 20.78054886 51.13472595 21.54937897 51.13571167 22.34150696 C51.13639056 23.96115196 51.13455663 25.58079972 51.13037109 27.20043945 C51.1249967 29.68902622 51.13033714 32.1774343 51.13671875 34.66601562 C51.13605835 36.23958373 51.13477797 37.81315173 51.1328125 39.38671875 C51.13483673 40.13459152 51.13686096 40.88246429 51.13894653 41.65299988 C51.11496623 46.88503377 51.11496623 46.88503377 50 48 C47.64686445 48.07271741 45.29166332 48.08370868 42.9375 48.0625 C41.64714844 48.05347656 40.35679687 48.04445313 39.02734375 48.03515625 C38.02832031 48.02355469 37.02929688 48.01195312 36 48 C35.98541748 46.9805127 35.97083496 45.96102539 35.95581055 44.91064453 C35.89791534 41.13456834 35.82068335 37.35909404 35.73754883 33.58349609 C35.70425786 31.94817866 35.67623894 30.31274518 35.65356445 28.67724609 C35.62009372 26.32859757 35.56778564 23.98101663 35.51171875 21.6328125 C35.50532883 20.89942657 35.4989389 20.16604065 35.49235535 19.41043091 C35.46005457 17.12675244 35.46005457 17.12675244 35 14 C32.23254916 11.69924738 32.23254916 11.69924738 29.375 12.25 C28.59125 12.4975 27.8075 12.745 27 13 C25.53143266 15.93713469 25.78249848 18.93643628 25.71875 22.16015625 C25.70034058 22.86522812 25.68193115 23.57029999 25.66296387 24.29673767 C25.58417898 27.31851853 25.51639985 30.3405233 25.44775391 33.36254883 C25.39614116 35.56603408 25.33885725 37.76932092 25.28125 39.97265625 C25.26767456 40.66118179 25.25409912 41.34970734 25.2401123 42.05909729 C25.11283078 46.88716922 25.11283078 46.88716922 24 48 C21.64686445 48.07271741 19.29166332 48.08370868 16.9375 48.0625 C15.64714844 48.05347656 14.35679687 48.04445313 13.02734375 48.03515625 C12.02832031 48.02355469 11.02929688 48.01195312 10 48 C8.80611597 24.21122564 8.80611597 24.21122564 9 14 C5.13236554 12.12456646 5.13236554 12.12456646 1 13 C-0.49983085 15.9996617 -0.23902055 19.11946961 -0.31640625 22.4140625 C-0.33718735 23.14370209 -0.35796844 23.87334167 -0.37937927 24.62509155 C-0.44481917 26.95829763 -0.50373368 29.29161721 -0.5625 31.625 C-0.60569053 33.20574095 -0.64930499 34.78647039 -0.69335938 36.3671875 C-0.80129369 40.24467697 -0.90040755 44.1222513 -1 48 C-5.95 48 -10.9 48 -16 48 C-17.12528595 40.12299838 -17.12528595 40.12299838 -17.12939453 36.36572266 C-17.13254669 35.52860748 -17.13569885 34.69149231 -17.13894653 33.82901001 C-17.1369223 32.94957733 -17.13489807 32.07014465 -17.1328125 31.1640625 C-17.13376923 30.24410492 -17.13472595 29.32414734 -17.13571167 28.37631226 C-17.13638878 26.44504731 -17.13456738 24.51378003 -17.13037109 22.58251953 C-17.12497922 19.61355571 -17.13035075 16.64474064 -17.13671875 13.67578125 C-17.13605861 11.79687466 -17.13477877 9.91796817 -17.1328125 8.0390625 C-17.13483673 7.14748444 -17.13686096 6.25590637 -17.13894653 5.33731079 C-17.1149747 -0.8850253 -17.1149747 -0.8850253 -16 -2 C-14.07200286 -2.31501315 -12.13106245 -2.55258858 -10.1875 -2.75 C-9.12917969 -2.86859375 -8.07085937 -2.9871875 -6.98046875 -3.109375 C-3.5981579 -2.9852535 -2.42616795 -2.27930548 0 0 Z " fill="#D11E1E" transform="translate(281,225)"/>
<path d="M0 0 C3.23883292 2.44722547 6.15549338 5.10739786 9 8 C7.6095501 11.10442031 5.98428402 13.3656443 3.625 15.8125 C3.03976563 16.43769531 2.45453125 17.06289062 1.8515625 17.70703125 C0 19 0 19 -2.0625 18.82421875 C-4.7695937 17.67261236 -6.76043196 15.88595204 -9 14 C-12.19074472 12.40462764 -15.52830439 12.62264178 -19 13 C-21.56008963 14.00036981 -21.56008963 14.00036981 -23 16 C-23.33425735 18.62625139 -23.33425735 18.62625139 -23 21 C-18.24928748 23.60823432 -13.78924767 25.41494607 -8.5625 26.875 C-1.54007516 28.95481224 4.48397197 31.6977132 9 37.625 C11.47558377 43.50451146 12.15795007 50.0378576 10.3515625 56.21875 C7.38148388 62.81892471 2.54138457 67.25414822 -4.1875 69.875 C-13.04476824 72.40564807 -22.60809601 71.80170147 -31 68 C-35.12876138 65.46455257 -38.30138927 63.0479161 -41 59 C-40.625 56.8125 -40.625 56.8125 -40 55 C-39.34 55 -38.68 55 -38 55 C-38 54.34 -38 53.68 -38 53 C-37.34 53 -36.68 53 -36 53 C-35.773125 52.360625 -35.54625 51.72125 -35.3125 51.0625 C-34 49 -34 49 -31.6875 47.9375 C-29 48 -29 48 -26.375 50.3125 C-25.59125 51.199375 -24.8075 52.08625 -24 53 C-19.55421147 55.96385902 -15.21418646 55.63910806 -10 55 C-7.15191594 53.49458937 -7.15191594 53.49458937 -6 51 C-5.8423415 48.87957244 -5.8423415 48.87957244 -7 47 C-11.14728753 43.04560957 -16.82790294 42.00586212 -22.18164062 40.42578125 C-28.90988828 38.32355516 -33.90182978 35.58236334 -38.4375 30 C-41.38153136 24.17566091 -41.0563175 16.70897999 -39.3046875 10.55859375 C-36.6391978 4.65643798 -32.26722988 0.82800136 -26.375 -1.8125 C-18.02577984 -4.60088459 -7.87237441 -3.9297869 0 0 Z " fill="#D22021" transform="translate(202,203)"/>
<path d="M0 0 C1.0725 0.01417969 2.145 0.02835938 3.25 0.04296875 C4.3225 0.04941406 5.395 0.05585938 6.5 0.0625 C9.25 0.23046875 9.25 0.23046875 11.25 1.23046875 C11.58 8.49046875 11.91 15.75046875 12.25 23.23046875 C12.91 22.57046875 13.57 21.91046875 14.25 21.23046875 C20.55116873 19.45868135 26.51797977 20.10587125 32.25 23.23046875 C36.83500279 26.85536412 39.05147509 30.98852386 40.0078125 36.70703125 C40.97873504 46.82341767 40.70570489 56.33969041 35.25 65.23046875 C29.92043645 70.41599004 24.57991099 71.44569744 17.3984375 71.49609375 C14.98969275 71.19828531 13.34623577 70.4256077 11.25 69.23046875 C10.755 69.72546875 10.755 69.72546875 10.25 70.23046875 C8.10692104 70.35584616 5.95921114 70.40621239 3.8125 70.41796875 C2.05099609 70.43923828 2.05099609 70.43923828 0.25390625 70.4609375 C-2.75 70.23046875 -2.75 70.23046875 -4.75 68.23046875 C-5.00396729 65.49780273 -5.00396729 65.49780273 -5.00878906 61.9765625 C-5.01509338 60.66179932 -5.02139771 59.34703613 -5.02789307 57.99243164 C-5.0243134 56.55094265 -5.02021146 55.10945488 -5.015625 53.66796875 C-5.01697168 52.19588151 -5.01891223 50.7237947 -5.02142334 49.25170898 C-5.02437449 46.16483327 -5.02007732 43.07807322 -5.01074219 39.99121094 C-4.99934756 36.02974746 -5.00590709 32.06855497 -5.01788712 28.10710144 C-5.025106 25.06683298 -5.02281768 22.02662902 -5.01763153 18.98635864 C-5.01629511 17.52548185 -5.0179425 16.06459925 -5.02259064 14.60372925 C-5.02765606 12.5639456 -5.01856979 10.52414149 -5.00878906 8.484375 C-5.00640228 6.74136108 -5.00640228 6.74136108 -5.00396729 4.96313477 C-4.65083697 1.16348313 -3.80352747 0.31876154 0 0 Z M12.58203125 36.34375 C11.00134202 39.76934924 10.91432996 42.16133755 11 45.91796875 C11.01546875 47.05621094 11.0309375 48.19445312 11.046875 49.3671875 C11.06241926 52.17430701 11.06241926 52.17430701 12.25 54.23046875 C12.91 54.23046875 13.57 54.23046875 14.25 54.23046875 C14.25 54.89046875 14.25 55.55046875 14.25 56.23046875 C16.23 56.56046875 18.21 56.89046875 20.25 57.23046875 C24.75556093 51.85286377 25.55901844 48.16933734 25.25 41.23046875 C24.94094086 38.37167171 24.56646547 37.55865517 22.5625 35.48046875 C18.75019218 33.41976182 15.45065947 32.70925851 12.58203125 36.34375 Z " fill="#2C2C2C" transform="translate(429.75,202.76953125)"/>
<path d="M0 0 C0.33 -0.66 0.66 -1.32 1 -2 C3.31243792 -2.02685412 5.6249627 -2.04632841 7.9375 -2.0625 C9.22527344 -2.07410156 10.51304687 -2.08570313 11.83984375 -2.09765625 C15 -2 15 -2 16 -1 C16.09831146 0.49870048 16.12798456 2.00198539 16.12939453 3.50390625 C16.13254669 4.46159912 16.13569885 5.41929199 16.13894653 6.40600586 C16.1369223 7.44764893 16.13489807 8.48929199 16.1328125 9.5625 C16.13376923 10.62412354 16.13472595 11.68574707 16.13571167 12.77954102 C16.13639364 15.02913472 16.13453819 17.27873037 16.13037109 19.52832031 C16.1250231 22.98507071 16.13031554 26.44169117 16.13671875 29.8984375 C16.13605797 32.07812529 16.13477682 34.257813 16.1328125 36.4375 C16.13483673 37.47914307 16.13686096 38.52078613 16.13894653 39.59399414 C16.13421829 41.03053345 16.13421829 41.03053345 16.12939453 42.49609375 C16.12859894 43.34357178 16.12780334 44.1910498 16.12698364 45.06420898 C16 47 16 47 15 48 C12.64686445 48.07271741 10.29166332 48.08370868 7.9375 48.0625 C6.64714844 48.05347656 5.35679687 48.04445313 4.02734375 48.03515625 C3.02832031 48.02355469 2.02929688 48.01195312 1 48 C0.67 47.01 0.34 46.02 0 45 C-0.474375 45.474375 -0.94875 45.94875 -1.4375 46.4375 C-5.71485168 49.04564127 -10.23115227 49.47236241 -15.15234375 48.6328125 C-20.60569942 46.93714337 -24.05619081 43.85132418 -27 39 C-30.97392659 30.46730479 -31.44657128 20.22639031 -28.9375 11.1875 C-26.63823597 5.3091929 -22.70862844 0.50479358 -17.1875 -2.5625 C-11.17619867 -3.38758058 -5.3469029 -3.00609287 0 0 Z M-13 13 C-15.94211213 17.66968686 -15.47726887 22.67306354 -15 28 C-14.19179214 31.62737571 -14.19179214 31.62737571 -12 34 C-8.64982715 35.41909682 -8.64982715 35.41909682 -5 35 C-2.08209475 32.7495803 -2.08209475 32.7495803 0 30 C0.33 29.67 0.66 29.34 1 29 C1.12583966 27.065581 1.17578009 25.12597237 1.1875 23.1875 C1.20167969 22.12917969 1.21585938 21.07085937 1.23046875 19.98046875 C1.00382008 17.04940209 0.59266715 15.43683701 -1 13 C-5.0635164 10.29098907 -8.9364836 10.29098907 -13 13 Z " fill="#D31818" transform="translate(245,225)"/>
<path d="M0 0 C1.75183594 0.14888672 1.75183594 0.14888672 3.5390625 0.30078125 C6.375 0.6875 6.375 0.6875 7.375 1.6875 C7.46865006 3.4367872 7.49244438 5.18986254 7.48852539 6.94165039 C7.48844986 8.06273697 7.48837433 9.18382355 7.48829651 10.33888245 C7.48313522 11.5586528 7.47797394 12.77842316 7.47265625 14.03515625 C7.4712413 15.27671982 7.46982635 16.51828339 7.46836853 17.79747009 C7.46370591 21.10355491 7.45471497 24.40957146 7.44366455 27.71563721 C7.43344827 31.0871115 7.42887045 34.45859283 7.42382812 37.83007812 C7.41277395 44.44923775 7.39601736 51.06836493 7.375 57.6875 C8.28282227 57.43842896 8.28282227 57.43842896 9.20898438 57.18432617 C11.89154057 56.56901938 14.13785152 56.7480921 16.875 57 C17.8134375 57.07863281 18.751875 57.15726562 19.71875 57.23828125 C22.34112444 57.68177104 24.06764418 58.41161045 26.375 59.6875 C27.365 60.0175 28.355 60.3475 29.375 60.6875 C31.69440842 64.46727668 32.76668975 67.24834956 32.375 71.6875 C28.54788717 74.21713743 24.5981904 73.97664541 20.1796875 73.953125 C19.39103302 73.95503845 18.60237854 73.9569519 17.78982544 73.95892334 C16.12729573 73.96028146 14.46475529 73.95661106 12.80224609 73.94824219 C10.25203821 73.93750858 7.70253019 73.94816446 5.15234375 73.9609375 C3.53645677 73.9596164 1.92057024 73.95705503 0.3046875 73.953125 C-0.45989777 73.95717346 -1.22448303 73.96122192 -2.01223755 73.96539307 C-7.39505909 73.91744091 -7.39505909 73.91744091 -9.625 71.6875 C-9.88569641 68.80297852 -9.88569641 68.80297852 -9.8996582 65.06640625 C-9.90476913 64.38657684 -9.90988007 63.70674744 -9.91514587 63.00631714 C-9.92907161 60.75412244 -9.92808311 58.50223268 -9.92578125 56.25 C-9.92966622 54.68823126 -9.93400047 53.12646357 -9.93876648 51.56469727 C-9.94623485 48.28951595 -9.94593274 45.01444243 -9.94067383 41.73925781 C-9.93487467 37.53558043 -9.95181762 33.332343 -9.9750185 29.1287384 C-9.98972637 25.90317186 -9.99063166 22.67771205 -9.98750877 19.45211792 C-9.98802336 17.9019178 -9.99328665 16.35171192 -10.00332069 14.80154419 C-10.01561299 12.63693354 -10.00893827 10.47318979 -9.99731445 8.30859375 C-9.99794388 7.0755249 -9.9985733 5.84245605 -9.9992218 4.57202148 C-9.87572861 3.62012939 -9.75223541 2.6682373 -9.625 1.6875 C-5.90836556 -0.79025629 -4.37369778 -0.40245778 0 0 Z " fill="#3B3A3A" transform="translate(345.625,200.3125)"/>
<path d="M0 0 C26.69413067 -0.04666185 53.38825525 -0.08196026 80.08241844 -0.10362434 C92.47618343 -0.11394944 104.86992312 -0.12803325 117.26367188 -0.15087891 C128.06247048 -0.17077512 138.86125077 -0.18370746 149.6600672 -0.18817699 C155.38119309 -0.19079078 161.10226657 -0.19695976 166.8233757 -0.21146011 C172.20276633 -0.22498455 177.58208271 -0.22923311 182.96148872 -0.22621536 C184.94087311 -0.22676784 186.92025985 -0.23077575 188.89962959 -0.23841095 C191.5921452 -0.24829189 194.28437666 -0.24599414 196.97689819 -0.24050903 C198.16462627 -0.24924756 198.16462627 -0.24924756 199.37634885 -0.25816262 C204.77175758 -0.22824242 204.77175758 -0.22824242 207 2 C139.02 2 71.04 2 1 2 C1 3.65 1 5.3 1 7 C2.55881551 6.99585193 2.55881551 6.99585193 4.14912224 6.99162006 C29.40238365 6.92510506 54.65563374 6.87576256 79.90896416 6.84456348 C92.12114444 6.82907592 104.33326695 6.80795041 116.54541016 6.77368164 C127.18599584 6.74383702 137.8265397 6.72443875 148.46716607 6.71773452 C154.10448451 6.71381387 159.74168328 6.70456078 165.37896347 6.68280983 C170.6795848 6.6625226 175.98003659 6.6561504 181.28069305 6.66067696 C183.23105667 6.65984826 185.18142567 6.6538366 187.13175583 6.64238358 C189.78497887 6.62756074 192.43755321 6.63100867 195.09078979 6.63923645 C196.2610086 6.62612866 196.2610086 6.62612866 197.4548682 6.61275607 C199.59919548 6.63085651 199.59919548 6.63085651 203 7 C203.99 8.485 203.99 8.485 205 10 C121.18 10 37.36 10 -49 10 C-49.33 9.34 -49.66 8.68 -50 8 C-33.5 8 -17 8 0 8 C0 5.36 0 2.72 0 0 Z " fill="#D46267" transform="translate(250,6)"/>
<path d="M0 0 C103.95 0.495 103.95 0.495 210 1 C209.01 1.33 208.02 1.66 207 2 C206.67 2.99 206.34 3.98 206 5 C138.02 5 70.04 5 0 5 C0 3.35 0 1.7 0 0 Z " fill="#D91C22" transform="translate(251,8)"/>
<path d="M0 0 C1.08667969 0.11085937 2.17335938 0.22171875 3.29296875 0.3359375 C4.12441406 0.43132812 4.95585938 0.52671875 5.8125 0.625 C6.64237184 6.40484725 6.96003241 11.99727128 6.9453125 17.83203125 C6.94674759 19.10284798 6.94674759 19.10284798 6.94821167 20.39933777 C6.9488876 22.17499873 6.9470746 23.95066225 6.94287109 25.72631836 C6.93748087 28.44715866 6.94285308 31.16783641 6.94921875 33.88867188 C6.94855852 35.61979203 6.94727849 37.35091209 6.9453125 39.08203125 C6.94733673 39.89452835 6.94936096 40.70702545 6.95144653 41.54414368 C6.93773493 44.82728525 6.85804644 47.48836068 5.8125 50.625 C1.1925 50.625 -3.4275 50.625 -8.1875 50.625 C-10.43830591 44.99798523 -10.43830591 44.99798523 -10.37036133 41.05004883 C-10.35987259 40.17596878 -10.34938385 39.30188873 -10.33857727 38.40132141 C-10.31579208 37.47095566 -10.2930069 36.5405899 -10.26953125 35.58203125 C-10.25162033 34.61722336 -10.23370941 33.65241547 -10.21525574 32.65837097 C-10.17415636 30.62507825 -10.12759503 28.59188952 -10.07592773 26.55883789 C-10.00002155 23.43838597 -9.95120161 20.31827244 -9.90429688 17.19726562 C-9.86101406 15.22131758 -9.81614709 13.24540347 -9.76953125 11.26953125 C-9.75686722 10.3330928 -9.74420319 9.39665436 -9.7311554 8.43183899 C-9.69178108 7.13490364 -9.69178108 7.13490364 -9.65161133 5.81176758 C-9.63447586 5.04963455 -9.61734039 4.28750153 -9.59968567 3.50227356 C-8.50925925 -1.46400458 -3.91739774 -0.42122556 0 0 Z " fill="#333333" transform="translate(101.1875,222.375)"/>
<path d="M0 0 C0.33 -0.66 0.66 -1.32 1 -2 C3.31243792 -2.02685412 5.6249627 -2.04632841 7.9375 -2.0625 C9.22527344 -2.07410156 10.51304687 -2.08570313 11.83984375 -2.09765625 C15 -2 15 -2 16 -1 C16.09831146 0.49870048 16.12798456 2.00198539 16.12939453 3.50390625 C16.13254669 4.46159912 16.13569885 5.41929199 16.13894653 6.40600586 C16.1369223 7.44764893 16.13489807 8.48929199 16.1328125 9.5625 C16.13376923 10.62412354 16.13472595 11.68574707 16.13571167 12.77954102 C16.13639364 15.02913472 16.13453819 17.27873037 16.13037109 19.52832031 C16.1250231 22.98507071 16.13031554 26.44169117 16.13671875 29.8984375 C16.13605797 32.07812529 16.13477682 34.257813 16.1328125 36.4375 C16.13483673 37.47914307 16.13686096 38.52078613 16.13894653 39.59399414 C16.13421829 41.03053345 16.13421829 41.03053345 16.12939453 42.49609375 C16.12859894 43.34357178 16.12780334 44.1910498 16.12698364 45.06420898 C16 47 16 47 15 48 C12.64686445 48.07271741 10.29166332 48.08370868 7.9375 48.0625 C6.64714844 48.05347656 5.35679687 48.04445313 4.02734375 48.03515625 C3.02832031 48.02355469 2.02929688 48.01195312 1 48 C0.67 47.01 0.34 46.02 0 45 C-0.474375 45.474375 -0.94875 45.94875 -1.4375 46.4375 C-5.71485168 49.04564127 -10.23115227 49.47236241 -15.15234375 48.6328125 C-20.60569942 46.93714337 -24.05619081 43.85132418 -27 39 C-30.46308524 31.56416792 -30.341141 24.06103538 -30 16 C-29.67 16 -29.34 16 -29 16 C-28.67 21.61 -28.34 27.22 -28 33 C-27.34 33.33 -26.68 33.66 -26 34 C-25.67 34.66 -25.34 35.32 -25 36 C-24.34 36 -23.68 36 -23 36 C-23 35.34 -23 34.68 -23 34 C-20.69 34.33 -18.38 34.66 -16 35 C-16.34786708 33.02463255 -16.34786708 33.02463255 -17 31 C-17.66 30.67 -18.32 30.34 -19 30 C-20.33059914 26.00820257 -19.81502739 23.73682109 -18 20 C-17.34 20 -16.68 20 -16 20 C-15.505 15.545 -15.505 15.545 -15 11 C-11.98509443 9.99503148 -9.95818308 9.89664697 -6.8125 9.9375 C-5.91144531 9.94652344 -5.01039063 9.95554688 -4.08203125 9.96484375 C-3.39496094 9.97644531 -2.70789063 9.98804688 -2 10 C-1.67 10.99 -1.34 11.98 -1 13 C-2.98567708 12.70703125 -4.97135417 12.4140625 -6.95703125 12.12109375 C-9.2025342 11.86095201 -9.2025342 11.86095201 -12 13 C-15.05477705 17.50070485 -14.39092963 22.79011086 -14 28 C-13.14284151 31.50829714 -13.14284151 31.50829714 -12 34 C-7.98645732 34.39348458 -5.62598986 34.34629226 -2.0625 32.375 C1.25713604 26.9428683 0.37789892 21.20594005 0 15 C0.66 15.33 1.32 15.66 2 16 C2.05807043 19.10408807 2.09361914 22.2080364 2.125 25.3125 C2.14175781 26.19357422 2.15851563 27.07464844 2.17578125 27.98242188 C2.18544922 29.25375977 2.18544922 29.25375977 2.1953125 30.55078125 C2.21102295 31.72120972 2.21102295 31.72120972 2.22705078 32.9152832 C2 35 2 35 0 38 C-0.66 38 -1.32 38 -2 38 C-2.99 38.495 -2.99 38.495 -4 39 C-3.67 39.99 -3.34 40.98 -3 42 C-1.515 41.505 -1.515 41.505 0 41 C0.66 41.33 1.32 41.66 2 42 C2 43.32 2 44.64 2 46 C5.96 46 9.92 46 14 46 C14 30.82 14 15.64 14 0 C10.04 0 6.08 0 2 0 C2 0.99 2 1.98 2 3 C-0.38564077 2.42415568 -2.66682784 1.77772405 -5 1 C-7.31019336 0.87929731 -9.6241874 0.824637 -11.9375 0.8125 C-13.77634766 0.79123047 -13.77634766 0.79123047 -15.65234375 0.76953125 C-18.75643812 0.98323203 -20.41362551 1.36001818 -23 3 C-21.4142815 0.35713583 -20.20323888 -0.89590204 -17.4375 -2.3125 C-11.3856643 -3.52286714 -5.42719509 -3.05123411 0 0 Z " fill="#D32021" transform="translate(245,225)"/>
<path d="M0 0 C5.51765889 6.50202996 9.90125237 13.34118299 10.6640625 21.9609375 C9.1640625 20.5859375 9.1640625 20.5859375 7.6640625 18.9609375 C7.6640625 18.3009375 7.6640625 17.6409375 7.6640625 16.9609375 C6.6740625 16.6309375 5.6840625 16.3009375 4.6640625 15.9609375 C3.9765625 13.8984375 3.9765625 13.8984375 3.6640625 11.9609375 C3.0040625 11.9609375 2.3440625 11.9609375 1.6640625 11.9609375 C2.0146875 12.6828125 2.3653125 13.4046875 2.7265625 14.1484375 C3.76815267 17.273208 3.55502822 18.84255746 2.6640625 21.9609375 C1.11959749 19.64423998 0.08237248 17.71277004 -1.0234375 15.2109375 C-6.12678933 5.07846442 -15.28059726 0.40537172 -25.70703125 -3.20703125 C-26.57457031 -3.48160156 -27.44210937 -3.75617187 -28.3359375 -4.0390625 C-27.6965625 -4.3278125 -27.0571875 -4.6165625 -26.3984375 -4.9140625 C-24.18387671 -5.86729701 -24.18387671 -5.86729701 -23.3359375 -8.0390625 C-91.3159375 -8.3690625 -159.2959375 -8.6990625 -229.3359375 -9.0390625 C-229.3359375 -9.3690625 -229.3359375 -9.6990625 -229.3359375 -10.0390625 C-202.72818471 -10.19301149 -176.12040471 -10.34104344 -149.51257992 -10.4820261 C-137.15819013 -10.54762439 -124.80381661 -10.61516088 -112.44946289 -10.68725586 C-101.68176505 -10.75008685 -90.91405443 -10.80928566 -80.14631277 -10.86411804 C-74.44459333 -10.89327978 -68.7428969 -10.9242636 -63.04121208 -10.95959663 C-57.6741537 -10.99279863 -52.30709155 -11.02114239 -46.93998718 -11.04576874 C-44.97075991 -11.05565913 -43.00154062 -11.06732075 -41.03233528 -11.08089256 C-38.34165978 -11.09917076 -35.65102806 -11.11104765 -32.96031189 -11.12135315 C-32.18305738 -11.12815694 -31.40580287 -11.13496073 -30.60499519 -11.14197069 C-19.15691388 -11.16543735 -8.56236739 -7.9718593 0 0 Z " fill="#CE1F25" transform="translate(481.3359375,18.0390625)"/>
<path d="M0 0 C3.3 0.33 6.6 0.66 10 1 C10 1.66 10 2.32 10 3 C10.99 3.33 11.98 3.66 13 4 C13 4.66 13 5.32 13 6 C11.68 6 10.36 6 9 6 C9 8.97 9 11.94 9 15 C9.99 14.67 10.98 14.34 12 14 C12 24.56 12 35.12 12 46 C7.71 46 3.42 46 -1 46 C-1 45.34 -1 44.68 -1 44 C-1.66 44 -2.32 44 -3 44 C-3 39.05 -3 34.1 -3 29 C-2.01 29 -1.02 29 0 29 C0 23.06 0 17.12 0 11 C0.66 10.67 1.32 10.34 2 10 C1.67 9.34 1.34 8.68 1 8 C0.67 8 0.34 8 0 8 C0 5.36 0 2.72 0 0 Z " fill="#D21819" transform="translate(267,225)"/>
<path d="M0 0 C0.99 0.495 0.99 0.495 2 1 C2.18097874 27.3332464 2.34557371 53.66658492 2.5 80 C2.50594854 81.01161839 2.51189708 82.02323678 2.51802588 83.06551027 C2.9728176 160.60641978 3.08842819 238.14552909 3.0625 315.6875 C3.06207577 316.99407059 3.06165154 318.30064117 3.06121445 319.64680481 C3.05016822 353.09787699 3.03013313 386.54893963 3 420 C2.01 420 1.02 420 0 420 C0 281.4 0 142.8 0 0 Z " fill="#B73133" transform="translate(484,40)"/>
<path d="M0 0 C67.65 0 135.3 0 205 0 C205 2.64 205 5.28 205 8 C192.46 8.33 179.92 8.66 167 9 C166.01 6.03 166.01 6.03 165 3 C165.66 3 166.32 3 167 3 C167 2.34 167 1.68 167 1 C111.89 1 56.78 1 0 1 C0 0.67 0 0.34 0 0 Z " fill="#131313" transform="translate(45,6)"/>
<path d="M0 0 C3.76300241 1.48769863 4.3966355 3.76802609 5.98828125 7.34765625 C6.21902344 7.91355469 6.44976562 8.47945313 6.6875 9.0625 C5.6975 9.0625 4.7075 9.0625 3.6875 9.0625 C4.6775 10.5475 4.6775 10.5475 5.6875 12.0625 C6.55375 11.5675 7.42 11.0725 8.3125 10.5625 C14.0782724 8.01983018 20.52708491 8.83180484 26.6875 9.0625 C26.6875 9.7225 26.6875 10.3825 26.6875 11.0625 C27.326875 11.289375 27.96625 11.51625 28.625 11.75 C30.6875 13.0625 30.6875 13.0625 31.4375 15.6875 C31.52 16.47125 31.6025 17.255 31.6875 18.0625 C30.0375 17.7325 28.3875 17.4025 26.6875 17.0625 C26.6875 18.0525 26.6875 19.0425 26.6875 20.0625 C18.2725 20.5575 18.2725 20.5575 9.6875 21.0625 C9.6875 21.3925 9.6875 21.7225 9.6875 22.0625 C2.64563615 21.80643222 -1.92059274 19.60361322 -7.3125 15.0625 C-9.09375 13.00390625 -9.09375 13.00390625 -10.3125 11.0625 C-10 8.8125 -10 8.8125 -9.3125 7.0625 C-8.6525 7.0625 -7.9925 7.0625 -7.3125 7.0625 C-7.3125 6.4025 -7.3125 5.7425 -7.3125 5.0625 C-6.6525 5.0625 -5.9925 5.0625 -5.3125 5.0625 C-5.003125 4.423125 -4.69375 3.78375 -4.375 3.125 C-2.80419435 0.07578904 -2.80419435 0.07578904 0 0 Z " fill="#D31E1F" transform="translate(171.3125,250.9375)"/>
<path d="M0 0 C6.0546875 0.9765625 6.0546875 0.9765625 8 2 C10.09926726 6.79726919 10.26558683 11.31089145 10.1953125 16.4609375 C10.1924826 17.25150543 10.18965271 18.04207336 10.18673706 18.8565979 C10.17560955 21.36289084 10.15051926 23.86881645 10.125 26.375 C10.11496058 28.08202606 10.10583641 29.78905777 10.09765625 31.49609375 C10.07569463 35.6642024 10.04121671 39.83203908 10 44 C6.7 44 3.4 44 0 44 C-0.33 33.11 -0.66 22.22 -1 11 C-1.66 11 -2.32 11 -3 11 C-3 10.34 -3 9.68 -3 9 C-4.98 8.34 -6.96 7.68 -9 7 C-8.67 6.34 -8.34 5.68 -8 5 C-6.68 5 -5.36 5 -4 5 C-1.73122465 2.58119071 -1.73122465 2.58119071 0 0 Z " fill="#D51817" transform="translate(319,227)"/>
<path d="M0 0 C1.19177856 -0.00426498 2.38355713 -0.00852997 3.6114502 -0.01292419 C5.5829454 -0.01224442 5.5829454 -0.01224442 7.5942688 -0.0115509 C8.98707164 -0.01454181 10.37987365 -0.01794418 11.77267456 -0.02172852 C15.56196447 -0.03058024 19.35123181 -0.03290714 23.14053106 -0.0335443 C26.30159435 -0.03449265 29.46265235 -0.03817014 32.62371361 -0.0417164 C40.08102378 -0.04986561 47.53832188 -0.05230023 54.99563599 -0.05158997 C62.6925319 -0.05098922 70.38935771 -0.06153935 78.08623588 -0.07733363 C84.69010908 -0.09040297 91.29395935 -0.09577411 97.89784539 -0.09513456 C101.84389782 -0.09487937 105.78988801 -0.09774204 109.73592758 -0.10831261 C113.44755406 -0.11798328 117.15905865 -0.1180799 120.87068939 -0.11079597 C122.88332203 -0.10924919 124.89595462 -0.1176043 126.90856934 -0.12623596 C128.10598755 -0.12204147 129.30340576 -0.11784698 130.53710938 -0.11352539 C131.5779814 -0.11407016 132.61885342 -0.11461493 133.69126701 -0.1151762 C136.42149663 0.13610185 138.06663925 0.73033144 140.39553833 2.13371277 C140.39553833 2.46371277 140.39553833 2.79371277 140.39553833 3.13371277 C115.21437226 4.46601846 90.00767325 4.28775774 64.79983521 4.26408386 C58.59145151 4.2583365 52.38311059 4.26171107 46.17472839 4.26765633 C41.34296346 4.27127936 36.5112086 4.27011621 31.67944336 4.26752853 C29.38950597 4.26686672 27.09956763 4.26766127 24.80963135 4.27000809 C2.03751136 4.28826761 2.03751136 4.28826761 -7.60446167 3.13371277 C-7.60446167 2.47371277 -7.60446167 1.81371277 -7.60446167 1.13371277 C-4.95609859 -0.19046877 -2.96693534 0.00478034 0 0 Z " fill="#525252" transform="translate(58.604461669921875,11.866287231445313)"/>
<path d="M0 0 C2.234375 0.6796875 2.234375 0.6796875 4.75 1.875 C9.17697081 3.80936555 12.21433501 4.41614478 17 4 C17.33 5.32 17.66 6.64 18 8 C22.455 8.99 22.455 8.99 27 10 C26.01 10.33 25.02 10.66 24 11 C24 11.66 24 12.32 24 13 C23.01 13.804375 22.02 14.60875 21 15.4375 C20.01 16.283125 19.02 17.12875 18 18 C18 18.99 18 19.98 18 21 C17.01 20.34 16.02 19.68 15 19 C12.59623936 18.68890527 12.59623936 18.68890527 9.9375 18.625 C4.06534589 18.21003444 -0.69831424 16.47258664 -6 14 C-6 12.02 -6 10.04 -6 8 C-7.65 7.67 -9.3 7.34 -11 7 C-11 5.68 -11 4.36 -11 3 C-10.01 3.495 -10.01 3.495 -9 4 C-9.33 4.66 -9.66 5.32 -10 6 C-7.69 6.33 -5.38 6.66 -3 7 C-3.0928125 5.824375 -3.0928125 5.824375 -3.1875 4.625 C-3.125625 3.75875 -3.06375 2.8925 -3 2 C-2.01 1.34 -1.02 0.68 0 0 Z " fill="#D21B1A" transform="translate(177,226)"/>
<path d="M0 0 C-0.66 0.78375 -1.32 1.5675 -2 2.375 C-4.20201441 4.71512812 -4.20201441 4.71512812 -4 7 C-3.01 7.33 -2.02 7.66 -1 8 C-2.155 8.515625 -3.31 9.03125 -4.5 9.5625 C-12.56831525 13.62526867 -18.72607996 19.32199345 -21.6796875 27.99609375 C-22.16589874 29.65121008 -22.58966359 31.32445965 -23 33 C-23.66 33 -24.32 33 -25 33 C-25.33 33.66 -25.66 34.32 -26 35 C-27.175625 34.7215625 -27.175625 34.7215625 -28.375 34.4375 C-30.97089775 33.74037734 -30.97089775 33.74037734 -33 35 C-33.57374261 28.6382069 -31.84996315 24.62727498 -28.75 19.125 C-28.30615967 18.33287109 -27.86231934 17.54074219 -27.4050293 16.72460938 C-22.55075623 8.54863741 -16.48023314 2.83443594 -7.2890625 -0.2421875 C-4.2445599 -0.94365247 -2.8426681 -1.13706724 0 0 Z " fill="#393939" transform="translate(40,9)"/>
<path d="M0 0 C4.59366748 6.06129287 5.15290814 11.64746743 5.1328125 19.01171875 C5.13376923 19.78054886 5.13472595 20.54937897 5.13571167 21.34150696 C5.13639056 22.96115196 5.13455663 24.58079972 5.13037109 26.20043945 C5.1249967 28.68902622 5.13033714 31.1774343 5.13671875 33.66601562 C5.13605835 35.23958373 5.13477797 36.81315173 5.1328125 38.38671875 C5.13483673 39.13459152 5.13686096 39.88246429 5.13894653 40.65299988 C5.11496623 45.88503377 5.11496623 45.88503377 4 47 C-0.62 47 -5.24 47 -10 47 C-10.33 35.45 -10.66 23.9 -11 12 C-10.34 12 -9.68 12 -9 12 C-7.51320275 14.97359449 -7.88887395 17.66299179 -7.90234375 20.9765625 C-7.9037587 21.66181 -7.90517365 22.3470575 -7.90663147 23.05307007 C-7.91223325 25.24375761 -7.92478594 27.4343433 -7.9375 29.625 C-7.94251478 31.10937352 -7.94707772 32.59374865 -7.95117188 34.078125 C-7.96220323 37.71878315 -7.97946901 41.35938164 -8 45 C-4.7 45 -1.4 45 2 45 C1.88205478 39.89118974 1.75782953 34.78258636 1.62768555 29.67407227 C1.58427427 27.93485712 1.54260388 26.19559765 1.50268555 24.45629883 C1.44513232 21.96161512 1.3813958 19.4671559 1.31640625 16.97265625 C1.29969376 16.19036148 1.28298126 15.40806671 1.26576233 14.60206604 C1.49351269 11.00128219 1.49351269 11.00128219 0 8 C-0.04063832 6.33382885 -0.042721 4.66611905 0 3 C-3.98791205 2.11382379 -3.98791205 2.11382379 -8 2 C-10.22168366 4.38118166 -10.22168366 4.38118166 -12 7 C-14.75 7.3125 -14.75 7.3125 -17 7 C-16.67 5.35 -16.34 3.7 -16 2 C-15.01 1.67 -14.02 1.34 -13 1 C-12.67 0.34 -12.34 -0.32 -12 -1 C-14.31 -1 -16.62 -1 -19 -1 C-19 -0.34 -19 0.32 -19 1 C-19.99 1 -20.98 1 -22 1 C-22 1.99 -22 2.98 -22 4 C-22.99 4.33 -23.98 4.66 -25 5 C-25.66 4.67 -26.32 4.34 -27 4 C-26.67 2.68 -26.34 1.36 -26 0 C-25.01 0 -24.02 0 -23 0 C-21.32580562 -0.9873454 -19.65948148 -1.98812105 -18 -3 C-12.19807227 -5.40079768 -4.95734601 -3.38000864 0 0 Z " fill="#CE2221" transform="translate(327,226)"/>
<path d="M0 0 C0.33 0 0.66 0 1 0 C1 43.89 1 87.78 1 133 C0.67 133 0.34 133 0 133 C-0.33 117.49 -0.66 101.98 -1 86 C-1.33 86 -1.66 86 -2 86 C-2.04627069 75.08231971 -2.08184233 64.16466262 -2.10362434 53.24690437 C-2.1140768 48.17775137 -2.12826257 43.10866527 -2.15087891 38.03955078 C-2.17255528 33.15070815 -2.1845576 28.26193002 -2.18975449 23.37304306 C-2.19345963 21.50465758 -2.20069449 19.63627577 -2.21146011 17.76791763 C-2.22590594 15.15786261 -2.22798086 12.54807663 -2.22705078 9.93798828 C-2.23424133 9.1597168 -2.24143188 8.38144531 -2.24884033 7.57958984 C-2.22810432 2.22810432 -2.22810432 2.22810432 0 0 Z " fill="#555555" transform="translate(15,59)"/>
<path d="M0 0 C3.13705568 1.78049106 4.91055347 3.53357922 6 7 C5.91587397 10.95392326 5.25601197 12.67084175 2.8125 15.8125 C-0.35570886 18.27666245 -2.00130245 19 -6 19 C-9.08416816 17.70895286 -10.7277602 16.30736752 -12.9375 13.8125 C-14.25550209 10.32367094 -13.95084642 8.38020854 -12.85546875 4.875 C-10.07877645 -1.21090093 -5.98169429 -1.63137117 0 0 Z " fill="#303030" transform="translate(104,201)"/>
<path d="M0 0 C10.74255034 3.96966396 17.23970045 11.79935811 22 22 C22.71875 25.90625 22.71875 25.90625 23 29 C21.5 27.625 21.5 27.625 20 26 C20 25.34 20 24.68 20 24 C19.01 23.67 18.02 23.34 17 23 C16.3125 20.9375 16.3125 20.9375 16 19 C15.34 19 14.68 19 14 19 C14.350625 19.721875 14.70125 20.44375 15.0625 21.1875 C16.10409017 24.3122705 15.89096572 25.88161996 15 29 C13.45553499 26.68330248 12.41830998 24.75183254 11.3125 22.25 C6.65065649 12.99412162 -0.78315829 9.13168766 -10 5 C-10 4.67 -10 4.34 -10 4 C-6.6875 3.3125 -6.6875 3.3125 -3 3 C-1.0625 4.4375 -1.0625 4.4375 0 6 C0 4.02 0 2.04 0 0 Z " fill="#CE393C" transform="translate(469,11)"/>
<path d="M0 0 C9.07733923 0.75644494 14.92575751 4.31833326 21 11 C19.6095501 14.10442031 17.98428402 16.3656443 15.625 18.8125 C15.03976563 19.43769531 14.45453125 20.06289062 13.8515625 20.70703125 C12 22 12 22 9.90625 21.8203125 C8 21 8 21 5.875 19.0625 C1.86710122 16.18726827 -2.18874227 15.71001085 -7 15 C-6.67 14.34 -6.34 13.68 -6 13 C-3.67711188 12.60689586 -1.38154824 12.49250305 0.96875 12.34375 C1.6390625 12.2303125 2.309375 12.116875 3 12 C3.33 11.34 3.66 10.68 4 10 C4.33 9.67 4.66 9.34 5 9 C4.90128638 6.50417589 4.90128638 6.50417589 4 4 C2.03241727 2.63979849 2.03241727 2.63979849 0 2 C0 1.34 0 0.68 0 0 Z " fill="#D31F20" transform="translate(190,200)"/>
<path d="M0 0 C0.33 -0.66 0.66 -1.32 1 -2 C3.31243792 -2.02685412 5.6249627 -2.04632841 7.9375 -2.0625 C9.22527344 -2.07410156 10.51304687 -2.08570313 11.83984375 -2.09765625 C15 -2 15 -2 16 -1 C16.09831146 0.49870048 16.12798456 2.00198539 16.12939453 3.50390625 C16.13254669 4.46159912 16.13569885 5.41929199 16.13894653 6.40600586 C16.1369223 7.44764893 16.13489807 8.48929199 16.1328125 9.5625 C16.13376923 10.62412354 16.13472595 11.68574707 16.13571167 12.77954102 C16.13639364 15.02913472 16.13453819 17.27873037 16.13037109 19.52832031 C16.1250231 22.98507071 16.13031554 26.44169117 16.13671875 29.8984375 C16.13605797 32.07812529 16.13477682 34.257813 16.1328125 36.4375 C16.13483673 37.47914307 16.13686096 38.52078613 16.13894653 39.59399414 C16.13421829 41.03053345 16.13421829 41.03053345 16.12939453 42.49609375 C16.12859894 43.34357178 16.12780334 44.1910498 16.12698364 45.06420898 C16 47 16 47 15 48 C12.64686445 48.07271741 10.29166332 48.08370868 7.9375 48.0625 C6.64714844 48.05347656 5.35679687 48.04445313 4.02734375 48.03515625 C3.02832031 48.02355469 2.02929688 48.01195312 1 48 C0.67 47.01 0.34 46.02 0 45 C-0.474375 45.474375 -0.94875 45.94875 -1.4375 46.4375 C-5.5745034 48.96006305 -10.53543388 49.52329828 -15.28125 48.515625 C-15.8484375 48.34546875 -16.415625 48.1753125 -17 48 C-17 47.34 -17 46.68 -17 46 C-12.71 46 -8.42 46 -4 46 C-4 45.34 -4 44.68 -4 44 C-3.01 44 -2.02 44 -1 44 C-1 43.34 -1 42.68 -1 42 C-0.01 42 0.98 42 2 42 C2 43.32 2 44.64 2 46 C5.96 46 9.92 46 14 46 C14 30.82 14 15.64 14 0 C10.04 0 6.08 0 2 0 C2 0.99 2 1.98 2 3 C-0.38564077 2.42415568 -2.66682784 1.77772405 -5 1 C-7.31019336 0.87929731 -9.6241874 0.824637 -11.9375 0.8125 C-13.77634766 0.79123047 -13.77634766 0.79123047 -15.65234375 0.76953125 C-18.75643812 0.98323203 -20.41362551 1.36001818 -23 3 C-21.4142815 0.35713583 -20.20323888 -0.89590204 -17.4375 -2.3125 C-11.3856643 -3.52286714 -5.42719509 -3.05123411 0 0 Z " fill="#D85B5B" transform="translate(245,225)"/>
<path d="M0 0 C0.3403125 0.928125 0.3403125 0.928125 0.6875 1.875 C2.37929835 4.61410209 3.99244161 5.05024472 7 6 C4.56410848 14.66094763 -3.80644899 21.20429933 -11 26 C-11.99 26 -12.98 26 -14 26 C-13.67 24.35 -13.34 22.7 -13 21 C-15.97 21 -18.94 21 -22 21 C-19 19 -19 19 -16.73046875 17.73828125 C-8.69185653 13.23122524 -3.74081333 8.52074147 0 0 Z " fill="#D03D47" transform="translate(482,463)"/>
<path d="M0 0 C1.98 0 3.96 0 6 0 C6 0.33 6 0.66 6 1 C4.35 1 2.7 1 1 1 C1 1.99 1 2.98 1 4 C34 4 67 4 101 4 C101 4.33 101 4.66 101 5 C96.05 5.33 91.1 5.66 86 6 C86 6.33 86 6.66 86 7 C57.62 7 29.24 7 0 7 C0 4.69 0 2.38 0 0 Z " fill="#E45054" transform="translate(251,487)"/>
<path d="M0 0 C-12.64953943 5.7360161 -26.29947817 4.50527072 -39.86328125 4.390625 C-42.46786564 4.38315416 -45.07245569 4.37746522 -47.67704773 4.37347412 C-53.80017495 4.36111872 -59.92301117 4.32839988 -66.04601115 4.28807616 C-73.02558226 4.24312447 -80.00516842 4.22131307 -86.98484862 4.20129442 C-101.32338765 4.159659 -115.66168344 4.08945438 -130 4 C-130 3.67 -130 3.34 -130 3 C-129.25023895 2.98969254 -128.50047791 2.97938507 -127.72799683 2.96876526 C-107.24629599 2.68625571 -86.76491469 2.38560339 -66.28375244 2.06640625 C-62.34722887 2.00514919 -58.4106762 1.94591606 -54.47412109 1.88671875 C-49.12670382 1.80515125 -43.77953997 1.71411104 -38.43243408 1.61422729 C-36.54230971 1.58015995 -34.6521284 1.54909789 -32.76190186 1.52127075 C-23.49211752 1.38252153 -14.57525501 1.08208396 -5.44897461 -0.67993164 C-3 -1 -3 -1 0 0 Z " fill="#E86A6C" transform="translate(468,490)"/>
<path d="M0 0 C2.31 0.33 4.62 0.66 7 1 C5.84386065 5.53562362 4.39098471 9.01502548 2 13 C1.27833809 15.31691454 0.59940471 17.64848923 0 20 C-0.66 20 -1.32 20 -2 20 C-2.33 20.66 -2.66 21.32 -3 22 C-3.78375 21.814375 -4.5675 21.62875 -5.375 21.4375 C-7.97089775 20.74037734 -7.97089775 20.74037734 -10 22 C-10.93387043 14.99597181 -8.02533044 9.66092699 -4 4 C-3.01 3.67 -2.02 3.34 -1 3 C-0.67 2.01 -0.34 1.02 0 0 Z " fill="#363636" transform="translate(17,22)"/>
<path d="M0 0 C2.31 0 4.62 0 7 0 C7.33 0.66 7.66 1.32 8 2 C8.639375 2.226875 9.27875 2.45375 9.9375 2.6875 C12 4 12 4 13.25 7.625 C13.4975 8.73875 13.745 9.8525 14 11 C13.34 11 12.68 11 12 11 C11.67 11.66 11.34 12.32 11 13 C10.01 13 9.02 13 8 13 C2.97073137 13.31098227 2.97073137 13.31098227 -1 16 C-1.33 15.01 -1.66 14.02 -2 13 C-3.65 13.66 -5.3 14.32 -7 15 C-7 14.34 -7 13.68 -7 13 C-6.34 13 -5.68 13 -5 13 C-4.731875 11.96875 -4.46375 10.9375 -4.1875 9.875 C-3.19001103 6.3514958 -1.7338102 3.23119173 0 0 Z " fill="#D21717" transform="translate(183,200)"/>
<path d="M0 0 C0.33 0 0.66 0 1 0 C1 29.7 1 59.4 1 90 C-1.54499414 87.45500586 -1.29567157 86.42778182 -1.4140625 82.890625 C-1.45289551 81.83617187 -1.49172852 80.78171875 -1.53173828 79.6953125 C-1.57790283 77.98988281 -1.57790283 77.98988281 -1.625 76.25 C-1.66222168 75.08726562 -1.69944336 73.92453125 -1.73779297 72.7265625 C-1.9616026 65.15210207 -2.09720891 57.57770386 -2.125 50 C-2.12967285 49.13665039 -2.1343457 48.27330078 -2.13916016 47.38378906 C-2.12891988 43.33651815 -1.97341816 39.37499511 -1.52734375 35.3515625 C-0.76346617 28.38117961 -0.64154089 21.37901593 -0.4375 14.375 C-0.39419373 12.97525068 -0.35057613 11.57551096 -0.30664062 10.17578125 C-0.20137645 6.78393549 -0.09923991 3.39202646 0 0 Z " fill="#5B5B5B" transform="translate(15,193)"/>
<path d="M0 0 C0.66 0 1.32 0 2 0 C2.02465098 4.96622349 2.04283649 9.93241166 2.05493164 14.89868164 C2.0599719 16.58944316 2.06680405 18.28020029 2.07543945 19.97094727 C2.08751857 22.39600707 2.09323123 24.82100944 2.09765625 27.24609375 C2.10281754 28.00651474 2.10797882 28.76693573 2.11329651 29.55039978 C2.11349238 31.3673257 2.06197277 33.18413127 2 35 C1.505 35.495 1.505 35.495 1 36 C-3.62 36 -8.24 36 -13 36 C-13.495 18.675 -13.495 18.675 -14 1 C-13.34 1 -12.68 1 -12 1 C-10.51320275 3.97359449 -10.88887395 6.66299179 -10.90234375 9.9765625 C-10.90446617 11.00443375 -10.90446617 11.00443375 -10.90663147 12.05307007 C-10.91223325 14.24375761 -10.92478594 16.4343433 -10.9375 18.625 C-10.94251478 20.10937352 -10.94707772 21.59374865 -10.95117188 23.078125 C-10.96220323 26.71878315 -10.97946901 30.35938164 -11 34 C-7.37 34 -3.74 34 0 34 C0 22.78 0 11.56 0 0 Z " fill="#C95153" transform="translate(330,237)"/>
<path d="M0 0 C0.74886475 0.00523682 1.49772949 0.01047363 2.26928711 0.01586914 C3.07817383 0.0190918 3.88706055 0.02231445 4.72045898 0.02563477 C5.5705957 0.03401367 6.42073242 0.04239258 7.29663086 0.05102539 C8.15063477 0.05553711 9.00463867 0.06004883 9.88452148 0.06469727 C12.00108749 0.07652166 14.11761771 0.0944577 16.23413086 0.11352539 C16.23413086 2.44685872 16.23413086 4.78019206 16.23413086 7.11352539 C12.60413086 7.44352539 8.97413086 7.77352539 5.23413086 8.11352539 C5.23413086 8.44352539 5.23413086 8.77352539 5.23413086 9.11352539 C-4.66586914 9.11352539 -14.56586914 9.11352539 -24.76586914 9.11352539 C-24.76586914 8.78352539 -24.76586914 8.45352539 -24.76586914 8.11352539 C-15.85586914 7.78352539 -6.94586914 7.45352539 2.23413086 7.11352539 C0.91413086 6.45352539 -0.40586914 5.79352539 -1.76586914 5.11352539 C-2.57836914 3.05102539 -2.57836914 3.05102539 -2.76586914 1.11352539 C-1.76586914 0.11352539 -1.76586914 0.11352539 0 0 Z " fill="#2C2C2C" transform="translate(195.765869140625,6.886474609375)"/>
<path d="M0 0 C-0.33 0.99 -0.66 1.98 -1 3 C-2.32 3 -3.64 3 -5 3 C-5 2.34 -5 1.68 -5 1 C-7.31 1.33 -9.62 1.66 -12 2 C-12 1.34 -12 0.68 -12 0 C-12.99 0 -13.98 0 -15 0 C-14.74438677 2.3431213 -14.40729228 4.67843403 -14 7 C-13.34 7.33 -12.68 7.66 -12 8 C-12.33 9.32 -12.66 10.64 -13 12 C-13.66 11.67 -14.32 11.34 -15 11 C-15 16.94 -15 22.88 -15 29 C-15.66 29 -16.32 29 -17 29 C-17.17102128 25.87522287 -17.33598493 22.75015208 -17.5 19.625 C-17.54769531 18.75488281 -17.59539062 17.88476562 -17.64453125 16.98828125 C-18.31032492 4.1479748 -18.31032492 4.1479748 -18 -1 C-16.21875471 -2.78124529 -13.66926031 -2.50217333 -11.25 -2.75 C-9.67992187 -2.92789063 -9.67992187 -2.92789063 -8.078125 -3.109375 C-4.53500755 -2.98347743 -2.84466984 -2.04394796 0 0 Z " fill="#D43C3D" transform="translate(282,225)"/>
<path d="M0 0 C0.33 0 0.66 0 1 0 C1 13.86 1 27.72 1 42 C0.34 42 -0.32 42 -1 42 C-1.33 42.66 -1.66 43.32 -2 44 C-2.04934399 38.05518819 -2.08569282 32.11049491 -2.10986328 26.16552734 C-2.11993671 24.14206873 -2.13359595 22.11862472 -2.15087891 20.09521484 C-2.17506847 17.19104411 -2.18646949 14.28706539 -2.1953125 11.3828125 C-2.20563507 10.47443634 -2.21595764 9.56606018 -2.22659302 8.63015747 C-2.22674408 7.78943695 -2.22689514 6.94871643 -2.22705078 6.08251953 C-2.231492 5.34083527 -2.23593323 4.599151 -2.24050903 3.83499146 C-2 2 -2 2 0 0 Z " fill="#454645" transform="translate(15,59)"/>
<path d="M0 0 C0.875 2.5 0.875 2.5 1 5 C0.67 5.66 0.34 6.32 0 7 C-3 6 -3 6 -4 5 C-5.85287502 4.92773498 -7.70833878 4.9161878 -9.5625 4.9375 C-10.57441406 4.94652344 -11.58632813 4.95554687 -12.62890625 4.96484375 C-13.41136719 4.97644531 -14.19382812 4.98804688 -15 5 C-15.33 4.34 -15.66 3.68 -16 3 C-15.360625 2.87625 -14.72125 2.7525 -14.0625 2.625 C-13.381875 2.41875 -12.70125 2.2125 -12 2 C-11.67 1.34 -11.34 0.68 -11 0 C-23.87 -0.495 -23.87 -0.495 -37 -1 C-37 -1.33 -37 -1.66 -37 -2 C-32.97962032 -2.19820989 -28.95869488 -2.3816467 -24.9375 -2.5625 C-23.80376953 -2.61857422 -22.67003906 -2.67464844 -21.50195312 -2.73242188 C-5.81160109 -3.41858887 -5.81160109 -3.41858887 0 0 Z " fill="#CB2D32" transform="translate(469,10)"/>
<path d="M0 0 C1.32 0 2.64 0 4 0 C4 11.22 4 22.44 4 34 C7.96 34 11.92 34 16 34 C16.33 33.01 16.66 32.02 17 31 C16.67 32.65 16.34 34.3 16 36 C11.38 36 6.76 36 2 36 C0.85504794 13.01917654 0.85504794 13.01917654 1.0625 4.046875 C1.14126198 1.93276793 1.14126198 1.93276793 0 0 Z " fill="#D13D3D" transform="translate(289,237)"/>
<path d="M0 0 C0.90105469 0.00902344 1.80210937 0.01804688 2.73046875 0.02734375 C3.41753906 0.03894531 4.10460937 0.05054688 4.8125 0.0625 C5.1425 1.0525 5.4725 2.0425 5.8125 3.0625 C3.82682292 2.76953125 1.84114583 2.4765625 -0.14453125 2.18359375 C-2.3900342 1.92345201 -2.3900342 1.92345201 -5.1875 3.0625 C-8.24227705 7.56320485 -7.57842963 12.85261086 -7.1875 18.0625 C-6.33034151 21.57079714 -6.33034151 21.57079714 -5.1875 24.0625 C-3.2075 24.3925 -1.2275 24.7225 0.8125 25.0625 C0.8125 25.7225 0.8125 26.3825 0.8125 27.0625 C-4.05573725 25.88740825 -6.66815283 24.6953745 -10.1875 21.0625 C-10.8475 20.7325 -11.5075 20.4025 -12.1875 20.0625 C-13.51809914 16.07070257 -13.00252739 13.79932109 -11.1875 10.0625 C-10.5275 10.0625 -9.8675 10.0625 -9.1875 10.0625 C-8.8575 7.0925 -8.5275 4.1225 -8.1875 1.0625 C-5.17259443 0.05753148 -3.14568308 -0.04085303 0 0 Z " fill="#D13333" transform="translate(238.1875,234.9375)"/>
<path d="M0 0 C1.98 0 3.96 0 6 0 C6 0.66 6 1.32 6 2 C6.639375 2.226875 7.27875 2.45375 7.9375 2.6875 C10 4 10 4 10.75 6.625 C10.87375 7.800625 10.87375 7.800625 11 9 C8.525 8.505 8.525 8.505 6 8 C6 8.99 6 9.98 6 11 C5.34 10.67 4.68 10.34 4 10 C4.33 9.01 4.66 8.02 5 7 C-1.93 6.505 -1.93 6.505 -9 6 C-8.34 4.68 -7.68 3.36 -7 2 C-3.23312136 2 -2.08809695 2.23537317 1 4 C0.67 2.68 0.34 1.36 0 0 Z " fill="#D31718" transform="translate(192,260)"/>
<path d="M0 0 C0.33 -0.66 0.66 -1.32 1 -2 C5.62 -2 10.24 -2 15 -2 C14.67 -1.34 14.34 -0.68 14 0 C10.04 0 6.08 0 2 0 C2 0.99 2 1.98 2 3 C-0.38564077 2.42415568 -2.66682784 1.77772405 -5 1 C-7.31019336 0.87929731 -9.6241874 0.824637 -11.9375 0.8125 C-13.77634766 0.79123047 -13.77634766 0.79123047 -15.65234375 0.76953125 C-18.75643812 0.98323203 -20.41362551 1.36001818 -23 3 C-21.4142815 0.35713583 -20.20323888 -0.89590204 -17.4375 -2.3125 C-11.3856643 -3.52286714 -5.42719509 -3.05123411 0 0 Z " fill="#C54144" transform="translate(245,225)"/>
<path d="M0 0 C2.475 0.495 2.475 0.495 5 1 C1.00548726 5.76764424 -2.87029219 7.85067979 -9 9 C-13.01548186 9.22200981 -16.98382363 9.18348014 -21 9 C-21 8.34 -21 7.68 -21 7 C-22.32 6.67 -23.64 6.34 -25 6 C-18.07 6 -11.14 6 -4 6 C-4 5.01 -4 4.02 -4 3 C-2.68 3 -1.36 3 0 3 C0 2.01 0 1.02 0 0 Z " fill="#D14143" transform="translate(202,265)"/>
<path d="M0 0 C0.33 0 0.66 0 1 0 C1.33 5.61 1.66 11.22 2 17 C2.66 17.33 3.32 17.66 4 18 C4 18.66 4 19.32 4 20 C6.31 20.33 8.62 20.66 11 21 C10.34 22.32 9.68 23.64 9 25 C10.65 25 12.3 25 14 25 C12.515 27.475 12.515 27.475 11 30 C6.46121492 28.48707164 4.24959146 25.00633957 2 21 C-0.50382246 14.08468083 -0.2000614 7.29112669 0 0 Z " fill="#D34041" transform="translate(215,241)"/>
<path d="M0 0 C6.04433574 1.35997554 9.63494136 4.85651794 14 9 C12.63760782 11.84223197 11.44766831 13.96027641 9 16 C8.34 16 7.68 16 7 16 C7 14.02 7 12.04 7 10 C6.34 9.67 5.68 9.34 5 9 C5.33 7.68 5.66 6.36 6 5 C4.35 5.33 2.7 5.66 1 6 C1.33 5.34 1.66 4.68 2 4 C2.66 4 3.32 4 4 4 C4 3.34 4 2.68 4 2 C2.68 2 1.36 2 0 2 C0 1.34 0 0.68 0 0 Z " fill="#CD2323" transform="translate(197,202)"/>
<path d="M0 0 C0.33 0.66 0.66 1.32 1 2 C0.06553465 4.03144641 -0.93224776 6.03533587 -2 8 C-2.66 8 -3.32 8 -4 8 C-4 8.66 -4 9.32 -4 10 C-4.99 10 -5.98 10 -7 10 C-7 12.97 -7 15.94 -7 19 C-8.32 19.33 -9.64 19.66 -11 20 C-10.67 18.35 -10.34 16.7 -10 15 C-12.97 15 -15.94 15 -19 15 C-16 13 -16 13 -13.73046875 11.73828125 C-7.92138899 8.48127032 -4.03139401 5.30446581 0 0 Z " fill="#CD3338" transform="translate(479,469)"/>
<path d="M0 0 C0.99 0 1.98 0 3 0 C3 1.32 3 2.64 3 4 C7.29 4.33 11.58 4.66 16 5 C16 5.33 16 5.66 16 6 C11.38 6 6.76 6 2 6 C1.67 5.01 1.34 4.02 1 3 C0.525625 3.474375 0.05125 3.94875 -0.4375 4.4375 C-4.5745034 6.96006305 -9.53543388 7.52329828 -14.28125 6.515625 C-14.8484375 6.34546875 -15.415625 6.1753125 -16 6 C-16 5.34 -16 4.68 -16 4 C-11.71 4 -7.42 4 -3 4 C-3 3.34 -3 2.68 -3 2 C-2.01 2 -1.02 2 0 2 C0 1.34 0 0.68 0 0 Z " fill="#D36768" transform="translate(244,267)"/>
<path d="M0 0 C1.65 0 3.3 0 5 0 C5.33 0.99 5.66 1.98 6 3 C5.67 3.66 5.34 4.32 5 5 C4.34 5 3.68 5 3 5 C2.67 6.32 2.34 7.64 2 9 C-4.15234375 8.4140625 -4.15234375 8.4140625 -6 8 C-6.33 7.34 -6.66 6.68 -7 6 C-5.35 5.34 -3.7 4.68 -2 4 C-2 3.34 -2 2.68 -2 2 C-1.34 2 -0.68 2 0 2 C0 1.34 0 0.68 0 0 Z " fill="#3B3B3B" transform="translate(41,484)"/>
<path d="M0 0 C0.66 0 1.32 0 2 0 C2.87226626 4.41125902 3.05766677 8.4408123 2.87890625 12.9296875 C2.83056641 14.21875 2.78222656 15.5078125 2.73242188 16.8359375 C2.67591408 18.18229725 2.61927179 19.52865136 2.5625 20.875 C2.50920597 22.24477001 2.45646622 23.6145617 2.40429688 24.984375 C2.27497734 28.32317023 2.14002445 31.66163941 2 35 C1.67 35 1.34 35 1 35 C0.69016988 30.17658589 0.38716259 25.35281105 0.09057617 20.52856445 C-0.01137084 18.88619318 -0.11520827 17.24393814 -0.22094727 15.60180664 C-0.37228153 13.24653396 -0.51689568 10.89093203 -0.66015625 8.53515625 C-0.70906509 7.79660904 -0.75797394 7.05806183 -0.80836487 6.2971344 C-0.91232538 4.53332896 -0.96173509 2.76645216 -1 1 C-0.67 0.67 -0.34 0.34 0 0 Z " fill="#47313C" transform="translate(155,224)"/>
<path d="M0 0 C0.33 0 0.66 0 1 0 C1 1.65 1 3.3 1 5 C-2.59462331 7.25998595 -5.56595675 7.20868087 -9.75 7.125 C-11.50570312 7.09792969 -11.50570312 7.09792969 -13.296875 7.0703125 C-14.63492188 7.03550781 -14.63492188 7.03550781 -16 7 C-16.33 7.66 -16.66 8.32 -17 9 C-17.99 9 -18.98 9 -20 9 C-20.33 8.01 -20.66 7.02 -21 6 C-20.34 5.67 -19.68 5.34 -19 5 C-19.33 4.01 -19.66 3.02 -20 2 C-19.28972656 2.32226562 -18.57945312 2.64453125 -17.84765625 2.9765625 C-13.28334435 4.61695992 -8.78658484 4.63427781 -4 4 C-1.36483958 2.20808542 -1.36483958 2.20808542 0 0 Z " fill="#D44B48" transform="translate(196,254)"/>
<path d="M0 0 C1.98 0.66 3.96 1.32 6 2 C3.53846154 7.66153846 3.53846154 7.66153846 0.8125 9.375 C0.214375 9.58125 -0.38375 9.7875 -1 10 C-2.20628008 7.66785852 -3.1654738 5.50357861 -4 3 C-3.67 2.34 -3.34 1.68 -3 1 C-2.34 1 -1.68 1 -1 1 C-0.67 1.99 -0.34 2.98 0 4 C0 2.68 0 1.36 0 0 Z " fill="#3A3A3A" transform="translate(10,455)"/>
<path d="M0 0 C0.33 0.66 0.66 1.32 1 2 C1.99 2 2.98 2 4 2 C5.37310707 3.29233607 6.71034824 4.62437146 8 6 C8.33 6 8.66 6 9 6 C9 7.65 9 9.3 9 11 C0.89669421 9.01239669 0.89669421 9.01239669 -1 6 C-1.25 3.375 -1.25 3.375 -1 1 C-0.67 0.67 -0.34 0.34 0 0 Z " fill="#D31C20" transform="translate(475,17)"/>
<path d="M0 0 C1.41377341 2.63904371 2.37240135 5.07120629 3 8 C1.35 8.33 -0.3 8.66 -2 9 C-2 9.99 -2 10.98 -2 12 C-2.99 12 -3.98 12 -5 12 C-4.67 12.66 -4.34 13.32 -4 14 C-5.65 14 -7.3 14 -9 14 C-8.67 12.68 -8.34 11.36 -8 10 C-7.01 10 -6.02 10 -5 10 C-5 9.34 -5 8.68 -5 8 C-4.54625 7.566875 -4.0925 7.13375 -3.625 6.6875 C-1.65690769 4.64371183 -0.93273129 2.65469676 0 0 Z " fill="#D41F21" transform="translate(480,469)"/>
<path d="M0 0 C9 0 9 0 11 1 C10.67 1.66 10.34 2.32 10 3 C8.8553125 2.6596875 8.8553125 2.6596875 7.6875 2.3125 C5.0465141 1.70931635 5.0465141 1.70931635 3.36401367 3.10668945 C1.45540766 5.75591795 1.56745209 7.73446424 1.48828125 10.98046875 C1.45283203 12.14384766 1.41738281 13.30722656 1.38085938 14.50585938 C1.35830078 15.72080078 1.33574219 16.93574219 1.3125 18.1875 C1.27833984 19.41404297 1.24417969 20.64058594 1.20898438 21.90429688 C1.1264059 24.93610678 1.05728631 27.96762379 1 31 C0.67 31 0.34 31 0 31 C0 20.77 0 10.54 0 0 Z " fill="#E56D6D" transform="translate(305,235)"/>
<path d="M0 0 C-11.53339419 4.87449113 -22.69811122 4.43065721 -35 4 C-35 3.67 -35 3.34 -35 3 C-28.73 3 -22.46 3 -16 3 C-16 2.34 -16 1.68 -16 1 C-13.8973294 0.63705686 -11.79278943 0.28493028 -9.6875 -0.0625 C-8.51574219 -0.25972656 -7.34398437 -0.45695312 -6.13671875 -0.66015625 C-3 -1 -3 -1 0 0 Z " fill="#E2999D" transform="translate(468,490)"/>
<path d="M0 0 C-0.33 0.99 -0.66 1.98 -1 3 C-2.32 3 -3.64 3 -5 3 C-5 2.34 -5 1.68 -5 1 C-7.31 1.33 -9.62 1.66 -12 2 C-12 1.34 -12 0.68 -12 0 C-13.65 -0.33 -15.3 -0.66 -17 -1 C-17 -1.33 -17 -1.66 -17 -2 C-15.10688117 -2.25060425 -13.21022961 -2.47460633 -11.3125 -2.6875 C-9.72888672 -2.87892578 -9.72888672 -2.87892578 -8.11328125 -3.07421875 C-4.53073409 -2.98881298 -2.86936166 -2.070838 0 0 Z " fill="#D64A52" transform="translate(282,225)"/>
<path d="M0 0 C0.33 0 0.66 0 1 0 C1 12.21 1 24.42 1 37 C0.01 37 -0.98 37 -2 37 C-1.76228882 35.9941687 -1.76228882 35.9941687 -1.51977539 34.96801758 C-0.90517852 31.45855112 -0.78293267 28.07372849 -0.68359375 24.51171875 C-0.66281265 23.80852005 -0.64203156 23.10532135 -0.62062073 22.3808136 C-0.55559885 20.14980183 -0.49646224 17.91867931 -0.4375 15.6875 C-0.39426964 14.16860866 -0.35065395 12.64972823 -0.30664062 11.13085938 C-0.19996666 7.4206888 -0.09856779 3.71039579 0 0 Z " fill="#D12B2E" transform="translate(486,423)"/>
<path d="M0 0 C2.31 0.33 4.62 0.66 7 1 C6.34 3.31 5.68 5.62 5 8 C1.62496331 6.8141763 -0.64722731 5.72426311 -3 3 C-2.34 3 -1.68 3 -1 3 C-0.67 2.01 -0.34 1.02 0 0 Z " fill="#272727" transform="translate(17,22)"/>
<path d="M0 0 C0.90105469 0.00902344 1.80210937 0.01804688 2.73046875 0.02734375 C3.41753906 0.03894531 4.10460937 0.05054688 4.8125 0.0625 C5.1425 1.0525 5.4725 2.0425 5.8125 3.0625 C3.82682292 2.76953125 1.84114583 2.4765625 -0.14453125 2.18359375 C-2.3900342 1.92345201 -2.3900342 1.92345201 -5.1875 3.0625 C-7.28683662 6.17580192 -7.5488817 9.12184376 -7.8125 12.8125 C-7.88726562 13.79734375 -7.96203125 14.7821875 -8.0390625 15.796875 C-8.11253906 16.91835937 -8.11253906 16.91835937 -8.1875 18.0625 C-8.5175 18.0625 -8.8475 18.0625 -9.1875 18.0625 C-9.21471176 16.16674749 -9.23399136 14.27088021 -9.25 12.375 C-9.26160156 11.31925781 -9.27320313 10.26351562 -9.28515625 9.17578125 C-9.19615425 6.33839738 -8.83689838 3.8186081 -8.1875 1.0625 C-5.17259443 0.05753148 -3.14568308 -0.04085303 0 0 Z " fill="#C84648" transform="translate(238.1875,234.9375)"/>
<path d="M0 0 C0 0.33 0 0.66 0 1 C-6.435 1.495 -6.435 1.495 -13 2 C-13 2.66 -13 3.32 -13 4 C-13.99 4 -14.98 4 -16 4 C-16 4.99 -16 5.98 -16 7 C-16.99 7.33 -17.98 7.66 -19 8 C-19.66 7.67 -20.32 7.34 -21 7 C-20.67 5.68 -20.34 4.36 -20 3 C-19.01 3 -18.02 3 -17 3 C-15.32580562 2.0126546 -13.65948148 1.01187895 -12 0 C-8.0323606 -1.64178182 -4.13015694 -0.61952354 0 0 Z " fill="#CE6062" transform="translate(321,223)"/>
<path d="M0 0 C1.65 0 3.3 0 5 0 C5 0.99 5 1.98 5 3 C4.34 3 3.68 3 3 3 C3.350625 3.721875 3.70125 4.44375 4.0625 5.1875 C5.10409017 8.3122705 4.89096572 9.88161996 4 13 C-1.16483516 5.25274725 -1.16483516 5.25274725 -0.6875 1.625 C-0.460625 1.08875 -0.23375 0.5525 0 0 Z " fill="#D12729" transform="translate(480,27)"/>
<path d="M0 0 C1.11375 0.33 2.2275 0.66 3.375 1 C6.69459717 2.088643 6.69459717 2.088643 9 2 C9 2.66 9 3.32 9 4 C4.49646738 5.75747614 0.82360189 6.19294408 -4 6 C-4.33 5.34 -4.66 4.68 -5 4 C-3.68 4 -2.36 4 -1 4 C-0.67 2.68 -0.34 1.36 0 0 Z " fill="#505050" transform="translate(131,267)"/>
<path d="M0 0 C-5.94 -0.33 -11.88 -0.66 -18 -1 C-12.70325635 -6.29674365 -5.31075466 -3.98306599 0 0 Z " fill="#CC5657" transform="translate(300,226)"/>
<path d="M0 0 C0 1.32 0 2.64 0 4 C-0.66 4 -1.32 4 -2 4 C-2 4.66 -2 5.32 -2 6 C-8.96428571 8.27678571 -8.96428571 8.27678571 -13 7 C-12.43410156 6.80664062 -11.86820312 6.61328125 -11.28515625 6.4140625 C-10.55167969 6.15367187 -9.81820313 5.89328125 -9.0625 5.625 C-7.96615234 5.24214844 -7.96615234 5.24214844 -6.84765625 4.8515625 C-4.81317884 4.14728587 -4.81317884 4.14728587 -4 2 C-4.99 2.33 -5.98 2.66 -7 3 C-7.99 2.34 -8.98 1.68 -10 1 C-6.61981469 -0.04005702 -3.5219721 -0.08004482 0 0 Z " fill="#D11F26" transform="translate(470,483)"/>
<path d="M0 0 C2.97 0.495 2.97 0.495 6 1 C6 1.66 6 2.32 6 3 C5.34 3 4.68 3 4 3 C4 3.66 4 4.32 4 5 C2.02 5.99 0.04 6.98 -2 8 C-2.6875 6.25 -2.6875 6.25 -3 4 C-1.5625 1.75 -1.5625 1.75 0 0 Z " fill="#212121" transform="translate(35,483)"/>
<path d="M0 0 C2.64 0.66 5.28 1.32 8 2 C8 2.33 8 2.66 8 3 C6.02 3 4.04 3 2 3 C2 3.66 2 4.32 2 5 C1.01 5.495 1.01 5.495 0 6 C0 6.99 0 7.98 0 9 C-1.65 8.67 -3.3 8.34 -5 8 C-4.34 7.34 -3.68 6.68 -3 6 C-3.33 5.34 -3.66 4.68 -4 4 C-3.34 4 -2.68 4 -2 4 C-1.34 2.68 -0.68 1.36 0 0 Z " fill="#4E4E4E" transform="translate(33,481)"/>
<path d="M0 0 C0.66 0.33 1.32 0.66 2 1 C1.67 1.99 1.34 2.98 1 4 C-0.32 4 -1.64 4 -3 4 C-3 4.66 -3 5.32 -3 6 C-2.34 6.33 -1.68 6.66 -1 7 C-1.99 7.99 -2.98 8.98 -4 10 C-4.99 8.68 -5.98 7.36 -7 6 C-3.375 1.125 -3.375 1.125 0 0 Z " fill="#3A3A3A" transform="translate(26,475)"/>
<path d="M0 0 C0.66 0 1.32 0 2 0 C3.0257259 4.41062136 3.03684712 6.92630576 1 11 C0.67 11 0.34 11 0 11 C-0.33 9.35 -0.66 7.7 -1 6 C-2.65 6 -4.3 6 -6 6 C-5.67 5.01 -5.34 4.02 -5 3 C-5 3.66 -5 4.32 -5 5 C-3.00016466 4.20882096 -3.00016466 4.20882096 -1 3 C-0.67 2.01 -0.34 1.02 0 0 Z " fill="#D74649" transform="translate(489,457)"/>
<path d="M0 0 C5.28 0.33 10.56 0.66 16 1 C16 1.66 16 2.32 16 3 C12.04 3 8.08 3 4 3 C4 2.34 4 1.68 4 1 C2.68 0.67 1.36 0.34 0 0 Z " fill="#D24F53" transform="translate(177,271)"/>
<path d="M0 0 C1.76100758 3.40461465 3 6.09349661 3 10 C2.01 10.33 1.02 10.66 0 11 C-0.66 10.34 -1.32 9.68 -2 9 C-1.45652174 2.91304348 -1.45652174 2.91304348 0 0 Z " fill="#DA373A" transform="translate(482,463)"/>
<path d="M0 0 C4.09806991 -0.20837644 7.07163509 -0.33579156 10.9375 1.0625 C13.83144285 3.78105237 13.78140783 6.13820495 14 10 C13.46375 9.236875 12.9275 8.47375 12.375 7.6875 C9.76142456 4.73003306 7.58680411 3.5692268 4 2 C2.66666667 1.33333333 1.33333333 0.66666667 0 0 Z " fill="#D36163" transform="translate(184,244)"/>
<path d="M0 0 C0.33 0 0.66 0 1 0 C2.17402193 7.33763707 2.09377123 14.58165418 2 22 C1.67 22 1.34 22 1 22 C-0.5832711 14.38459684 -1.26092312 7.70185475 0 0 Z " fill="#4F4F4F" transform="translate(14,223)"/>
<path d="M0 0 C0.33 0 0.66 0 1 0 C1.103125 0.9075 1.20625 1.815 1.3125 2.75 C3.370357 6.71328016 4.52871725 6.91316867 8.625 8.375 C10.40966637 8.93930325 12.19958125 9.48817527 14 10 C12.02 10.99 12.02 10.99 10 12 C9.67 11.34 9.34 10.68 9 10 C7.865625 9.855625 6.73125 9.71125 5.5625 9.5625 C4.386875 9.376875 3.21125 9.19125 2 9 C-0.29013653 5.5647952 -0.17842973 4.014669 0 0 Z " fill="#D45557" transform="translate(177,219)"/>
<path d="M0 0 C-1.32 1.65 -2.64 3.3 -4 5 C-4.66 4.34 -5.32 3.68 -6 3 C-7.98356483 2.28591666 -9.98315437 1.61382258 -12 1 C-12 0.67 -12 0.34 -12 0 C-7.74433453 -1.16063604 -4.3164922 -0.76173392 0 0 Z " fill="#5B5B5A" transform="translate(456,224)"/>
<path d="M0 0 C0.33 0.66 0.66 1.32 1 2 C0.06553465 4.03144641 -0.93224776 6.03533587 -2 8 C-2.66 8 -3.32 8 -4 8 C-4 8.66 -4 9.32 -4 10 C-5.65 10 -7.3 10 -9 10 C-8.2575 9.278125 -7.515 8.55625 -6.75 7.8125 C-4.30709485 5.31407427 -2.1318953 2.76356798 0 0 Z " fill="#D35055" transform="translate(479,469)"/>
<path d="M0 0 C4.99911924 0.47610659 7.97832683 2.03162219 12 5 C11.34 5.66 10.68 6.32 10 7 C10 6.34 10 5.68 10 5 C9.36191406 4.89042969 8.72382813 4.78085938 8.06640625 4.66796875 C7.24011719 4.50941406 6.41382813 4.35085937 5.5625 4.1875 C4.73878906 4.03667969 3.91507813 3.88585937 3.06640625 3.73046875 C2.38449219 3.48941406 1.70257813 3.24835938 1 3 C0.67 2.01 0.34 1.02 0 0 Z " fill="#CD4E50" transform="translate(194,231)"/>
<path d="M0 0 C-0.33 1.65 -0.66 3.3 -1 5 C-3.50357861 4.1654738 -5.66785852 3.20628008 -8 2 C-8 1.34 -8 0.68 -8 0 C-2.25 -1.125 -2.25 -1.125 0 0 Z " fill="#D81E22" transform="translate(470,12)"/>
<path d="M0 0 C0.66 0.66 1.32 1.32 2 2 C1.34 2 0.68 2 0 2 C0 2.66 0 3.32 0 4 C-4.90567888 4.28301994 -7.24528933 4.16492205 -11 1 C-9.20991533 0.77848451 -7.41781838 0.57317787 -5.625 0.375 C-4.62726562 0.25898438 -3.62953125 0.14296875 -2.6015625 0.0234375 C-1.74304687 0.01570312 -0.88453125 0.00796875 0 0 Z " fill="#454545" transform="translate(64,228)"/>
<path d="M0 0 C1.27875 -0.061875 2.5575 -0.12375 3.875 -0.1875 C4.95394531 -0.23970703 4.95394531 -0.23970703 6.0546875 -0.29296875 C6.69664062 -0.19628906 7.33859375 -0.09960938 8 0 C8.66 0.99 9.32 1.98 10 3 C9.34 4.32 8.68 5.64 8 7 C7.7525 6.360625 7.505 5.72125 7.25 5.0625 C6.20265017 2.82123176 6.20265017 2.82123176 4 2.375 C3.34 2.25125 2.68 2.1275 2 2 C1.34 1.34 0.68 0.68 0 0 Z " fill="#3D3D3D" transform="translate(368,258)"/>
<path d="M0 0 C2.0625 0.4375 2.0625 0.4375 4 1 C0.484375 5.6875 0.484375 5.6875 -1 7 C-2.32 7 -3.64 7 -5 7 C-5 6.34 -5 5.68 -5 5 C-4.34 5 -3.68 5 -3 5 C-2.5359375 4.0409375 -2.5359375 4.0409375 -2.0625 3.0625 C-1 1 -1 1 0 0 Z " fill="#D25253" transform="translate(169,251)"/>
<path d="M0 0 C1.8125 0.1875 1.8125 0.1875 4 1 C5.875 3.3125 5.875 3.3125 7 6 C6.1875 8.3125 6.1875 8.3125 5 10 C4 9 4 9 3.9375 6.4375 C3.958125 5.633125 3.97875 4.82875 4 4 C2.68 3.34 1.36 2.68 0 2 C0 1.34 0 0.68 0 0 Z " fill="#CC4B4F" transform="translate(323,225)"/>
<path d="M0 0 C0.33 0 0.66 0 1 0 C0.67 2.64 0.34 5.28 0 8 C-2.31 7.67 -4.62 7.34 -7 7 C-7 6.34 -7 5.68 -7 5 C-5.35 5 -3.7 5 -2 5 C-1.34 3.35 -0.68 1.7 0 0 Z " fill="#CB1E1F" transform="translate(246,255)"/>
<path d="M0 0 C7.50769231 -0.36923077 7.50769231 -0.36923077 10 1.5 C10.495 2.2425 10.495 2.2425 11 3 C8.2780754 4.3609623 6.8168043 3.70366248 3.875 3.0625 C2.96492187 2.86785156 2.05484375 2.67320312 1.1171875 2.47265625 C0.41851562 2.31667969 -0.28015625 2.16070312 -1 2 C-0.67 1.34 -0.34 0.68 0 0 Z " fill="#C5393B" transform="translate(184,213)"/>
<path d="M0 0 C0 0.66 0 1.32 0 2 C-0.66 2 -1.32 2 -2 2 C-2 2.66 -2 3.32 -2 4 C-2.99 4.33 -3.98 4.66 -5 5 C-5.99 4.01 -6.98 3.02 -8 2 C-4.77208445 -0.1519437 -3.71599191 -0.20086443 0 0 Z " fill="#676767" transform="translate(102,200)"/>
<path d="M0 0 C0 2.64 0 5.28 0 8 C-0.66 8 -1.32 8 -2 8 C-2.33 6.35 -2.66 4.7 -3 3 C-3.99 3.495 -3.99 3.495 -5 4 C-5 3.34 -5 2.68 -5 2 C-5.99 1.67 -6.98 1.34 -8 1 C-1.125 0 -1.125 0 0 0 Z " fill="#33191B" transform="translate(250,6)"/>
<path d="M0 0 C-0.66 1.65 -1.32 3.3 -2 5 C-5.02485781 4.4118332 -8.01386614 3.75929472 -11 3 C-9.73160474 2.49384702 -8.46016898 1.99530901 -7.1875 1.5 C-6.12595703 1.08234375 -6.12595703 1.08234375 -5.04296875 0.65625 C-3 0 -3 0 0 0 Z " fill="#CD4748" transform="translate(183,200)"/>
<path d="M0 0 C2.64 0 5.28 0 8 0 C8.33 0.99 8.66 1.98 9 3 C6.03 2.67 3.06 2.34 0 2 C0 1.34 0 0.68 0 0 Z " fill="#D25A5D" transform="translate(228,271)"/>
<path d="M0 0 C0.66 0 1.32 0 2 0 C3.625 2.5 3.625 2.5 5 5 C3.02 5.33 1.04 5.66 -1 6 C-1.042721 4.33388095 -1.04063832 2.66617115 -1 1 C-0.67 0.67 -0.34 0.34 0 0 Z " fill="#484848" transform="translate(78,234)"/>
<path d="M0 0 C1.43088528 2.86177057 0.59991697 4.93375773 0 8 C-0.99 8.33 -1.98 8.66 -3 9 C-3.33 8.01 -3.66 7.02 -4 6 C-2.0625 2.8125 -2.0625 2.8125 0 0 Z " fill="#C73131" transform="translate(221,228)"/>
<path d="M0 0 C2.97 0.495 2.97 0.495 6 1 C6.33 2.32 6.66 3.64 7 5 C6.01 5.495 6.01 5.495 5 6 C3.31237149 4.3545622 1.6459651 2.68711423 0 1 C0 0.67 0 0.34 0 0 Z " fill="#D1473F" transform="translate(165,233)"/>
<path d="M0 0 C1.5843317 0.08768248 3.16753567 0.19587329 4.75 0.3125 C6.07257813 0.39951172 6.07257813 0.39951172 7.421875 0.48828125 C10.32303774 1.0641181 11.79225607 2.07596148 14 4 C10.7997785 4 8.38516529 3.36757608 5.3125 2.5 C4.31863281 2.2215625 3.32476562 1.943125 2.30078125 1.65625 C1.54152344 1.4396875 0.78226563 1.223125 0 1 C0 0.67 0 0.34 0 0 Z " fill="#DA7171" transform="translate(231,222)"/>
<path d="M0 0 C3.77545388 1.09068668 6.47043472 1.9083091 9 5 C8.01 5 7.02 5 6 5 C4.32900023 5.31088368 2.66128463 5.64080332 1 6 C1.33 5.34 1.66 4.68 2 4 C2.66 4 3.32 4 4 4 C4 3.34 4 2.68 4 2 C2.68 2 1.36 2 0 2 C0 1.34 0 0.68 0 0 Z " fill="#CC4242" transform="translate(197,202)"/>
<path d="M0 0 C0.66 0.33 1.32 0.66 2 1 C1.67 1.99 1.34 2.98 1 4 C1.99 4.33 2.98 4.66 4 5 C3.67 6.32 3.34 7.64 3 9 C0.9375 6.75 0.9375 6.75 -1 4 C-0.75 1.6875 -0.75 1.6875 0 0 Z " fill="#CA615D" transform="translate(162,258)"/>
<path d="M0 0 C0.66 0 1.32 0 2 0 C0.68775452 3.93673644 -0.91910327 6.22719294 -4 9 C-4 7.35 -4 5.7 -4 4 C-3.01 3.67 -2.02 3.34 -1 3 C-0.67 2.01 -0.34 1.02 0 0 Z " fill="#4A4A4A" transform="translate(86,259)"/>
<path d="M0 0 C1.65 0.99 3.3 1.98 5 3 C4.67 3.99 4.34 4.98 4 6 C2.125 5.6875 2.125 5.6875 0 5 C-0.66 4.01 -1.32 3.02 -2 2 C-1.34 1.34 -0.68 0.68 0 0 Z " fill="#D05757" transform="translate(198,216)"/>
<path d="M0 0 C0.33 0.99 0.66 1.98 1 3 C-0.375 4.5 -0.375 4.5 -2 6 C-2.66 6 -3.32 6 -4 6 C-4.33 4.68 -4.66 3.36 -5 2 C-2 0 -2 0 0 0 Z " fill="#D12F2E" transform="translate(181,213)"/>
<path d="M0 0 C2.475 0.495 2.475 0.495 5 1 C5 2.32 5 3.64 5 5 C3.35 4.67 1.7 4.34 0 4 C0 2.68 0 1.36 0 0 Z " fill="#232323" transform="translate(425,267)"/>
<path d="M0 0 C0.99 0 1.98 0 3 0 C3.33 0.99 3.66 1.98 4 3 C4.99 3.33 5.98 3.66 7 4 C7.6875 6.0625 7.6875 6.0625 8 8 C3.79373966 6.49776416 2.26099979 3.71449966 0 0 Z " fill="#D24E52" transform="translate(218,263)"/>
<path d="M0 0 C4.455 0.99 4.455 0.99 9 2 C9 2.33 9 2.66 9 3 C5.66666667 3 2.33333333 3 -1 3 C-0.67 2.01 -0.34 1.02 0 0 Z " fill="#4D4D4D" transform="translate(66,201)"/>
<path d="M0 0 C1.125 1.6875 1.125 1.6875 1.125 3.6875 C-1.845 2.6975 -4.815 1.7075 -7.875 0.6875 C-7.875 0.3575 -7.875 0.0275 -7.875 -0.3125 C-2.36911765 -1.65838235 -2.36911765 -1.65838235 0 0 Z " fill="#D45659" transform="translate(466.875,15.3125)"/>
<path d="M0 0 C2.0625 0.4375 2.0625 0.4375 4 1 C2.92598892 3.91517292 2.22189824 5.77810176 0 8 C-0.38063221 5.6739143 -0.71269945 3.33944736 -1 1 C-0.67 0.67 -0.34 0.34 0 0 Z " fill="#D55759" transform="translate(485,468)"/>
<path d="M0 0 C0.33 0.66 0.66 1.32 1 2 C0.67 2.99 0.34 3.98 0 5 C-0.99 5.33 -1.98 5.66 -3 6 C-3.66 5.67 -4.32 5.34 -5 5 C-4.67 3.68 -4.34 2.36 -4 1 C-3.01 1 -2.02 1 -1 1 C-0.67 0.67 -0.34 0.34 0 0 Z " fill="#D15559" transform="translate(305,225)"/>
<path d="M0 0 C0 0.99 0 1.98 0 3 C-0.99 3.66 -1.98 4.32 -3 5 C-2.67 5.66 -2.34 6.32 -2 7 C-3.65 7.66 -5.3 8.32 -7 9 C-7 8.01 -7 7.02 -7 6 C-6.34 6 -5.68 6 -5 6 C-4.731875 5.38125 -4.46375 4.7625 -4.1875 4.125 C-3 2 -3 2 0 0 Z " fill="#4E4E4E" transform="translate(387,224)"/>
<path d="M0 0 C1.65 1.32 3.3 2.64 5 4 C4.34 5.32 3.68 6.64 3 8 C0.4345406 5.4345406 0.45953913 3.52313332 0 0 Z " fill="#D45459" transform="translate(206,207)"/>
<path d="M0 0 C3.57104439 1.87949705 5.54744301 3.17053157 7 7 C6.01 7.495 6.01 7.495 5 8 C5 7.34 5 6.68 5 6 C4.01 5.67 3.02 5.34 2 5 C2 4.01 2 3.02 2 2 C1.34 2 0.68 2 0 2 C0 1.34 0 0.68 0 0 Z " fill="#D67075" transform="translate(477,16)"/>
<path d="M0 0 C0.66 0 1.32 0 2 0 C2.33 0.99 2.66 1.98 3 3 C2.67 3.66 2.34 4.32 2 5 C1.34 5 0.68 5 0 5 C-0.33 5.99 -0.66 6.98 -1 8 C-1.93065133 5.39417629 -2.14917407 4.35801776 -1.0625 1.75 C-0.711875 1.1725 -0.36125 0.595 0 0 Z " fill="#323232" transform="translate(44,484)"/>
<path d="M0 0 C0.66 0.33 1.32 0.66 2 1 C2 1.66 2 2.32 2 3 C-1.83887763 4.48320272 -4.06204091 5.22419163 -8 4 C-6.71349294 3.30289269 -5.42059335 2.61757124 -4.125 1.9375 C-3.40570313 1.55464844 -2.68640625 1.17179687 -1.9453125 0.77734375 C-1.30335938 0.52082031 -0.66140625 0.26429688 0 0 Z " fill="#D05F68" transform="translate(468,479)"/>
<path d="M0 0 C0.66 0.33 1.32 0.66 2 1 C1.2884375 1.6496875 1.2884375 1.6496875 0.5625 2.3125 C-1.23686957 4.02309613 -1.23686957 4.02309613 -2 7 C-2.99 7.33 -3.98 7.66 -5 8 C-4.64950425 4.75791433 -4.43778819 3.38472296 -1.9375 1.1875 C-1.298125 0.795625 -0.65875 0.40375 0 0 Z " fill="#CE1921" transform="translate(226,225)"/>
<path d="M0 0 C0.33 0 0.66 0 1 0 C1 2.64 1 5.28 1 8 C-0.32 8 -1.64 8 -3 8 C-2.01 5.36 -1.02 2.72 0 0 Z " fill="#303030" transform="translate(85,217)"/>
<path d="M0 0 C0 1.65 0 3.3 0 5 C-1.98 5.99 -1.98 5.99 -4 7 C-4.66 6.34 -5.32 5.68 -6 5 C-1.125 0 -1.125 0 0 0 Z " fill="#CC383A" transform="translate(197,254)"/>
<path d="M0 0 C1.32 0 2.64 0 4 0 C3.67 3.96 3.34 7.92 3 12 C2.67 12 2.34 12 2 12 C1.93941406 11.30132812 1.87882812 10.60265625 1.81640625 9.8828125 C1.73261719 8.97273437 1.64882813 8.06265625 1.5625 7.125 C1.48128906 6.22007812 1.40007812 5.31515625 1.31640625 4.3828125 C1.13010715 1.98889139 1.13010715 1.98889139 0 0 Z " fill="#C12D2F" transform="translate(289,237)"/>
<path d="M0 0 C1.65 0 3.3 0 5 0 C3.71937515 1.7074998 2.38232443 3.37373596 1 5 C0.34 5 -0.32 5 -1 5 C-0.67 3.35 -0.34 1.7 0 0 Z " fill="#656565" transform="translate(35,201)"/>
<path d="M0 0 C0.99 0.33 1.98 0.66 3 1 C3.625 3.375 3.625 3.375 4 6 C3.34 6.66 2.68 7.32 2 8 C1.34 5.36 0.68 2.72 0 0 Z " fill="#D45151" transform="translate(481,32)"/>
<path d="M0 0 C2.72426311 2.35277269 3.8141763 4.62496331 5 8 C3.68 7.67 2.36 7.34 1 7 C0.67 4.69 0.34 2.38 0 0 Z " fill="#D15C60" transform="translate(484,23)"/>
<path d="M0 0 C5.66153846 1.47692308 5.66153846 1.47692308 7.375 4.125 C7.684375 5.053125 7.684375 5.053125 8 6 C5 6 5 6 3.61328125 4.6875 C2.40885417 3.125 1.20442708 1.5625 0 0 Z " fill="#D5686B" transform="translate(472,22)"/>
</svg>
